<mxfile host="Electron" modified="2023-06-23T06:04:06.370Z" agent="Mozilla/5.0 (Windows NT 10.0; Win64; x64) AppleWebKit/537.36 (KHTML, like Gecko) draw.io/21.4.0 Chrome/112.0.5615.204 Electron/24.5.1 Safari/537.36" etag="CeigjbL5CXOqAghs1qqU" version="21.4.0" type="device">
  <diagram name="페이지-1" id="ifR30felzM9GO_dj35vt">
    <mxGraphModel dx="2126" dy="957" grid="1" gridSize="10" guides="1" tooltips="1" connect="1" arrows="1" fold="1" page="1" pageScale="1" pageWidth="827" pageHeight="1169" math="0" shadow="0">
      <root>
        <mxCell id="0" />
        <mxCell id="1" parent="0" />
        <mxCell id="h3STbCcNXnfMT755zZoH-25" value="" style="rounded=0;whiteSpace=wrap;html=1;" parent="1" vertex="1">
          <mxGeometry x="87" y="347" width="120" height="40" as="geometry" />
        </mxCell>
        <mxCell id="h3STbCcNXnfMT755zZoH-26" value="" style="rounded=0;whiteSpace=wrap;html=1;" parent="1" vertex="1">
          <mxGeometry x="247" y="347" width="120" height="40" as="geometry" />
        </mxCell>
        <mxCell id="h3STbCcNXnfMT755zZoH-27" value="" style="shape=cylinder3;whiteSpace=wrap;html=1;boundedLbl=1;backgroundOutline=1;size=15;strokeColor=#999999;" parent="1" vertex="1">
          <mxGeometry x="190" y="193" width="80" height="70" as="geometry" />
        </mxCell>
        <mxCell id="h3STbCcNXnfMT755zZoH-28" value="kvm1" style="text;html=1;strokeColor=none;fillColor=none;align=center;verticalAlign=middle;whiteSpace=wrap;rounded=0;" parent="1" vertex="1">
          <mxGeometry x="155" y="357" width="60" height="30" as="geometry" />
        </mxCell>
        <mxCell id="h3STbCcNXnfMT755zZoH-29" value="kvm2" style="text;html=1;strokeColor=none;fillColor=none;align=center;verticalAlign=middle;whiteSpace=wrap;rounded=0;" parent="1" vertex="1">
          <mxGeometry x="314" y="357" width="60" height="30" as="geometry" />
        </mxCell>
        <mxCell id="h3STbCcNXnfMT755zZoH-30" value="Storage" style="text;html=1;strokeColor=none;fillColor=none;align=center;verticalAlign=middle;whiteSpace=wrap;rounded=0;" parent="1" vertex="1">
          <mxGeometry x="200" y="193" width="60" height="30" as="geometry" />
        </mxCell>
        <mxCell id="h3STbCcNXnfMT755zZoH-31" value="" style="endArrow=none;html=1;rounded=0;" parent="1" edge="1">
          <mxGeometry width="50" height="50" relative="1" as="geometry">
            <mxPoint x="113" y="437" as="sourcePoint" />
            <mxPoint x="113" y="387" as="targetPoint" />
          </mxGeometry>
        </mxCell>
        <mxCell id="h3STbCcNXnfMT755zZoH-32" value="" style="endArrow=none;html=1;rounded=0;" parent="1" edge="1">
          <mxGeometry width="50" height="50" relative="1" as="geometry">
            <mxPoint x="314" y="437" as="sourcePoint" />
            <mxPoint x="314" y="387" as="targetPoint" />
          </mxGeometry>
        </mxCell>
        <mxCell id="h3STbCcNXnfMT755zZoH-35" value="" style="endArrow=none;html=1;rounded=0;fillColor=#d80073;strokeColor=#A50040;" parent="1" edge="1">
          <mxGeometry width="50" height="50" relative="1" as="geometry">
            <mxPoint x="117" y="347" as="sourcePoint" />
            <mxPoint x="117" y="297" as="targetPoint" />
          </mxGeometry>
        </mxCell>
        <mxCell id="h3STbCcNXnfMT755zZoH-36" value="" style="endArrow=none;html=1;rounded=0;fillColor=#d80073;strokeColor=#A50040;" parent="1" edge="1">
          <mxGeometry width="50" height="50" relative="1" as="geometry">
            <mxPoint x="277" y="347" as="sourcePoint" />
            <mxPoint x="277" y="297" as="targetPoint" />
          </mxGeometry>
        </mxCell>
        <mxCell id="h3STbCcNXnfMT755zZoH-38" value="" style="endArrow=none;html=1;rounded=0;fillColor=#d80073;strokeColor=#A50040;" parent="1" edge="1">
          <mxGeometry width="50" height="50" relative="1" as="geometry">
            <mxPoint x="94" y="297" as="sourcePoint" />
            <mxPoint x="410" y="297" as="targetPoint" />
          </mxGeometry>
        </mxCell>
        <mxCell id="h3STbCcNXnfMT755zZoH-39" value="DB" style="text;html=1;strokeColor=none;fillColor=none;align=center;verticalAlign=middle;whiteSpace=wrap;rounded=0;" parent="1" vertex="1">
          <mxGeometry x="200" y="223" width="60" height="30" as="geometry" />
        </mxCell>
        <mxCell id="h3STbCcNXnfMT755zZoH-42" value="ens 33&lt;br&gt;192.168.0.9/24" style="text;html=1;strokeColor=none;fillColor=none;align=center;verticalAlign=middle;whiteSpace=wrap;rounded=0;" parent="1" vertex="1">
          <mxGeometry x="116" y="197" width="60" height="30" as="geometry" />
        </mxCell>
        <mxCell id="h3STbCcNXnfMT755zZoH-54" value="ex) cpu 30%" style="text;strokeColor=none;align=center;fillColor=none;html=1;verticalAlign=middle;whiteSpace=wrap;rounded=0;" parent="1" vertex="1">
          <mxGeometry x="241" y="340" width="90" height="30" as="geometry" />
        </mxCell>
        <mxCell id="h3STbCcNXnfMT755zZoH-55" value="ex) cpu 40%" style="text;strokeColor=none;align=center;fillColor=none;html=1;verticalAlign=middle;whiteSpace=wrap;rounded=0;" parent="1" vertex="1">
          <mxGeometry x="80" y="340" width="90" height="30" as="geometry" />
        </mxCell>
        <mxCell id="h3STbCcNXnfMT755zZoH-56" value="외부인터넷&lt;br&gt;iptime" style="ellipse;shape=cloud;whiteSpace=wrap;html=1;" parent="1" vertex="1">
          <mxGeometry x="170" width="120" height="80" as="geometry" />
        </mxCell>
        <mxCell id="h3STbCcNXnfMT755zZoH-68" value="Kvm" style="whiteSpace=wrap;html=1;" parent="1" vertex="1">
          <mxGeometry x="90" y="437" width="56" height="30" as="geometry" />
        </mxCell>
        <mxCell id="h3STbCcNXnfMT755zZoH-74" value="(cirros)&lt;br&gt;kvm" style="whiteSpace=wrap;html=1;" parent="1" vertex="1">
          <mxGeometry x="278" y="437" width="70" height="30" as="geometry" />
        </mxCell>
        <mxCell id="h3STbCcNXnfMT755zZoH-78" value="Overlay&lt;br&gt;vSwith" style="text;strokeColor=none;align=center;fillColor=none;html=1;verticalAlign=middle;whiteSpace=wrap;rounded=0;" parent="1" vertex="1">
          <mxGeometry x="161" y="473" width="115" height="30" as="geometry" />
        </mxCell>
        <mxCell id="h3STbCcNXnfMT755zZoH-87" value="PC1" style="rounded=1;whiteSpace=wrap;html=1;" parent="1" vertex="1">
          <mxGeometry x="103.5" y="100" width="64" height="40" as="geometry" />
        </mxCell>
        <mxCell id="h3STbCcNXnfMT755zZoH-88" value="PC2" style="rounded=1;whiteSpace=wrap;html=1;" parent="1" vertex="1">
          <mxGeometry x="170" y="100" width="64" height="40" as="geometry" />
        </mxCell>
        <mxCell id="h3STbCcNXnfMT755zZoH-91" value="" style="edgeStyle=none;orthogonalLoop=1;jettySize=auto;html=1;rounded=0;entryX=0;entryY=0;entryDx=0;entryDy=0;" parent="1" target="h3STbCcNXnfMT755zZoH-30" edge="1">
          <mxGeometry width="80" relative="1" as="geometry">
            <mxPoint x="141" y="140" as="sourcePoint" />
            <mxPoint x="80" y="141" as="targetPoint" />
            <Array as="points" />
          </mxGeometry>
        </mxCell>
        <mxCell id="h3STbCcNXnfMT755zZoH-101" value="" style="endArrow=none;html=1;rounded=0;fillColor=#d80073;strokeColor=#A50040;" parent="1" edge="1">
          <mxGeometry width="50" height="50" relative="1" as="geometry">
            <mxPoint x="230" y="297" as="sourcePoint" />
            <mxPoint x="229.57999999999998" y="263" as="targetPoint" />
          </mxGeometry>
        </mxCell>
        <mxCell id="h3STbCcNXnfMT755zZoH-103" value="" style="endArrow=none;html=1;rounded=0;fillColor=#f0a30a;strokeColor=#BD7000;" parent="1" edge="1">
          <mxGeometry width="50" height="50" relative="1" as="geometry">
            <mxPoint x="251" y="193" as="sourcePoint" />
            <mxPoint x="251" y="76" as="targetPoint" />
          </mxGeometry>
        </mxCell>
        <mxCell id="h3STbCcNXnfMT755zZoH-104" value="" style="edgeStyle=none;orthogonalLoop=1;jettySize=auto;html=1;rounded=0;entryX=0.42;entryY=-0.133;entryDx=0;entryDy=0;entryPerimeter=0;" parent="1" target="h3STbCcNXnfMT755zZoH-30" edge="1">
          <mxGeometry width="80" relative="1" as="geometry">
            <mxPoint x="214.70999999999998" y="140" as="sourcePoint" />
            <mxPoint x="155" y="193" as="targetPoint" />
            <Array as="points" />
          </mxGeometry>
        </mxCell>
        <mxCell id="h3STbCcNXnfMT755zZoH-108" value="SSH" style="text;html=1;strokeColor=none;fillColor=none;align=center;verticalAlign=middle;whiteSpace=wrap;rounded=0;" parent="1" vertex="1">
          <mxGeometry x="165" y="145" width="60" height="30" as="geometry" />
        </mxCell>
        <mxCell id="h3STbCcNXnfMT755zZoH-110" value="ens 32&lt;br&gt;192.168.1.100/24" style="text;html=1;strokeColor=none;fillColor=none;align=center;verticalAlign=middle;whiteSpace=wrap;rounded=0;" parent="1" vertex="1">
          <mxGeometry x="110" y="236" width="60" height="30" as="geometry" />
        </mxCell>
        <mxCell id="h3STbCcNXnfMT755zZoH-111" value="192.168.0.1/24" style="text;html=1;strokeColor=none;fillColor=none;align=center;verticalAlign=middle;whiteSpace=wrap;rounded=0;" parent="1" vertex="1">
          <mxGeometry x="103.5" y="20" width="60" height="30" as="geometry" />
        </mxCell>
        <mxCell id="h3STbCcNXnfMT755zZoH-112" value="bridge" style="text;html=1;strokeColor=none;fillColor=none;align=center;verticalAlign=middle;whiteSpace=wrap;rounded=0;" parent="1" vertex="1">
          <mxGeometry x="259" y="167" width="31" height="30" as="geometry" />
        </mxCell>
        <mxCell id="h3STbCcNXnfMT755zZoH-113" value="eth1(Kvm1)&lt;span style=&quot;white-space: pre;&quot;&gt;&#x9;&lt;/span&gt;&lt;br&gt;192.168.1.101/24" style="text;html=1;strokeColor=none;fillColor=none;align=center;verticalAlign=middle;whiteSpace=wrap;rounded=0;" parent="1" vertex="1">
          <mxGeometry x="137" y="301" width="60" height="30" as="geometry" />
        </mxCell>
        <mxCell id="h3STbCcNXnfMT755zZoH-114" value="eth1(Kvm2)&lt;span style=&quot;white-space: pre;&quot;&gt;&#x9;&lt;/span&gt;&lt;br&gt;192.168.1.102/24" style="text;html=1;strokeColor=none;fillColor=none;align=center;verticalAlign=middle;whiteSpace=wrap;rounded=0;" parent="1" vertex="1">
          <mxGeometry x="299" y="301" width="60" height="30" as="geometry" />
        </mxCell>
        <mxCell id="h3STbCcNXnfMT755zZoH-115" value="192.168.1.x/24" style="text;html=1;strokeColor=none;fillColor=none;align=center;verticalAlign=middle;whiteSpace=wrap;rounded=0;" parent="1" vertex="1">
          <mxGeometry x="20" y="283" width="60" height="30" as="geometry" />
        </mxCell>
        <mxCell id="h3STbCcNXnfMT755zZoH-117" value="192.168.0.x/24" style="text;html=1;strokeColor=none;fillColor=none;align=center;verticalAlign=middle;whiteSpace=wrap;rounded=0;" parent="1" vertex="1">
          <mxGeometry x="26" y="74" width="60" height="30" as="geometry" />
        </mxCell>
        <mxCell id="h3STbCcNXnfMT755zZoH-119" value="" style="endArrow=none;html=1;rounded=0;fillColor=#f0a30a;strokeColor=#BD7000;" parent="1" edge="1">
          <mxGeometry width="50" height="50" relative="1" as="geometry">
            <mxPoint x="103.5" y="90" as="sourcePoint" />
            <mxPoint x="250" y="90" as="targetPoint" />
          </mxGeometry>
        </mxCell>
        <mxCell id="h3STbCcNXnfMT755zZoH-121" value="" style="endArrow=none;html=1;rounded=0;entryX=0.212;entryY=0.823;entryDx=0;entryDy=0;entryPerimeter=0;fillColor=#f0a30a;strokeColor=#BD7000;" parent="1" target="h3STbCcNXnfMT755zZoH-56" edge="1">
          <mxGeometry width="50" height="50" relative="1" as="geometry">
            <mxPoint x="195.5" y="89" as="sourcePoint" />
            <mxPoint x="196" y="66" as="targetPoint" />
          </mxGeometry>
        </mxCell>
        <mxCell id="h3STbCcNXnfMT755zZoH-122" value="" style="endArrow=none;dashed=1;html=1;rounded=0;" parent="1" edge="1">
          <mxGeometry width="50" height="50" relative="1" as="geometry">
            <mxPoint x="84" y="232" as="sourcePoint" />
            <mxPoint x="187" y="232" as="targetPoint" />
          </mxGeometry>
        </mxCell>
        <mxCell id="h3STbCcNXnfMT755zZoH-123" value="" style="shape=flexArrow;endArrow=classic;html=1;rounded=0;" parent="1" edge="1">
          <mxGeometry width="50" height="50" relative="1" as="geometry">
            <mxPoint x="270" y="225" as="sourcePoint" />
            <mxPoint x="300" y="225" as="targetPoint" />
          </mxGeometry>
        </mxCell>
        <mxCell id="BRqzSoBw2KCfH_6C4SzK-3" value="" style="shape=flexArrow;endArrow=classic;startArrow=classic;html=1;rounded=0;exitX=0.5;exitY=1;exitDx=0;exitDy=0;" parent="1" source="h3STbCcNXnfMT755zZoH-68" edge="1">
          <mxGeometry width="100" height="100" relative="1" as="geometry">
            <mxPoint x="94" y="467" as="sourcePoint" />
            <mxPoint x="314" y="470" as="targetPoint" />
            <Array as="points">
              <mxPoint x="118" y="510" />
              <mxPoint x="200" y="510" />
              <mxPoint x="314" y="510" />
            </Array>
          </mxGeometry>
        </mxCell>
        <mxCell id="BRqzSoBw2KCfH_6C4SzK-12" value="Shell Script" style="shape=note;whiteSpace=wrap;html=1;backgroundOutline=1;darkOpacity=0.05;fillColor=#61666B;strokeColor=#314354;fontColor=#ffffff;" parent="1" vertex="1">
          <mxGeometry x="454" y="158" width="80" height="92" as="geometry" />
        </mxCell>
        <mxCell id="BRqzSoBw2KCfH_6C4SzK-14" value="" style="shape=flexArrow;endArrow=classic;html=1;rounded=0;exitX=0.5;exitY=1;exitDx=0;exitDy=0;exitPerimeter=0;fillColor=#61666B;strokeColor=#314354;" parent="1" source="BRqzSoBw2KCfH_6C4SzK-12" edge="1">
          <mxGeometry width="50" height="50" relative="1" as="geometry">
            <mxPoint x="440" y="356" as="sourcePoint" />
            <mxPoint x="354" y="450" as="targetPoint" />
            <Array as="points">
              <mxPoint x="494" y="450" />
            </Array>
          </mxGeometry>
        </mxCell>
        <mxCell id="BRqzSoBw2KCfH_6C4SzK-19" value="PC1 192.168.0.19/24" style="text;html=1;strokeColor=none;fillColor=none;align=center;verticalAlign=middle;whiteSpace=wrap;rounded=0;" parent="1" vertex="1">
          <mxGeometry x="26" y="107" width="60" height="30" as="geometry" />
        </mxCell>
        <mxCell id="n21v91WZ0fPpby5rq17w-14" value="" style="endArrow=none;dashed=1;html=1;rounded=0;" parent="1" edge="1">
          <mxGeometry width="50" height="50" relative="1" as="geometry">
            <mxPoint x="241" y="405" as="sourcePoint" />
            <mxPoint x="241" y="335" as="targetPoint" />
          </mxGeometry>
        </mxCell>
        <mxCell id="n21v91WZ0fPpby5rq17w-15" value="" style="endArrow=none;dashed=1;html=1;rounded=0;" parent="1" edge="1">
          <mxGeometry width="50" height="50" relative="1" as="geometry">
            <mxPoint x="402" y="404" as="sourcePoint" />
            <mxPoint x="402" y="334" as="targetPoint" />
          </mxGeometry>
        </mxCell>
        <mxCell id="n21v91WZ0fPpby5rq17w-16" value="" style="endArrow=none;dashed=1;html=1;rounded=0;" parent="1" edge="1">
          <mxGeometry width="50" height="50" relative="1" as="geometry">
            <mxPoint x="400" y="405" as="sourcePoint" />
            <mxPoint x="240" y="405" as="targetPoint" />
          </mxGeometry>
        </mxCell>
        <mxCell id="n21v91WZ0fPpby5rq17w-17" value="" style="endArrow=none;dashed=1;html=1;rounded=0;" parent="1" edge="1">
          <mxGeometry width="50" height="50" relative="1" as="geometry">
            <mxPoint x="402" y="335" as="sourcePoint" />
            <mxPoint x="242" y="335" as="targetPoint" />
          </mxGeometry>
        </mxCell>
        <mxCell id="n21v91WZ0fPpby5rq17w-18" value="zone A" style="text;html=1;strokeColor=none;fillColor=none;align=center;verticalAlign=middle;whiteSpace=wrap;rounded=0;" parent="1" vertex="1">
          <mxGeometry x="170" y="380" width="60" height="30" as="geometry" />
        </mxCell>
        <mxCell id="n21v91WZ0fPpby5rq17w-19" value="zone B" style="text;html=1;strokeColor=none;fillColor=none;align=center;verticalAlign=middle;whiteSpace=wrap;rounded=0;" parent="1" vertex="1">
          <mxGeometry x="348" y="380" width="60" height="30" as="geometry" />
        </mxCell>
        <mxCell id="n21v91WZ0fPpby5rq17w-21" value="shell 실행 시&lt;br&gt;결과 cirros kvm 생성" style="text;html=1;strokeColor=none;fillColor=none;align=center;verticalAlign=middle;whiteSpace=wrap;rounded=0;" parent="1" vertex="1">
          <mxGeometry x="380" y="460" width="130" height="30" as="geometry" />
        </mxCell>
        <mxCell id="n21v91WZ0fPpby5rq17w-34" value="" style="group" parent="1" vertex="1" connectable="0">
          <mxGeometry x="74" y="335" width="151" height="72" as="geometry" />
        </mxCell>
        <mxCell id="n21v91WZ0fPpby5rq17w-10" value="" style="endArrow=none;dashed=1;html=1;rounded=0;" parent="n21v91WZ0fPpby5rq17w-34" edge="1">
          <mxGeometry width="50" height="50" relative="1" as="geometry">
            <mxPoint x="2" y="72" as="sourcePoint" />
            <mxPoint x="2" y="2" as="targetPoint" />
          </mxGeometry>
        </mxCell>
        <mxCell id="n21v91WZ0fPpby5rq17w-11" value="" style="endArrow=none;dashed=1;html=1;rounded=0;" parent="n21v91WZ0fPpby5rq17w-34" edge="1">
          <mxGeometry width="50" height="50" relative="1" as="geometry">
            <mxPoint x="151" y="70" as="sourcePoint" />
            <mxPoint x="151" as="targetPoint" />
          </mxGeometry>
        </mxCell>
        <mxCell id="n21v91WZ0fPpby5rq17w-12" value="" style="endArrow=none;dashed=1;html=1;rounded=0;" parent="n21v91WZ0fPpby5rq17w-34" edge="1">
          <mxGeometry width="50" height="50" relative="1" as="geometry">
            <mxPoint x="149" y="71" as="sourcePoint" />
            <mxPoint y="71" as="targetPoint" />
          </mxGeometry>
        </mxCell>
        <mxCell id="n21v91WZ0fPpby5rq17w-13" value="" style="endArrow=none;dashed=1;html=1;rounded=0;" parent="n21v91WZ0fPpby5rq17w-34" edge="1">
          <mxGeometry width="50" height="50" relative="1" as="geometry">
            <mxPoint x="151" y="1" as="sourcePoint" />
            <mxPoint y="1" as="targetPoint" />
          </mxGeometry>
        </mxCell>
        <mxCell id="n21v91WZ0fPpby5rq17w-40" value="" style="group" parent="1" vertex="1" connectable="0">
          <mxGeometry x="299" y="137" width="151" height="143" as="geometry" />
        </mxCell>
        <mxCell id="n21v91WZ0fPpby5rq17w-20" value="" style="group" parent="n21v91WZ0fPpby5rq17w-40" vertex="1" connectable="0">
          <mxGeometry x="10.5" width="140.5" height="143" as="geometry" />
        </mxCell>
        <mxCell id="h3STbCcNXnfMT755zZoH-97" value="" style="group" parent="n21v91WZ0fPpby5rq17w-20" vertex="1" connectable="0">
          <mxGeometry y="23" width="137" height="120" as="geometry" />
        </mxCell>
        <mxCell id="h3STbCcNXnfMT755zZoH-66" value="" style="whiteSpace=wrap;html=1;" parent="h3STbCcNXnfMT755zZoH-97" vertex="1">
          <mxGeometry y="30" width="130" height="60" as="geometry" />
        </mxCell>
        <mxCell id="h3STbCcNXnfMT755zZoH-60" value="Img" style="text;html=1;strokeColor=none;fillColor=none;align=center;verticalAlign=middle;whiteSpace=wrap;rounded=0;fontSize=10;" parent="h3STbCcNXnfMT755zZoH-97" vertex="1">
          <mxGeometry y="31" width="60" height="30" as="geometry" />
        </mxCell>
        <mxCell id="h3STbCcNXnfMT755zZoH-61" value="user" style="text;html=1;strokeColor=none;fillColor=none;align=center;verticalAlign=middle;whiteSpace=wrap;rounded=0;fontSize=10;" parent="h3STbCcNXnfMT755zZoH-97" vertex="1">
          <mxGeometry x="54" y="25" width="60" height="30" as="geometry" />
        </mxCell>
        <mxCell id="h3STbCcNXnfMT755zZoH-64" value="host" style="text;html=1;strokeColor=none;fillColor=none;align=center;verticalAlign=middle;whiteSpace=wrap;rounded=0;fontSize=10;" parent="h3STbCcNXnfMT755zZoH-97" vertex="1">
          <mxGeometry x="54.5" y="66" width="60" height="21" as="geometry" />
        </mxCell>
        <mxCell id="h3STbCcNXnfMT755zZoH-63" value="Flavor" style="text;html=1;strokeColor=none;fillColor=none;align=center;verticalAlign=middle;whiteSpace=wrap;rounded=0;fontSize=10;" parent="h3STbCcNXnfMT755zZoH-97" vertex="1">
          <mxGeometry x="1" y="61" width="60" height="30" as="geometry" />
        </mxCell>
        <mxCell id="n21v91WZ0fPpby5rq17w-7" value="volume" style="text;html=1;strokeColor=none;fillColor=none;align=center;verticalAlign=middle;whiteSpace=wrap;rounded=0;fontSize=10;" parent="h3STbCcNXnfMT755zZoH-97" vertex="1">
          <mxGeometry x="54" y="50" width="60" height="16" as="geometry" />
        </mxCell>
        <mxCell id="n21v91WZ0fPpby5rq17w-9" value="(S)" style="text;html=1;strokeColor=none;fillColor=none;align=center;verticalAlign=middle;whiteSpace=wrap;rounded=0;" parent="h3STbCcNXnfMT755zZoH-97" vertex="1">
          <mxGeometry x="100" y="30" width="37" height="17" as="geometry" />
        </mxCell>
        <mxCell id="n21v91WZ0fPpby5rq17w-82" value="Data&lt;br style=&quot;font-size: 9px;&quot;&gt;GET" style="text;html=1;strokeColor=none;fillColor=none;align=center;verticalAlign=middle;whiteSpace=wrap;rounded=0;fontSize=9;" parent="h3STbCcNXnfMT755zZoH-97" vertex="1">
          <mxGeometry x="15.5" y="90" width="31" height="30" as="geometry" />
        </mxCell>
        <mxCell id="n21v91WZ0fPpby5rq17w-83" value="Data&lt;br style=&quot;font-size: 9px;&quot;&gt;Insert" style="text;html=1;strokeColor=none;fillColor=none;align=center;verticalAlign=middle;whiteSpace=wrap;rounded=0;fontSize=9;" parent="h3STbCcNXnfMT755zZoH-97" vertex="1">
          <mxGeometry x="69" y="90" width="31" height="30" as="geometry" />
        </mxCell>
        <mxCell id="h3STbCcNXnfMT755zZoH-65" value="DB table" style="text;html=1;strokeColor=none;fillColor=none;align=center;verticalAlign=middle;whiteSpace=wrap;rounded=0;" parent="n21v91WZ0fPpby5rq17w-20" vertex="1">
          <mxGeometry x="35" width="60" height="23" as="geometry" />
        </mxCell>
        <mxCell id="n21v91WZ0fPpby5rq17w-8" value="instance_TBL" style="whiteSpace=wrap;html=1;" parent="n21v91WZ0fPpby5rq17w-20" vertex="1">
          <mxGeometry y="23" width="130" height="23" as="geometry" />
        </mxCell>
        <mxCell id="n21v91WZ0fPpby5rq17w-36" value="" style="endArrow=none;dashed=1;html=1;rounded=0;" parent="n21v91WZ0fPpby5rq17w-20" edge="1">
          <mxGeometry width="50" height="50" relative="1" as="geometry">
            <mxPoint x="-9.5" y="143" as="sourcePoint" />
            <mxPoint x="-8.5" y="0.5" as="targetPoint" />
          </mxGeometry>
        </mxCell>
        <mxCell id="n21v91WZ0fPpby5rq17w-37" value="" style="endArrow=none;dashed=1;html=1;rounded=0;" parent="n21v91WZ0fPpby5rq17w-20" edge="1">
          <mxGeometry width="50" height="50" relative="1" as="geometry">
            <mxPoint x="140.5" y="143" as="sourcePoint" />
            <mxPoint x="140.5" y="-1.5" as="targetPoint" />
          </mxGeometry>
        </mxCell>
        <mxCell id="n21v91WZ0fPpby5rq17w-39" value="" style="endArrow=none;dashed=1;html=1;rounded=0;" parent="n21v91WZ0fPpby5rq17w-20" edge="1">
          <mxGeometry width="50" height="50" relative="1" as="geometry">
            <mxPoint x="140.5" y="-0.5" as="sourcePoint" />
            <mxPoint x="-10.5" y="-0.5" as="targetPoint" />
          </mxGeometry>
        </mxCell>
        <mxCell id="n21v91WZ0fPpby5rq17w-84" value="(M)" style="text;html=1;strokeColor=none;fillColor=none;align=center;verticalAlign=middle;whiteSpace=wrap;rounded=0;" parent="n21v91WZ0fPpby5rq17w-20" vertex="1">
          <mxGeometry x="100" y="23" width="37" height="17" as="geometry" />
        </mxCell>
        <mxCell id="n21v91WZ0fPpby5rq17w-38" value="" style="endArrow=none;dashed=1;html=1;rounded=0;" parent="1" edge="1">
          <mxGeometry width="50" height="50" relative="1" as="geometry">
            <mxPoint x="448" y="280" as="sourcePoint" />
            <mxPoint x="299" y="280" as="targetPoint" />
          </mxGeometry>
        </mxCell>
        <mxCell id="n21v91WZ0fPpby5rq17w-87" value="" style="group" parent="1" vertex="1" connectable="0">
          <mxGeometry x="550" y="80" width="210" height="420" as="geometry" />
        </mxCell>
        <mxCell id="h3STbCcNXnfMT755zZoH-125" value="&lt;font style=&quot;font-size: 10px;&quot;&gt;virt-builder 조건&lt;br&gt;flavor &amp;gt; m1.small &amp;gt; cpu1 / ram10&lt;br&gt;image &amp;gt; cirros&lt;br&gt;volume &amp;gt; 10G&lt;/font&gt;" style="text;strokeColor=none;align=left;fillColor=none;html=1;verticalAlign=middle;whiteSpace=wrap;rounded=0;" parent="n21v91WZ0fPpby5rq17w-87" vertex="1">
          <mxGeometry x="19" y="23" width="185" height="30" as="geometry" />
        </mxCell>
        <mxCell id="n21v91WZ0fPpby5rq17w-31" value="" style="rounded=1;whiteSpace=wrap;html=1;container=0;" parent="n21v91WZ0fPpby5rq17w-87" vertex="1">
          <mxGeometry x="11.25" y="277" width="182.5" height="123" as="geometry" />
        </mxCell>
        <mxCell id="n21v91WZ0fPpby5rq17w-25" value="" style="rounded=1;whiteSpace=wrap;html=1;container=0;" parent="n21v91WZ0fPpby5rq17w-87" vertex="1">
          <mxGeometry x="11.25" y="73" width="182.5" height="200" as="geometry" />
        </mxCell>
        <mxCell id="BRqzSoBw2KCfH_6C4SzK-18" value="1. 인스턴스 정보 지정 (menu.sh)&lt;br style=&quot;font-size: 9px;&quot;&gt;* 이름&amp;nbsp;&amp;nbsp;&lt;br style=&quot;font-size: 9px;&quot;&gt;* IMG&amp;nbsp;&lt;span style=&quot;white-space: pre;&quot;&gt;&#x9;&lt;/span&gt;&lt;br style=&quot;font-size: 9px;&quot;&gt;* flavor&amp;nbsp;&lt;span style=&quot;white-space: pre;&quot;&gt;&#x9;&lt;/span&gt;&amp;lt;&lt;br style=&quot;font-size: 9px;&quot;&gt;* hostid&lt;br style=&quot;font-size: 9px;&quot;&gt;* vol size&amp;nbsp; &amp;nbsp; &amp;nbsp; &amp;nbsp; &amp;nbsp;&lt;br style=&quot;font-size: 9px;&quot;&gt;&lt;br style=&quot;font-size: 9px;&quot;&gt;2. DB 설계 및 인스턴스 정보 DB 저장&lt;br&gt;&lt;br&gt;3. CPU 점유 비교&lt;br&gt;&lt;br style=&quot;font-size: 9px;&quot;&gt;4. 이미지 정보 flavor정보 DB에서 &lt;br&gt;&amp;nbsp; &amp;nbsp; 받아온 뒤 이미지 Virt builder&lt;br&gt;&lt;br style=&quot;font-size: 9px;&quot;&gt;5. 인스턴스 생성&lt;br&gt;&lt;br style=&quot;font-size: 9px;&quot;&gt;6. 인스턴스 정보 DB로 부터 추출해 출력" style="text;html=1;strokeColor=none;fillColor=none;align=left;verticalAlign=middle;whiteSpace=wrap;rounded=0;fontSize=9;container=0;" parent="n21v91WZ0fPpby5rq17w-87" vertex="1">
          <mxGeometry x="21.25" y="106" width="170" height="130" as="geometry" />
        </mxCell>
        <mxCell id="n21v91WZ0fPpby5rq17w-32" value="&lt;font style=&quot;font-size: 11px;&quot;&gt;&amp;nbsp; &lt;br&gt;# Script&amp;nbsp;&lt;br&gt;&amp;nbsp; - UI_instance.sh (변수 정의)&lt;br&gt;&lt;br&gt;&lt;span style=&quot;&quot;&gt;&lt;span style=&quot;&quot;&gt;&amp;nbsp;&amp;nbsp;&amp;nbsp;&amp;nbsp;&lt;/span&gt;&lt;/span&gt;- cpu_check.sh&lt;br&gt;&lt;span style=&quot;&quot;&gt;&amp;nbsp;&amp;nbsp;&amp;nbsp;&amp;nbsp;&lt;/span&gt;- virt_builder.sh&lt;br&gt;&lt;span style=&quot;&quot;&gt;&lt;span style=&quot;&quot;&gt;&amp;nbsp;&amp;nbsp;&amp;nbsp;&amp;nbsp;&lt;/span&gt;&lt;/span&gt;- virt_install.sh&lt;br&gt;&amp;nbsp;&amp;nbsp;&amp;nbsp;&amp;nbsp;- Data_Insert.sh&lt;br&gt;&lt;span style=&quot;&quot;&gt;&lt;span style=&quot;&quot;&gt;&amp;nbsp;&amp;nbsp;&amp;nbsp;&amp;nbsp;&lt;/span&gt;&lt;/span&gt;- Info_output.sh&lt;br&gt;&lt;br&gt;&lt;/font&gt;" style="text;html=1;strokeColor=none;fillColor=none;align=left;verticalAlign=middle;whiteSpace=wrap;rounded=0;fontSize=9;container=0;" parent="n21v91WZ0fPpby5rq17w-87" vertex="1">
          <mxGeometry x="23.75" y="273" width="170" height="130" as="geometry" />
        </mxCell>
        <mxCell id="n21v91WZ0fPpby5rq17w-73" value="" style="group" parent="n21v91WZ0fPpby5rq17w-87" vertex="1" connectable="0">
          <mxGeometry width="210" height="420" as="geometry" />
        </mxCell>
        <mxCell id="n21v91WZ0fPpby5rq17w-74" value="" style="endArrow=none;dashed=1;html=1;rounded=0;" parent="n21v91WZ0fPpby5rq17w-73" edge="1">
          <mxGeometry width="50" height="50" relative="1" as="geometry">
            <mxPoint x="2.781456953642384" y="420" as="sourcePoint" />
            <mxPoint x="2.781456953642384" y="11.666666666666666" as="targetPoint" />
          </mxGeometry>
        </mxCell>
        <mxCell id="n21v91WZ0fPpby5rq17w-75" value="" style="endArrow=none;dashed=1;html=1;rounded=0;" parent="n21v91WZ0fPpby5rq17w-73" edge="1">
          <mxGeometry width="50" height="50" relative="1" as="geometry">
            <mxPoint x="210" y="420" as="sourcePoint" />
            <mxPoint x="210" y="10" as="targetPoint" />
          </mxGeometry>
        </mxCell>
        <mxCell id="n21v91WZ0fPpby5rq17w-76" value="" style="endArrow=none;dashed=1;html=1;rounded=0;" parent="n21v91WZ0fPpby5rq17w-73" edge="1">
          <mxGeometry width="50" height="50" relative="1" as="geometry">
            <mxPoint x="209.9985430463576" y="419.9966666666666" as="sourcePoint" />
            <mxPoint x="2.78" y="419.9966666666666" as="targetPoint" />
          </mxGeometry>
        </mxCell>
        <mxCell id="n21v91WZ0fPpby5rq17w-77" value="" style="endArrow=none;dashed=1;html=1;rounded=0;" parent="n21v91WZ0fPpby5rq17w-73" edge="1">
          <mxGeometry width="50" height="50" relative="1" as="geometry">
            <mxPoint x="210" y="5.833333333333333" as="sourcePoint" />
            <mxPoint y="5.833333333333333" as="targetPoint" />
          </mxGeometry>
        </mxCell>
        <mxCell id="n21v91WZ0fPpby5rq17w-88" value="Storage IP" style="text;html=1;strokeColor=none;fillColor=none;align=center;verticalAlign=middle;whiteSpace=wrap;rounded=0;" parent="1" vertex="1">
          <mxGeometry x="21" y="214" width="60" height="30" as="geometry" />
        </mxCell>
        <mxCell id="N_zI29rAcOWr5A2up28Q-1" value="" style="shape=image;verticalLabelPosition=bottom;labelBackgroundColor=default;verticalAlign=top;aspect=fixed;imageAspect=0;image=data:image/png,iVBORw0KGgoAAAANSUhEUgAABBYAAAKeCAYAAAAREZglAAAgAElEQVR4nOzde5gjd33n+0+p1WpJ3T3dc++ZNp6Lp+2xwfZgQ7CBjWdCgm2y58SH5DxA9iS2d082GC/EXggsJgS83AlgGwI2h00w5ElsnicnmGdPYrPPZm3AGGMuMwbbM/bcejyXvk9r1C2pW2qpzh89aqvVUlWpJJWq1O8XTyeeqt+3fj99u1Tq31d1kWnjpZdesmtS0fT0tCcxrYgjJ8t5mY+gxAUhJ17n8bvf/a6n/QUhJ272kyDs//XEtWtOgvB543VcEHIShDyapmn++Mc/9qy/IOSknd83buOCkJMgfN7U01+75iQI+389cW6Or0F4bc3YR0ICAAAAAABwicICAAAAAABwjcICAAAAAABwjcICAAAAAABwjcICAAAAAABwjcICAAAAAABwjcICAAAAAABwLZxIJCwbpFIp2bWpJJlMehLTijhyspyX+QhKXBBy4nUes9ksOSnjZj8Jwv5fT1y75iQInzdexwUhJ0HIoyRlMhlyUqKd3zdu44KQkyB83tTTX7vmJAj7fz1xbo6vQXhtzdhHwv39/ZbB3d3dsmtTjZs4L/tyG0dOlvM6H0GIC0pOvOwrEomQkzJu95Mg5NFtXDvnJAifN17HBSEnQchjLBYjJyXa/X3jJi4oOQnC543b/tzGBSEnQcij2zi3x9cgvLZG7yNcCgEAAAAAAFyjsAAAAAAAAFyjsAAAAAAAAFyjsAAAAAAAAFyjsAAAAAAAAFyjsAAAAAAAAFyjsAAAAAAAAFyjsAAAAAAAAFyjsAAAAAAAAFyjsAAAAAAAAFyjsAAAAAAAAFyjsAAAAAAAAFwLJxIJywapVEp2bSpJJpOexLQijpws52U+ghIXhJx4ncdsNktOyrjZT4Kw/9cT1645CcLnjddxQchJEPIoSZlMhpyUaOf3jds4tzkJR3s1O5f3JM7LviRpy6t2etpfu+bE6zEG4fgahGNCMz6Dw/39/ZbB3d3dsmtTjZs4L/tyG0dOlvM6H0GIC0pOvOwrEomQkzJu95Mg5NFtXDvnJAifN17HBSEnQchjLBYjJyXa/X3jJs5tTtxM/IBmWrNmTSCOr34/JriNsTqWcCkEAAAAAABwjcICAAAAAABwjcICAAAAAABwLdzqAQAAAAAIDtMsqLCQl2RKMhqyzY7OzoZsB0BrUFgAAAAA4JwpLWSzOnbsmGZnZ5TP13eTx6Ghi7V+82bbdr2xV6YuM5mFuvoE0FgUFgAAAAA4ZprSwkJejz76/+no0cOam5ura3vve9+djgoLrVatsFG63M5MZsG2fXnRhIIKgoDCAgAAAIAamZqdndH0dEJzc5m6trSwwGS5VG8sTAEBgUNhAQAAAEDNTNNUoZCv+1II0zQbNKLWqOcMA7dnPgB+w94LAAAAwJUNGzYqHo+rq6tLkjQ5Oalsdl7RaEzr1q2TJKXTac3MzGhuLqOtWwfV2dmpfD6vdDqlEydOuO67fCJeaRJfbbLutG2xXfk6Lk8AlqOwAAAAAMCVHTt26pJLdmv9+vWSpF/84ueanj6rTZs264orrpQkjYyM6NixoxofH9Nb3vI76unpUTab1alTJ3Xq1ClX/VYqApRfQmB1BoDTtlyWADhDYQEAAACAK5s2bdJll12mwcELJEnj42Pq7Azrwgu36aqrrpYkHT16VJlMWtnsvC6//HKtXbtOmUxGXV1RhUKhpoyr2tkM1QoS5e3K15XfdLFRxQarsyTayaGDL+h73/1H/cd3366169a3ejhoAgoLAAAAAFw5ffqUfv7zn+no0aOSpCNHjujcuYTm5+cVDi9ONcbHx3TixLAmJyf09NM/UXd3j3K5rEZGzri+P0Mt9yYobVtaIKh0NkL5slZM8tvtLIlDB1/Qg3/zdeVyOX31K/fq9vfeQXGhDYUTiYRlg1QqJbs2lSSTSU9iWhFHTpbzMh9BiQtCTrzOYzabJSdl3OwnQdj/64lr15wE4fPG67gg5CQIeZSkTCZDTkq08/vGbZzbnISjvbZt0um0zp6dUi6XkyTNzs4ok8loZmZG4+NjkqTp6bNKpWY1Pz+vyclJpVIpLSzklEgkfHnjRi/vn1CtQNIuxYXSooIkTZ+dqqu4EITjaxCOCc34DA739/dbBnd3d8uuTTVu4rzsy20cOVnO63wEIS4oOfGyr0gkQk7KuN1PgpBHt3HtnJMgfN54HReEnAQhj7FYjJyUaPf3jZs4tzmZnbM/m6C7u1sbNmxculHj+Pi4TNNUX1+ftmzZIkkKhULnb944p82bN6u7u1vZbE6FQkGG0ZxLIWpRfplDKS8n+FbjCKLyokJRPcWFNWvWBOL46vdjgtsYq2NJ++y5AAAAADy1ZctW7dlzlQYHByUtfhM6OjqiCy/cpmuvfZOkxXss5PN5FQqmrr76dUv3WHjxxUN69NF/aeXwl/DYx8aqVlQoqvfMBfgP7xoAAAAArkxMjOuFF57X2NioJOnkyZOanp6WJP3yl7+QJI2Ojmhk5IwSiWn9+te/XvZUiEKh0JRxVbuXgpOnSbTqzIF2KWjYFRWKKC60l/bYewEAAAB4bnx8TAsLC+ru7pa0WFjIZNLKZNJaWFicrCeTSU1OTmpmJqnnnvuVurq6tLCQVyIx3bTCQjm7py9Um9RXuwyiUfdhqKdfJ+1bIRaL6U/e/Z8ct7crQCAYKCwAAAAAcCUeX7zHQl9fnyQpkTgnw5D6+vo0MLB4j4XOzk7Nzc0pl8tq48ZNisfjyuVyMgxDhmE0bWxWZx44OUOhfLLu1ZkMfioSuLFt+45WDwEtQGEBAAAAgCs7d+7UG9/4Zg0OXiBJCofDGh0d1bZt27Rv31skSUePHtH+/ft14sSwfud33rp0j4VDhw7pxz/+keO+qk24rSbiTifpjWxn16bWwkHQCw1YHSgsAAAAAHBlbm5eyWRS8fjifRXS6bTm5+eUTqeW7rWw+ESIjHK5rBKJc5IMzc1lNDs748vHTQKoHYUFAAAAADUyFI93a3j4mMbGRhWNRiVJk5OTymbnNTY2puPHj0taLDYUiwuPPPL/qrOzU/l8Xul0St3d3QqHmZIAQce7GAAAAEBNOjo6dM0112pqanLpJo2StL3G6+svv/xKbdy4qdHDA+AxCgsAAAAAHDMMQ+HOsN74pjdzKQMASRQWAAAAANTACBkKd3W1ehgAfCTU6gEAAAAAAIDgorAAAAAAAABcCx8+fNiywZkzZ1xtOJVavMtrs2NaEUdOlvMyH0GJC0JOvM5jMpmU3fGmkf0FISdu9pMg7P/1xLVrToLweeN1XBByEoQ8Sot34ffq+BqEnLTz+8ZtnNucbHnVTldxQLMMDw/7/vgahGNCMz6Dw0NDQ7YbcNKmXCKRUH9/f9NjWhEnkZNyXuUjSHF+z4nX+Xj++efJSQW15iQo+z85aUxfkv+PJW7jgpCTIORRkiYmJshJmXZ939QT5yYns3N5HT92RAefe7bmWKDRLn3Nldq+fbvvj69BOCY04zOYmzcCAAAAqCiTTuvCS16vtRu2tnooWMWmJ88ok060ehiwQGEBAAAAQFWGJMNo9SiwmrH7+R83bwQAAAAAAK5RWAAAAAAAAK5xKQQAAAAAwNdOnzqp8dHT6unpWbZ87969LRoRSlFYAAAAAFCVYXCPBbQW+5//cSkEAAAAAABwjcICAAAAAABwjUshAAAAAFjiTHQAVjhjAQAAAAAAuEZhAQAAAAAAuBZOJBKWDVKplOzaVJJMJj2JaUUcOVnOy3wEJS4IOfE6j9lslpyUcbOfBGH/ryeuXXMShM8br+OCkJMg5FGSMpkMOSnRzu8bt3FucxKO9kqSDMOQwW350ULF/S+dTq9Y52Tf9vL4GoRjQjM+g8P9/f2Wwd3d3bJrU42bOC/7chtHTpbzOh9BiAtKTrzsKxKJkJMybveTIOTRbVw75yQInzdexwUhJ0HIYywWIycl2v194ybObU5m5/I1x5RbnA6ar9ykwZRkGCoUzKYUK3Zt6ZIkHRmZb/i20XrxeFw9PT3Lljndt708vvr9mOA2xupYws0bAQAAAFRlyO3NG02FDKnDKKgjtLiNvCnlC4YMIySzhi1ddL5gcNRhwSBI51cUX1u54mstXV/p9Zfmptq2qm07KIL0+1ytKCwAAAAAaChDUjhUUCGb0vjEuM6cPqlQKKR169drYMugIrE1yhU6VKilugBdtKUrcEUBrA4UFgAAAAA4Fg6ZMiTLMw5CKujc2TGdOPaSnnvuVxobG5VhGFq/fr127tylq19/rTpjfQqFIo6KC+08mS4/M6Ge11oe24htAk5QWAAAAABQlWEs/kiLZyJ0hgqaz6Q0Pz8n06xcFTDMvA698Cs99eMf6tlnD6i7u1v5fF6FQkGHDh3S2rX92jH0GkW718p0cKL7zoHFCfKx0fkVy6qNOaiqjf3Y6Lx2DnTpoi1dy/JgF2e3LgiCPv7VgMICAAAAAEdMLZ6N8PLwER07eljZbOVvwnO5nJ5//jkdOXJY4XBYl132as3MzGhkZERTU1P613/9n/r9dRs12LNGMmufklgVFQB4j8ICAAAAgJoMDx/Tk0/+ULOzMxXXFwqm0umUIpGIXvWqC/W2t/1bzc7O6ic/eUrPPPO0RkdHlMvOK1TnV9Hl39y3e8GheNbCzoHKZy0ArRJq9QAAAAAABEtXV5fC4bDS6bQ6Ojq0sJDXwsKCOjrC6u1do56eHnV2diqfzyudTuns2bOamprU7OysDMNQONwpw3A3Fal0WQSA1uKMBQAAAACWlu6xYCz+nwsv3K5LL71M8/PzuvjiizU1NSXTNLVx4yZtHbxA+YUFvfTSi3rxxYOamJjQj3/8I6VSKY2Pj6mrq0u7dg0pFo+rYJo1XT9f2rZd7ylQbezF5cfH5rVj8+JZC8fH5m3j7NYBjUBhAQAAAIAzppQ3De26eLcWcllNTIzr9a9/g44fP6Z8Pq9dQ5fo8iuuUrjD0C9+8TMZhvTsswf0q189K0kKh8PasmWr/s1vXqf+tZtkcgI10BYoLAAAAABwxJSUK4RkyFQ0GtOmTZsVj8fU39+vQsFUPB5XQYbmCx26aOhS9XR3a8eOnTp27Jg6OkIaHLxAl132Gm3fMSQzHFfe5Kt0N4pnLezY3N73lEBwUFgAAAAAUJVx/qd0iWkaWr9xs659029q/fr1WtO/XpKpWLxXpjqUN0OKxNZo4FU7Fe9dq92XXSHDMNTT06O+teukcFwyQpJpOHjY5PKxFO3Y3KXhscr3WQhyuaLa2O1ek9X6IOdDCv74VwMKCwAAAACqW1lZUMEwFOvt0wW9/ZKkWO+6xRWmlJch05QU6lBntFcbBrq1eesFSxvLm9JCIbS4yVpnjIY0PD6v7ZsWv6nfXu0b+wDNRIuvZenf51/T8HhZ0aTsNZXmodJ6q9jACfr4V4FwIpGwbJBKpWTXppJkMulJTCviyMlyXuYjKHFByInXecxms+SkjJv9JAj7fz1x7ZqTIHzeeB0XhJwEIY+SlMlkyEmJdn7fuI1zm5NwtLfqurwZUt60vz+CKUnqUL6wfHm9NxNcMamusgztJZ1Or1jmZN/28vgahGNCMz6Dw/39/ZbB3d3dsmtTjZs4L/tyG0dOlvM6H0GIC0pOvOwrEomQkzJu95Mg5NFtXDvnJAifN17HBSEnQchjLBYjJyXa/X3jJs5tTmbn8pKKJyy09ivjE+NZ18v8zm7MVuvriQ2S4t4Xj8fV09OzbJ3TfdvL46vfjwluY6yOJdyGFQAAAAAAuMY9FgAAAABUZ9R/6QJQF/Y/3+OMBQAAAAAA4BqFBQAAAAAA4BqFBQAAAAAA4Br3WAAAAABQlSEucUdrsf/5H4UFAAAAANbOz+y+8+CXWzsOtL133PK+Vg8BLlBYAAAAAODI7bff3uohoM1Nplo9ArhBYQEAAABAVaWXQkylOlo5FKwClS574FII/+PmjQAAAAAAwDUKCwAAAAAAwDUuhQAAAABgiVPRAVgJJxIJywapVEp2bSpJJpOexLQijpws52U+ghIXhJx4ncdsNktOyrjZT4Kw/9cT1645CcLnjddxQchJEPIoSZlMhpyUaOf3jds4tzkJR3sX/4PnTaLVzu9/6XR6xSon+7aXx9cgHBOa8Rkc7u/vtwzu7u6WXZtq3MR52ZfbOHKynNf5CEJcUHLiZV+RSISclHG7nwQhj27j2jknQfi88TouCDkJQh5jsRg5KdHu7xs3cW5zMjuXrzkGaKZ4PK6enp5ly5zu214eX/1+THAbY3Us4VIIAAAAAFUZ5/8HtAr7n/9RWAAAAAAAn/rLD922Ytl//dz9K9aXLqsU72Z9pb6ttoXVi6dCAAAAAKjO4KdVP9Um9n/5odtW3vui2nYs1i/bvlWsVf9e/cDXOGMBAAAAQFXM61rjox9cnPR/4vMrzw746AdvW/E7sfsdla8vbt9JfOkYinFe7hPsf/5HYQEAAABAIJRPtssnx5UmwOXKYz/x+furbsdq+07Wu2VVVKg0vmrtqq23eu1OxwCU4lIIAAAAAIHy0Q/eVnVC7GZbtSy3Wt+IMTGhRxBxxgIAAACAqgxj8cdvPvlXr0y8/+LPz5+eb1ReX61Nte189IO3WW6/+G+7MdSjlu3YFTRKt1Vp7Fb9OYltNj/uf1iOwgIAAAAA33MzqS3G1Lotqz6aObmuZdvVXlu5SsUPu+2Xbru8H6+LCggGCgsAAAAA2orTSbff+3Ci2kS/0eOjoAArFBYAAAAAWPLTqehWYzEM6SMfWJxQf+oLyyfCxeWl8U5O/3fady1tGrkNu7bF9cXXL1UuOlTazqe+cP9S3F/8+W0rcgoUUVgAAAAA4GvVigXl6+yKCk7b1BrrNbtxlK8vLSrUuu3S1w1UE04kEpYNUqmU7NpUkkwmPYlpRRw5Wc7LfAQlLgg58TqP2WyWnJRxs58EYf+vJ65dcxKEzxuv44KQkyDkUZIymQw5KdHO7xu3cW5zEo721hyzWnzkAyu/va+0zG/btyrMuB2Xl9Lp9IplTvZtL4+vQTgmNOMzONzf328Z3N3dLbs21biJ87Ivt3HkZDmv8xGEuKDkxMu+IpEIOSnjdj8JQh7dxrVzToLweeN1XBByEoQ8xmIxclKi3d83buLc5mR2Ll9zjF806xv20m/vm/0tfqO234izLPxy1kI8HldPT8+yZU73bS+Pr34/JriNsTqWhGreGgAAAIBVo/i4yVb9FCe0n/7i/bbryn36i/cv++9q26pleek2S7ddaXy1/lTadvn2rfJRvt6ubfn9JqzaF33kA7e1ZD+Av3GPBQAAAAC+VW2yXWldtUm/3bYatbwR7LZdy3on43TavpmvGcFHYQEAAABAVcb5/wGtwv7nf1wKAQAAAAAAXOOMBQAAAADVGed/gFZh//M9CgsAAAAALDGvA2CFSyEAAAAAAIBrFBYAAAAAAIBrXAoBAAAAoCpusYBWY//zP85YAAAAAAAArnHGAgAAAABrfGUMwAKFBQAAAACB8qE73y1J+tw9D7R4JM1XfK2lSl+3XS7qWV+pb6ttYfUKHz582LLBmTNnXG04lUqpu7u76TGtiCMny3mZj6DEBSEnXucxmUzK7njTyP6CkBM3+0kQ9v964to1J0H4vPE6Lgg5CUIeJWlyctKz42sQctLO7xu3cW5zsuVVOyX5+x4Lfh1Xo3ywysT+Q3e+W58vm9zb5aLS+tLt15LLSv03U3Fso6Ojikajy9Y5Of55eXwNwjGhGZ/B4aGhIdsNOGlTLpFIqL+/v+kxrYiTyEk5r/IRpDi/58TrfDz//PPkpIJacxKU/Z+cNKYvyf/HErdxQchJEPIoSRMTE+SkTLu+b+qJc5OT2bl8zTFe8XJS2yrFSX+l11qt4OBm+06UjqERfbs1MDCgnp6eZcuc7NteHl+DcExoxmcwl0IAAAAACIzSCXel/y4KcvHBqqhQutyuXbX1VnlzOgagFE+FAAAAAFCVYfjrp3RcRZUmxx+8890tH6ubn+Jr+at7H6gpF7Wsr5RDN7Gt+L3DnzhjAQAAAECg/dW9y79V//M7Wne6fivU8nqLbctz1uxYtDcKCwAAAAACoXRi246T3Fpek9NiQum2nG6/dNvl/bRTvtE4FBYAAAAAIKCqTfQbfdYGBQVYobAAAAAAoDofXuNe7T4BkvSBP3t31XVBUcu47doW15fmpVLRodJ2vnDfA0txf37Hu/WF+1pUXAjo73E14eaNAAAAAHyvOMEtnexaTXRbNgn2gN3rL19fWlSoddvtnEc0DoUFAAAAAG3BScEhCCoVAmopDlTzhfseWPFT77gAiUshAAAAAFgw5K8z0UvHUmmi+8WAFxWKKr228t+D3e/FkPT+89uxy4vVtr943wNL22nFvuCn/Q+VccYCAAAAgOqM1v8sTY6//MCy/y73xS8/0PKx1vNT6TUVX1fxtS17/bXkqlq/RXbbPu/9f/bu1uQHvsYZCwAAAAB8zWrC3W7sXlMt653kx2n7dsw1GofCAgAAAICqjPP/84P//L4/lSR96ctfb/FI4CW/7H+oLpxIJCwbpFIp2bWpJJlMehLTijhyspyX+QhKXBBy4nUes9ksOSnjZj8Jwv5fT1y75iQInzdexwUhJ0HIoyRlMhlyUqKd3zdu49zmJBztrTkGaKZ0Or1imZN928vjaxCOCc34DA739/dbBnd3d8uuTTVu4rzsy20cOVnO63wEIS4oOfGyr0gkQk7KuN1PgpBHt3HtnJMgfN54HReEnAQhj7FYjJyUaPf3jZs4tzmZncsv/bfhsy+M/TYeeCMej6unp2fZMqf7tpfHV78fE9zGWB1LuBQCAAAAQCDc8xUugQD8iKdCAAAAAAAA1zhjAQAAAEBVPO0Prcb+53+csQAAAAAAAFzjjAUAAAAA1XHKAlqN/c/3OGMBAAAAAAC4xhkLAAAAAKrihAW0Gvuf/1FYAAAAAFapW2+9Vffcc4/tM+3jXZzoDKA6CgsAAADAKvXEE08okUjYFhZM06MBAQgkCgsAAABAgD3yyCM6cOCAJGnv3r3au3dvQ7dvSCpQWEALcSmE/1FYAAAAAAJoeHhY73rXuzQwMKArr7xSknT33Xfrc5/7nB566CHbsxAcM6QCpyyglags+B6FBQAAACBg5ubmdOONN+qb3/ymrrnmmmXrHnvsMd144416/PHHFY1GG9JfodCQzQBoU+FEImHZIJVKya5NJclk0lVMf3/tcYvFWO/ihoa6JL3sSX9evzY3cV7mIyhxQchJLTGJxJql/3bz3pakbDbr2bHEbZyXfUnujq9ej5GcNCbOy3zU0x85qT+mFXGZTIaclGjn901p3Pvf/369733vW1FUkKQbbrhB+/fv11133aW//Mu/tMxJoVBQMpmsuD4c7V36b05YgB+k0+kVy5y83708vgbhWNKMz+Cw3SlS3d3drk+jchfn7kUCaJ7y97Kb93YkEvH4WOIuzsu+3B5fg5BHt3HtnBMv8+G2P6/jgpCTIOQxFouRkxLt/r4pxv3TP/2TvvjFL1Zt8653vUv79u3Tl770JcuchEIhrVmzpuL62bn80n9bXQqRSacVi8dreAW1+ZN//0cVl3/jb/+uaX3aKY6pWWOoZ/vNHlsrxeNx9fT0LFvm9H3k5fE1CMeSRn8GcykEAABAm/v4xz+uu+++u9XDQAPZTXi2b9+u4eFhGYb9xek7duyouHwmsyDJ/uaNf/s3X9c7//CPtXbdetu+avGn/+GVgsLX/+bvVqz7k3//RyuWe63ZN7WsZ/vtdMNNbrHgfzyQFgAAoM2dOHFC3/zmN2Wa5tLP9PT0sn87+XET43XcSy+95PsxNiKur69Po6OjVX/nhw4d0u7du21zsn37dh0/frziulIF06z6MzU1pa9+5R5NTU1atqv1p+j+//btqusa2Z+bsTVr+/f/t29XfN1+GFsr8w3/4owFoIUMY5skyTRPNLRts8cCAABa653vfKcefvhh3XHHHRXXP/zww3rHO97RsP7s5nbTZ6d0/1/fq3fffkdDzlx4z5/8sSTpa9/4dsW+v/aNb68YVzGmUrvybZa3LW1nt63Sdbf933+8bH21PiqNw0n/5X3ajd1qbE77Btxom8JCcVJUjWmesJw4lcbXMrFq1mQsCJM8u5wXFV+DVfvy19nI1+91LmvNS7MFYV8CAAC1+cxnPqNrr71Wu3fv1g033LBs3cMPP6wf/OAHevTRRxvWn+VTIc5P7qfPTumBv75X//H2O7R2bWMui3D6NIr/9KeLE+a//vq3ly17z5/88bJlklYsK29XaVulcX/99W9XbFM61vIJfHFdLeMs36aTsVuNze51AfXgUgi5LyqgcZxOxgEAACBFo1E9+uijuu+++3Tttdfq4x//uD784Q/r2muv1fe+9z1997vfbdijJg1j8cyAaj+lpqen9P989V6dPTtlGWP3U+SkbXHC/JUHvr1s+VceeKVQULpNp+3K+ymNq9amtI/Sn9Jt2PVfaftOx+5kbFavy68/Dm4VghZrmzMWimotDNRbVFjNhQi3ZxlUi2sWr39HzTz7wo3VvI8CANDOBgYG9Oijj+rpp5/WY489pr6+Pt1zzz0VH0FZL6sbAZavmp6e0vO/flZv/De/1dR+a2lbus5pu/e+e7Fgcd/91b/Nr7Ytu3H/2W0rL0moFGf3bzdtnbwuoFZtV1ioRSPOVCidNFb6b6vtV2tTurx8jNUm4eWx9Y7B6fogqPV3VGtOrNq6GWcjtlVpu6Xb4wwRAADaxzXXXNOUYkIp6xvoLV+373fepmvevK8hN92rZRtWbctvamjV7p6vfUt3vufmpWXFIsA9X/uW4z6rLS9ut3xbxeXlcXb/rqVtLa8LqNWqvRSimZc/VJq0lRcL7NrU26eT7TsZp902GsXrgkW11+YmJ80cj1d9AQCA1enmm2+2f559DZdC7Pvtt2nfb/9u3R26en0AACAASURBVKe+F9XbtnSd03amKX3pq9/Sl766cvLv9nID03ylePClr37LNs7u37XElv7YvS6//vC8Sf9ruzMW7L7RL2/TrAltpf4MY9uy5VanzFc7fd7JWQdOxlAtB6Xtqq0vfx218stZEE72CSe5tWrnZiyl26s31276BAAAq8fHP/5xR+2c3ERx71vepuve8ruOb7ho5Qtf+ZY+8N6b9Z9vv1lf+MrKb9Q/8N6bl9o5GWPpOqftSrdf7K98fbVt1dKH1Tqn/dXa1u51AbVatWcsNJOTYoCTuGqKk/tq37DXMga7dl5M+q1eR7M4zUcpL++VwCMlAQCAnxRMs+qPJF33lrfpN9/yNst2tf4UfeC9N1ddVzBNff7LD1ZsV5w0f/7LD66IsdqeXX9W23LaR6VxWm2/lu1a9VPLeP30A/9ruzMWnEyYSr+xb+Y3wnbcnDnh9QS8Gf214tt5AAAAuGc1t/vN33qbrrzqGss2bnzuvsWCwYf+7BZ98H23VFxf7PNz9z1YsV1pmyKrcZrmYoyb/orjrdaH1Rg/9Ge3VIyrdexWY3PyugC32q6w4JTVjRBb0beTb5JrPV0/KFr5uwAAAIA1Q9ZPI7j8tddYrq/XZ+59sOLy8j4rtSttU1xfaazl6+y2ValNwbTuw2q71fqv9m+rsVcbm1X/fsctFvwvnEgkLBukUinZtakkmUy6irG7d0wjFSe0rfimvJ7r270cK2cQQNKyY4Cb97YkZbNZz44lbuO87Etyd3z1eozkpDFxXuajnv7ISf0xrYjLZDK2Oclms0qn03Ufz4OQk3Z+37iNc5uTcLR36b85HR2tVCwspNPpFeuc7NvNPL42qq+gfwaH7e4C293dbX+n2Crcxbl7kfXysrjgp1P+y8di9+9qy+odQ5B48ftr9r0Qan0N5e9lN+/tSCTi8bHEXZyXfbk9vgYhj27j2jknXubDbX9exwUhJ0HIYywWs42LRCKKx+MNOZ77PSft/r5xE+c2J7NzeUmSYRiB+FYb7StkLJYW4vG4enp6lq1zum836/jaqL68jmv0Z/CqvRSiqFX3W3A6mW7WYwjLX3et6+vh9IaTtbZttlbkpNGa+RoAAED7orCAVupo9QBga9UXFiTviwuV7ilQ6WkMldo4WdaocVTbdjPy45czOOw0+ndg11czePkaAABAe+BSCABW2qaw4PRpEPXE28XVsn2347VbVutrtBtHLXnxclu1cJKfWpbXOrZG7XeN2EdrXQYAAGBIKhRaPQqsZty80f/aprAAtArf9AMAgHY3tKWr1UPAKnb6dKtHADsUFipwOlHkG97WadXvyKpfL/cH9lEAAAAAfkFhoQImY/7nt99Rqx9XCgAA0EwG56IDsEBhAagBE3oESfExYdLis8hL/+2U13FbXrWz5rggvDYv81FPf+Sk/pha4nqi3OccANAeQq0eAAAAAAAACC7OWAAAAABQlWFwKQRai/3P/3xYWLiw5ohEIqH+/n7P4g4fPqyhoSFP+vP6tbmJ8zIfQYkLQk7c9gUAAAAApXxYWAAAAADgB7F4XE899VSrhwGoKxpv9RBgIZxIJCwbpFIp2bWpJJlMehLTijhyspyX+QhKXBBy4nUes9ksOSnjZj+ppa9wtHfFMtM0VcjlZJqmTLOmrqsKdXSoo5M6NVCr8ve/22NJJpOxPZZks1ml0+ll7YJwnGzXz2Cv49zmJBzt1Y6du7Rj565ly3/0wx/UvC2gEWYSkyuWOdm3m3l8bVRfQfib1+pYErY7Fbq7u9v16dJu4ir9IWxnnYuYeuJ27b7cs/68fm1u4rzMh9/jinf49vp94zbOy74ikQg5KeN2P3EaU/Gu9KapQqGgX/z85xodG1Eul625/1JXXfU6bd++07Zdb+yVwsNMZqGuPv3QT7OVvg47M5kF2/bluWiXPAVdpfeym2NCLBazjYtEIorH4yva+f046SYuKJ/BXsa5z8nLFZfe+NZdFZejeZ544pjjtrOzs+rp6am5j1OnTumCCy6oKcZtX27j8vH4ijin+3azjq+N6svruEb/7cpXTACwypimqWef/aX27/+l0ulUXdvatHGTtu/Y0aCRoVl6Y2EKCAAAoGkoLADAKpROp5VMnlMqVV9hwekZD0xqa1PPGQal62s58wEAAMAt/uIAADRdpYlx+bLySXClCXSliXKl7TnZvtN+nI6t2vgqtbd6HQCA2hnGNkmSaZ5o8UicC+KYgWoCU1gwC6ZkFtSge41JWrzhGACsVlu2bNW6deuXrlUcHR1RMplUPB7Xli1b1dHRoVQqpampSU1NTeriiy9Rd3ePCoW8UqmUfv3rXzVsLJUm2uWn71ebtNd7mn9xu7UUC5yOzcm2qm0TAPymOBGuxjRPWE6WS+PL1wdxkl1tzEF8LUC9AlNYKOQXlE7NanYmpUKhwg3JatDVFVVfX59CMQoLAFavgYEteu1rX6vNm7dIkg4c+KVOnTqp9es36OqrX6dIpEvj42N66aUXVSgU9Bu/cY02bx5QLpfTxMS4Dh8+7NlYrS4FKC0M2F0y4OTMgXo57aNSYaIRxQXOhvDG9NkprV23vtXDAALDqqgAe3v37nXcNpFIuLox3+HDhzU0NFRTjNu+vI5D8wWmsCBJz/36OX3/+/+smZlkXY9Ju/LKPfp3/+6PbNu1+q7Z3BUcQDPF4zFt2LBRW7dulSQNDx/X9PRZrVmzRgMDWxSNRmWaBY2MjKirq0sbNy62zWbnZZoFhcONK87W8u1/+eTb6fHL7XHObmxOixmtPOZyNkRjPfwPf6fnfvWsbnvvHRocrO0O6kA7qLUw4ORMhXZC4QSrUWAKC6YppVKzGhk5o+np6bq2dcEFr2rQqIKFPywBlBoZGdEzzzytl156SZJ0/PgxTU1N6ty5pAqFgsLhTp07l9CZM6c1PX1WzzzztF588UXl8wtKJs8pk5lr2djdTtL9cjPDZo6jWiGEz4DGePgf/k4/++lPJEn3f+VeiguAjVacqVBerLC7LKOWdsU2pcvLX2OlSyHasYAClPLHX1gOFQp5zc/PK5vNyqzjlIWFhZyjdq3+A4y7ggNopkKhoIWFhaUnO+TzCyoUCsrn88rlcjJNUwsLOeXzeRUKBeVyi23z+fz542gj73pjzeqsLKcT5tV4LHRyNhucKy0qSFImk6a4AFhwUlSoNFFvVJ+ly5xM8kvbOWlTz5iAdhO4vzbC4bDWrVuncLhToVBIuVxO6XRKoVBI0WhMnZ2dKhQKmp+f1/z8nCKRLsXjcUmLhYlkcsZxX/XcxdzuDuJWf+i1uqABYHXo7+/Tjh0XaWBgsyQtFRPWr1+vSy7Zra6uiMbHJ5TPF5RMntPOnRdp8+ZN5++xMKFnnnnG0/HWUzCtVpht1aSb43zwlBcViiguYDWqNlGuNnn3+tKASuMoFgSqjau8XaU2pe3sblRpN67SbQHtIHCFhd7eNbriiiu1ceMmRSIRTU1N6le/elbxeFwXXbRLGzZsVDab1YkTwzpxYlhbtw7qssteLUlKp1N6+umVfxS4HovNtbbly6sVHQCgFeLxbm3evFmDg4uXh508eVLnziXU19evwcFBdXVFZRghjY+Pqasrqs2bBzQ4OKhsNivDCKmjw7tjWaX7KvjlWFo6lkpnTxSX2bWzWu6WX3IUdNWKCkUUFwD/KJ+8lxcTam1nF2eHJ0RgtQjcXxzRaJd27RrS9u3bFY/HdfLkSZ0+fUp9ff3avftSbdu2Tel0RoZhaGZmRtu2bdfVV18t05TOnUucv5bYu9N3yzk9w6HR/ZT2hZX+1//8vrYOvkq7L72s1UMBPDM1NaWDBw9qfHxckjQ8PKyJiQlls1kdOHBAnZ2dmp4+q9OnT2tmZkYHDz6vsbFRLSwsKJE4q2x23tPxOnm6gpP2zZ5sN+LRk83ov9Y88ZmxyK6oUERxAauJk0ly6UTdzeUDfsHTLABnAldYyOVyGh0dkWEYika7NDY2ppmZGZmmdObMaRUKec3NzWtiYlyzszOanJzQ8ePHZJrS7OysZmdnlp7ZXq9qp9M6Pc2Wu4L7w/cf/Wf9j8f+WZ2dnbrlP/wpxQWsGmfPntWhQwfV3b14udjExIRmZ2c0M5NUNptVR0eH0um0pqenNTMzo0OHDioejyufLyiTSSubzXo21mpnKJQf06zaVSrsNmpy77RIbNeuWcdojv3uvfMP/0jv/EP7J0kBWMnpWQB+VGnsnH0AVBe2ew75mTNnXG04lUqpu7u75phduy+3bJPNZnXq1EmlUil1dnYqkUgomUwuXf5w7tw55XI5jYycUTKZ1NjYiF58cfGP5rm5jJLJcw0rLPgZdwV3plhUkBaLVg/+zdfrKi4U309evm/cxnnZlyQlk0nZHW8a2V8QcuJmP6mlry2v2mm5fvPmzbr00su0ceMmSdILLzynM2fOaO3adbriiivU2RnR5OSkjh07quPHj+mqq67Whg0btbCQ09TUlF5+2fkfVlaPYax3eT3xjR5Dsx592ah+3bZHc5QfE90eSyYnJ22Pr4t/E40taxeE46SbuCB8Bnsd5zYnQ0NdruJKFSfoQTxrwU/3RKjlbyi//l0SxDgnx9dG9RWEv3mt9pHw0NCQ7QactCmXSCTU399fc4wdwzAUiUQUjXaps7NLXV0ZdXR0KBwOKxLpUjQaU0dHhyKRiDo6OtTZGVE0GpNkyjRNdXQ07rnrQeGna5H9pLSoUFRvcaH0veLV+8ZtnJd9SdLzzz9PTiqoNSe19DU7l7dcv3btWl188SW68MLFP5RmZmaUzeY0MDCg17zmCkWjUZ0+fUpzcxlNTIzrkkt264ILXqVsNqvTp0+pszNS09gBLFf+/nd7LJmYmLA9lqxZs0abN29e1i4Ix0m3cX7/vGlFnJucSC+7iKnOT8UFuydFNHqs9W6vlt+fX/8uCWKck+Nro/oKwt+8UvV9JHCzzXi8W3v2XKUdO3YoHo/r5ZdfXrrZ2Otf/xtL91h49tkDyufzuuSS3bruur0yzcUEjo6OqFAotPploMUqFRWKGnHmAuB3oZChTCajsbFRGYYhafHSiFQqpXPnEjp16tT5p0KM6dy5c8pmsxodHZVpmsrlchofH5dpFiQZrX0hAADfs7rfgteXG5SPpdL6amOrxuo+DHb9Ae0icIWFhYXFP2jD4bCi0ZhGR0eUSqVkGIZGRkYkGZqbm9PU1KRmZ1OamjqrEydelmRqZmZGs7OzS4+fbDWvLkvgbIXlrIoKRRQX0O7i8W4dPPiCXn75xNKZXNlsVgsLeZ08eULPP/+cDMNQPp9XLreghYWcvve9f1JHR4dMc/HxvR0dHerq4qwFAIA9P93M0cmTIiq1qedJEpW2RaEB7SRwM865uTkdOXJYk5MT6uzs1Llz5zQ5OanZ2VmFQh0aHR1RLpfT2Niozp6dUigUUihkLMWePTvV0sJC+WUJ3BXcW9NnpyRJb73hdx21P3P6pC7aNaTOzs5mDgvw3L59v6XXvvYq5fP1vce3bdvRoBEBAPzO6dMgalnXqAJDM/p126aeZUBQBa6wUCgUlE6nFQ53KBzuVCqVUi6XUyhkKJ1OqaOjQwsLOWUyGS0s5DQ3l9HMzIwkU/Pz88pmc61+CSuKC17dA6HdigRurF23Xtff6KyoALQjI2SoIxzWjouGGncRQ4jLIQAAAFazwBUW+vr6deONb9POnTsVj3frxIlhPfbYo+rv79cb3nCNtm/foXQ6rf37f6lnn92vSy+9TPv2vUWmaSqRSOg733lICwvOigvNvIO4m0k+dwUHUD9DHZyBAwAICKeXC/DtP9BagSssFAoFzc1llEqlZZpaOjMhl1s8SyGVSimTSWt+fl4LCwuan88qlUrJNE2l02nHRYVmKr+3AvdAAAAAAFaiYAAEQ6BmtOFwpwqFvPbv/6WOHTuqcLhTMzNJTUxMaGZmRgsLCzp48AUtLCxofHxcU1NTevHFQ0qnU5Kk+fk5TU5OanBwsMWvZPXc0wAAAAAA0N4CVVjYsGGDdu0aUiqV0vT09NLyLVu2SFosHExMzEmSOjvD2rp1qyRpYmJ8WduLLtrl4aido6gAoJEKhYKS5xKtHgaACtb09UvqaPUwAABoiMAUFgwZuvTSy3TpZQ169J/RupuNUUAA4IWTJ47ryJEjikR7Wj0UACWyc7PatWuXXn3pxa0eCgAADRGYwkKos0OhcEhq2H3MzQZtBwD8qWCaWrd5uzYNXtTqoQAoMX76qAomf4fA/xKJNerv73cRl6g5zk1MPXGHDx/W0NCQZ/15mROgFQJTWDAMo8FnGfB4NAAAAAAA6hVq9QAAAAAAAEBwhRMJ6xt7pVIp2bWpJJlMuopZF+2tOQ7wi+J7xcv3jds4L/uSpGw2S07KuNlPau2r4Sd7Aahb8T1Z/v53eyzJZDK2x5JsNqt0Or2sXRCOk27igvAZ7HVcEHIShM/gevpr15wEYf+vJ87J8bVRfQVh37LaR8J21+10d3e7vrbHbdyz+3+uXC7rKhZohc7OiK587euW9vlWvG/cxHnZVyQSISdl3O4nTmNOnhmredsAvHHsyGFNjY8sW7Znzx5Xx4RYLGYbF4lEFI/HV7Tz+3HSTVxQPoO9jAtKToLwGey2P7dxQchJEPLoNs7J8bVRfXkd1+h9xJf3WBgbG9f23a9v9TAAx4YP/azVQwAAAACAlvBlYaGjo0M9a9a2ehiAYx0dPIscAAAAwOrEzRsBAAAAAIBrFBYAAAAAAIBrvrwUAgiiH/3wB4pFFmt1p06d0unTp7V3794WjwoAAAAAmsu3hQUejwYAjcHxFAAAAM3EpRAAAAAAAMA1356xAABoLcOQDJkKGZJMyZRkylChYDblNIiLt0YlSS+dmWv4tgEAANA8vi0scOYuALSOIVOGacowczLMvEyzoFAoLIXCktFxvsjgDAUD7xRzXa6Y+9L1lX4fpb+ratuqtm0AALB6+bawAABoDUOmIh2mjIWURs6c0rEjR5XPL2jDxo3aNXSxIrE+LRidWihQAg6yi7dGKQoAAICGoLAAAKtIZ8hUh2F9rkHIMDU1fkYHn39WP3vmaSUSCZlmQd3dPRocHNRvv/VGrd14gTrCUeVN+1v1MHn1TvmZCfXkvjyWM08AAEA14UQiYdkglUrJrk0lyWTSVcy6aK8kQwa3MUegLO6vs7OzkqS5uTnNzs7W/N5x875xG+dlX5KUzWY9O5a4jfM6J26Or7X2ZWj5pWWdoYLSMwklps8qn1+oGFMo5HXs6GE9/ZMf69Chg1q/fr0KBVPj4+M6efJlbdq0WVe9Pqq1GwdVcHA9xND5CenhkgnpkMVp9hz9G6daLg+fmdPQ1qgu3hpd9nuxi7NbB2eKOSx+ZhS5PZZkMhnbY0k2m1U6nV7WLgjHSTdxXv7tGpS4IOQkCJ/B9fTXrjkJwv5fT5yT42uj+grCvmW1j4T7+/stg7u7u2XXphq3cUGya0uXJOnIyHyLRwI/6OnpkSRFo1H19PS4eg94+X7zsq9IJOL5scTvOXF7fHUac/LM2Iplhmlq9PRJHTjwc2Uy6YpxudyCTp58WceOHVUkEtHll1+hQqGg4eFhnTp1Ur/4xc904bad2rD5AqlQ8/AtiwrAalL8zChas2aNq2NCLBazjYtEIorH4yva+f046SauFX+7+j3ObU7C0d6aYySd/6Kw+TH1xO3afbmn/bVrTrweY7PjeqIdy/7t5Phaid+PCW5jrI4lvrwUovwbttqY6jCkDsNUKGTKNKW8aShfMGTWsNWLzhcMjjosGDTrG5ziOMoVx1W6vtJYS19HtW1V2zac4xs8BMnp0yf15JM/tKzAFwoFRSIRDQ5eoLe+9QZ1dkb01FNP6uTJlzUxMaG5TNr2kgo75d+UU3DwVvGshaEqZy0AAAA45cvCghuGFp9+1hkqKDWT0LnEWaXTKXWGO7V+4yZFY2ukcET5Nr7Z2EVbuigKALC1du16XXjhNs3NzWvdunXK5XLK5xcUj8fV27tGhUJBk5OTmpyc0NjYmPbv/6VM09RLL70owzDU27tGka6Io8sgylW6LAIAAADBFojCgiEpZEimzOqPTjdNGeaCZhOTOvLSIR07dlRnz04pFotraGhIOy66WOs2Dsowoo4ekeaXCXr5mQn1jKs8thHbBBAsphHSBRdeqKuufp2mpqZ0+eVXaHZ2RplMRgMDW7R9x051dIR19MhL+vnPn9HIyIh+9rNnVCgUlEhMq7OzU69+9Wu0dt1GV4UF+AtnLQAAgEbwZ2HB0LICQtgoqDOUl8zF4kLFEMNUejapp578gf7X//pXjYycWVr3wx8+od/93f9N+95yvXrXblauELK9LGLnwOKk+9jo/Ipllft38sLqV62fY6Pz2jnQpYu2dC0bs12c3To4RA7hU4ax/Ga4edPQhk1bdOmlr9avf/Wsdu/erbNnz2p2dkbbt1+kyy5/rbq6Itq4abMkQ/v3/0LJ5DmZpqnu7m5t375DV1/9evWv36y8GarpRrulba3iuHlv41TLZaXl/H68Qw7RDsxCQYYhmQ0qMhsh+6cMAfAvfxYWyhiGNJee1a9/dUBzc3MqFPIr2hQKeZ1LJPTUU09qcnJCmzdv1oYNGzU2NqZz587p+eef0/oNG3XdvuuVU0eFXqxZFRUAIChyhZBCMhXujGhwcFC9vb0yTfP8DUd7VVBIc/mwtlywQzfc0Kdt27br8JGXtJDLaevgoK688rXasGmL8qGYcgX+CGwHR0bmtWtL19LNiAHAjmmayueyMgvVvvKrXSQWa9CWatMbe2U6NJOp/LQkAPYCUViQKaVTs3rmp08pkZhWLpdb2cQ0NT8/r7GxUXV39+iKK67U5ZdfoSNHjupHP3pCExPjGhsdUYdh1lVdLT8bwE8Fh+JZCzsHKp+1AACSZMrQ2nUb9DvX/1vFYnHl83kVCgWFOzsVCke0YBoqKKJI7wZdduXrdPGll0sy1RGOKBKNKWdEZZr1FRV2beniaToAEFBmwVQ2m9Njj/2zRs6cVja78m/zWvze792knRfvbtDo2ltpIcTOTGbBtn15MYVCC9wKRmFBi2ckzM4mdfr0KS0sLKijo0O5XE7hcFiRSEShUEi53IIKhYI6OjoUj3erv3+t1qzpPd92QbncwvlT1k3Vcu56pcsiACCo8qYhdcQV7Y3JlBQKSyFJMrRYVDAXr0crqFOReL+64pLOfyeVN4267q1Q/HZcEt+QN0F5Tp0+Ern09wIATpgFUy+9+KIOH35RmUymrm3t3buvQaNCrXpjYQoIaAjfFhZKLz80QlIsFtcVV+xRJjMnwzDU3d2tqakp9fX1acOGjYrGYppJJnXgwH4lk4uXPszMzOjEiWHNzMxo8+YBrV23bukeDU4vb1w2Dh/cp6BaP8Xlx8fmtWPz4lkLx8fmbePs1gFoP3nTUD4vrSiwmuX/bWihUFzQuANFpUksE1sACBpT8/NzSqVSdRcW8vmVlzmjsnrOMChdX8uZD4ATgdijTFPq7u3Xb//ODZqamlI0GtWmTZt08OAL2rZtu3Zf+moNDGzVTDKhaDSq/ft/oeHh4zp16qQWFhbPYrjkkkt0+RVXaqHQ0bBrwQAgCFpdO6z05Bmny1Abuxxara8nFsDqFQqFFA6/MqUoFExJ5rKbB5umufTT0fHKvc5M03RcVLCaQFdaV23i7OTb+Wp9OV1e3ne1MVUaS6Vxc0YBgiAQhYWCDOWNsOLx7sWzE6JdWrdunTZt2qz16zeot2+dot196ojEtG/fb2vDho06fvyoEolzisWiuuiii3T5FXu0YdOgcmaHDMNo2B1s/ah41sKOzXz7BwAAgOYZGrpYW7Zs1Zo1ayRJhw8f1uzsjPr7+7Vjx05J0tmzZzUyckaJREJXXXW1YrGYFhYWNDk5oSeffNJRP6UT9tLT92spKpTHNkOlvquNp9rrsGoH+JVvCwulp+ebWrymN28aGrr4EoXDi/dQCHdG1NfXp1i8WwUjJIWjumD7LkXj3dq+4yIlk0lFo1264FXb1Ldugzq7erRgGiu273QcOzZ3aXi88jc2frkUotY4J7EAAABAJVu2bNVrX3uVNm8ekLR4WcPExLi2bh3UNde8UZL08ssnFA6H1dHRode97jfU19en+fk5HTt2VD/5yVMNHY/TswX8rNLZEI0oLrTz2RDP/fpZXbRrSLFYvNVDWbWC8w4zDJmGoV2XvGbpvN5NWy+UJBVMY+mGYqGOmDZu3a6BwQvPNzOUN6W8QktFhVoNj89r+6bFb/+L/98r5f0V/12twFFUOmYAAACgGUyzoHw+r4WFxQnq4pOGTBUKhWXLTLNw/tKHBS0sLP40+94KpZPmamc8NLNPJ5dOWLXzQjucDfGzn/5ED//D32lw8ALd9t47KC60SDiRSFg2SKVSsmtTSTKZdBWzLtorSTLKrgo2TWk+3ymZ5tL1WkvrtHiNlmEYMiXlzQ7lzY7FoJK2bsoKxXGcGM9q26bIsnWly8rH22zl/dn1b7Xe67G3s9nZWUnS3NycZmdna37vuHnfuI3zsi9Jymaznh1L3MZ5nRM3x1e3fQHwn+JnRpHb93cmk7E9lmSzWaXT6WXtgnCcdBPn5d+uQYlzm5Pw+b/LrYyMjMgwDPX2Ll4KceLEsGZnZzU/Pyfz/LXH09OvXArxy1/+4vylEDlNTk7WVFywenxi0CfHRc08s6JacSPIxYViUUGSTp8+pfu/cm9dxYXy94mT42u5IBwTmvG3a7i/v98yuLu7W3ZtqnEbZ+l88WDl4gqT4zrO8T8xnnW9rJHstm+1vp5YuNPT0yNJikaj6unpcfUe8PL95mVfkUjE82OJ33Pi9vjqNObkmbGatw3AO8XPjKI1a9a4OibEYjHbuEgkong8vqKd34+TbuJa8ber3+Pc5mR2zr9PawjSpQ1+ZFWkCYrSokJRvcWFLxyM4QAAIABJREFU8veJk+Ork+34Ma7Rf7v6d2/iS3QAaKjv/v1XWj0EYNX5P/7de1s9BKCptm7dqj17lt9jYXJyQlu3DuoNb7hWknTy5AmFw53q6Ajr9a//Da1ZU7zHwjE9/fRPWjl83wnqmQNeq1RUKGrEmQuonW8LC9QVAKB+hvHKyVtv/7+Y4AB+wE2T0U5Ms/g4ycL5f5slP4vLCoVXlhcKi8sX/3/tj2mzepxj+XqnT12w4sW3+k7u/9DoyxWCfLaCVVGhiOKC94K7RwEAarKlr9DqIQCrzsi5UKuHADTVxMS4Dh58QadPn5YknTp1UjMzM8rlFtTZuXgvsqmpSY2MjCiRSOi5536lWCyuXC6niYkxFQrN/WwK4pMQmjXpr/X+FH68n8Xp06f085/9VLuGLnbU/n88+i/6vbf/QZNHBYnCAgCsGkxwAACNNj4+pmQyqa6uxaeRTU1NKZudVzJ5TjMzizeIy2QympmZ0dxcRs8992uFw2EVCgWlUqmmFBbqvcljtbMivLixoteTeb8XWcoNDl6g2/7THa0eBirwZWHBEJdCIFjYXwEAwGr06ldfrj179mjTps2SpCef/JEmJye0ZctWveEN10iSTp48qYMHX9CZM6f19rf/gdasWaP5+XkdO3ZM3/rW39bcp9PiQD3bqrS8lrZultutc9O+0dsDqvFlYUESMzUAAADA56LRqPr6+rVu3XpJUjweV1fX4tOxisvOnTunWCy29ISo/v61mpubU2/vhPijH2gP/i0slPjOg19u9RCAJe+45X2tHgIAAECLGQqHOzU1NamDB1/QyMiIJOnMmTNKJs8pFDL0y1/+QtLifRjGx8c0Ozur5577teLxbuVyWY2OjqizM6xQiEv1gKDzbWGhtHZ5++23t2wcQLmpVKtHAABoBw8++KBuuOEGDQwMtHooQM0Mw9CGDRs0PHxcZ86cXrF+evqsjhw5vGL544//67J/DwwMKBqNNm2cALzh28JCqalUR6uHAACBxaPtAH/atWuX7rzzTu3Zs0c333xzq4cD1KSzM6zf//3/U7lc1tVjI0v19fU3aFQAWiUQhQUAAFC/T31k5RmAH/nUV1esL11WKd7N+kp9W21rNXjzm9+sN7/5zXrsscd055136r//9/+uT33qU9q+fXvN25qbm9PTTz8tSdqzZ4/6+5mooXlCHYYUiWjdxo2tHgoAn/DtBU0GP/wE6MfO6Oio5ubmHLQEgOaoNrGvtrxR229WXDu54YYb9NBDD+lNb3qT9u3bp1tvvVXDw8OO4//+7/9eW7Zs0d133627775bO3bs0Ic//GE+d9BEhkIdHQp1hBv2AyDY/PsudjJbAwLiwx/+sK677jrdcsstrR4KgFXIzZkEbrbvRKUzJLDoD//wD/We97xHDz74oPbt26e9e/fqYx/7mOUZDLfddpsikYhGRkaWXaf+2c9+Vu9617v00EMPcf06AKDpwolEwrJBKpWSXZtKksmkq5h10d6a4wC/mJ2dlbR4Surs7OzSeyebzSqdTtu+l9y8b9zGedmXtJgDr44lbuO8zomb46vbvvyg2uS2dHml/y4qxtktt2tXaZ3VtmodR7U+WnXKv93lC9Xy53Q7VrlyOobVqviZUVR8f99000266aab9A//8A+67rrr9OY3v1kf+tCHdOGFFy5r/y//8i8aGRnRI488smLb/+W//Bd97GMf0913360PfehDFT+HgnCcdBPn5d+uQYlzm5Mwf5djlSl/n2QyGc/+VgvC37xWx5Kw3TV43d3drq/Tq+f6PoNTFhBAPT09khaf6dzT07P0HohEIorH447eE/39/frsZz+rr3/96xoeHlY0GtVNN92ke+65x/LO4W7eb16+t4vPrvaqP7dxXvbl9vjqNObkmbGat+01u8lqtfZOttkIbsdRaf2nPnK75xNrJvT+VvzMKFqzZs2y9/d73vOepTMYfu/3fm/FGQzf+MY39LGPfazq9u+8807t2LFDn/nMZ6p+Dvn9OOkmrhV/u/o9zm1OZufySs3OaHzc/58nQD2i0Zi2bB1c8T6JxWJteZx0G2N1LPHvpRDAKjQ/P68bb7xRe/bs0eOPP67t27drbm5OjzzyiPbt26eHHnpIe/bsafUwESBO7wPipUrjKV/2FyUT4U+enxx/6iO3V1xeaXt27f6ibKJdbVtuxlH8t9OxeqGWfu2KJqXbqvRarfpzErsaFPPwiU98QmfPnl1a3tPTo3C48p9m27dv15NPPqkdO3Zo9+7dGhgY0E9/+lPLz4T+/n51dXXp2muv1fDwsK6//vpGvgysEieGjysxM6dYd1+rhwI0zchzT2vL//77rR5GoPmzsGCIx6NV8dEP3rb035/4/P2WbSqtd7KuXLV+rOJKY6z6rHe92zE3XIP213vvvVdveMMb9PGPf3xpWTQa1Tvf+U7t3btX+/bt009+8hPu9g3nfFxZ+ORd5yeWn/5qxX+Xq7Zchn1sab9FxZhat1XXODz8XTjKSVlbO6Xbstx+yess3fYny4oWTsbWls7n5+abb15WWNi1a9eKsxikxUsm/vEf/1GHDh3SzTffrD/4gz9QT0+PbrvtNg0PD1sWFxKJhO6++25FIhHt3bu34S8Fq8OadQNau2Frq4cBNM3I8HOtHkLg+bOwEAB2k+l627vlZhLuZJt2k/5aYmrt222c58WFOiUSCT3wwAOanp6uuH5gYEDveMc7dO+99y4rPABBVMukt1l9B72PZqj2+2j061m1BYUyF1544bL7JpQ/JjKRSOjee+/Vt771Ld188806ePDgsvU33HCDnnjiiaqFhSeeeELXXnut3vrWtzbvRWBVMMSXfgCsUVhwodbJdLMn307UMkGvdLaB1TYbWcRwuw2nY262Bx98UJI0MzOj3t5ePfHEE5KkAwcOaHp62vLxYUeOHLG9zGHPnj0Viwpzc3M13/XbTUw9cYcOHdKBAwc86y8IOTl79qzWrVtn2+6OO+7gLJUGqVbQCGohoFWWnYVQw9kOxbafvOt2igsWygsK+/fvr3gM+NjHPqZ9+/bphhtu0O7du5etGx0d1Z133qmHHnrIq2EDAFYxXxYW/FwV/Ys/X5y0fvKv7q+4/KMfvG3Zumrti+vqeZ3lsXZj++Rf3b/0305ja+2rqLjcrp2XY24mn+6uaAPf+973tH379rZ6VGmlyb3dhN9qudXZD07a1drGzTj8zG7c1S5ZcbPt0jxhpXPnzjkqKBT19/frm9/8pt7+9rfr+uuv1/XXX69oNKonnnhC3/ve93TPPfesKDgAANAMviws+JXVRLZ0AuykvdXyRo+t0bzsK2iKk79Tp07pggsuWLqe9cSJE7ruuussJ4eJREK7d++2/Pb7wIEDuummm1actZBIJGr+RttNTD1xjzzyiG666SbP+gtCTg4fPqyhoSHLNidOnKh5u+X8+JSdj376axWXVxurk+VWr9NJu1rbVFv+ybtuX/H6PnHXe6q+5mZzOh67/aR8faXX84m73lOxbaVtVxrXalW8h8Ljjz+uW2+91bagUGrPnj362te+pgMHDui+++7T3NycrrvuOj366KOWTxICACz3ox/+QLFIaNmySCTSotEED4UFh4I6ma5n3I18zeVFl2b1G9Tfk7T4zdOtt96qz372sxUvdxgeHtZ3vvMd7d+/vwWjA9pHcfLbaB/99NeWtt2sPtxq1HiK26mnIFCap9WuWFD4/ve/r+uvv14//OEPtW3btpq3E4lEdMcdd+iOO+5owiiBxbNA/Xo2MQB/CNk3gRNWE+daJtX19G11OYGT+OJ/F3/q2Wb5dq04vXTE7ZiD5I477tCzzz6rW2+9del+BKOjo3r44Yd144036qGHHnJ1LT/gJ5W+PXe73GqiazcJLl1uta1allfq66Of/lpLvpm3et3FdXY5cppru1i7NqvVRz/6UUnSN77xDd1yyy3q6+NxfgCAYPLtGQt+qop+5AOLE9ZPfcF+wlra5lNfuH8ptnQi7GQ7ThiGs7FVyqVdfu3GWMvvp9q2imN3Or56xxwEXV1d+u53v6sHH3xwqbgwMDCgvXv36vHHH+e0VgSakwl+rcutJq3l66pN+ps5vlazG0st6528Lre/m9XqnnvuafUQAABoCN8WFtpF6WS3OJGud3tOtlPaxmm/pdv+yAdu83yiHsQxN8stt9zSVjfrQ4v5qFALAAgmPkoAWOFSiAao5YwGL/qtpYBRvo1GvQa7nJSv98OYgXZk8MMPP778AQCgnfj2jAU/fujajcnpmBv52j5tMamutO6u4uUHDsb0kQ/cVnX7ldbdVWFZrTlr5phb6TOf+YyrpwYAAAC0mmEYMvx0nTIA3wk/9dRTlg0mJyc1MTFR84YzmYxisVjNMW940+Lj+fxYWbjrA7fp0198ZdJ61/tf+Za9fHnpv8vbNuq1lfdR2k+ldctYzNI//cX7XxmvxVjvqnSWgZPZf9l6L8fcbM8//7ykxWeRnzt3ruZH1Lh537iN87IvSZqYmJDd8aaR/QUhJ06Or+Pj4zpy5MhS7mrpq7d/fc1jAuCd4mdGUT6fd3UscftY2iAcJ93Eefm3a1Di3ObkiqveUHNMEOza0iVJOjIy70kcgqP8uLxu3bqatxGEY0Iz/nYNv/GNb7QMdvKc9UrcPkO+yI/PXZfKCgTnfeaLDzhqV62tW+U5+vD73/3/s3fn8W2Vd774P8+RLEte5SVeEoc4KwkhxCUsCbQXp720oeU3k/6Ye4GZFyS0hQQoJGkLgZlhQub+pk3aQsLaQKdDkt55AXPvFOYyvEq5bRO6EDrTJSFkdRw78YLtLJZtWZZlW+f3hyMjH5/d0tHiz5uXiHWe9Ty2js7z1XOOTLchIEzl/+tv3j8u/TtP7RorFy8+j1G98elO9NlJixcvBgC0traipqYGRq8vJTuvG7vlnGwLGJ0gWx2PybSXCWNi5vhaUVGBefPmjY2dlbYOHz1huU9E5JzYe0ZMXV2d7dVtTh1fnT5O2inn5LlrppSzOybB8IjlMkpCyJAAuCQZgEA0KiMKCVF50lUnTLYHDGL7pxTb3/h0tTGIHx+turTqzjTK47LH40nr83m75ZJx7pq2l0KkEzOTaTN1JLI/dttQBgmstmGmHSvpTvWZiIiIiOyxc28QgdGggogOYTAcxEB/EEIIeHJ98OUVQHLlIioLpDK+YHWhrdV86U5tP+ZV56JRIyhgZb+zZYzIvPQNLKTZX+N3nrYQRLCQl4iIiIgok8RutyDL2mEBIQTccgTh0AWcOX0aJ04chyRJqKmpwfz5C+Evq0IEbozIqb+XvNZEOlvE9m/updUGk9lfZdlE1EnZIW0DC2kWVyAiyki8Az1R+uFrkjKaLCPHJcMlZOjEFeASMhpPncR//O63+N0HH2BwMAxAwOfzYtasWtx++1+huKwarhyfYXBBa/Kqtn2uylJ9o0mv2XqyXePHg5hbnYu5OqsWiLSkbWCBiIiIiIhST4hPVikISSBHiqKzvQVd5zoxPDysWiY6MoyjRz7CwYN/xIUL53HZZbMQDg+gr68Pp0414MCB3+DGz3wWJRUzEI2a68fc6lyc7hid8M6p+mTiH+tb/Datcsr9UnuuVY9WuUyj1f/47Wp59PY708eEJo+BBSKiKUgAkBH75FSO+z/PDIiISJssA5CjaG5uxME//QEDAyHVfMPDw2hvb8fFixdQWlqGG264EX19fTh27BjOnm3G4cOHUPepZSirmGHY5umOQc3JvlqgIT6IENs+p0o9uGDUbjyjgEM2iI21nfGiqS1tAws8tSUiSpbREIILI3BJo9+4IkPGiCwQhUt3aWs62fr4AwCALd95McU9SV+xMVKKjVl8uto4xo+xVl1adRNRduvq6sSRIx+hu/siXC43ZHl02YEkSZAkF2RZxvDwEDweDyoqKvCpTy1DMNiHYDCIpqZGBAKBS6sdEvumo5wM6wUl1MTyclJNZE3aBhaIiCgBFDdZEJDhFlEMDgTR/nEbOjo+Rk5ODsrKy1FRUYVcXz6E5IJWeFfG6KdVUUiQ0yUEnCbdyChqY6Y3jrwVeGJxjCgLVFdPx+zZsxGNRlFZWYn+/iBkGSgsLERJSQkikSG0tJxFV1cnzp49g9/85lfo6Qng1KlTcLncKCkphdvt5hr6NMRVC2RHegYWeLcxyjT8e6WMIMOFEZzraENjwwm0tJyBLEchhISm06eQn5+PpUuvRk6uB+FwBENDQ/D7/bh48QJ8Ph/c7hxcuHABMy+bhdy8QgjJk9KvCduyjZ+MG4mN0dbHHhj3XM3Wxx7QTVemmamTiLLH2D0WAMgQuPzyRQiF+jEwMIBrr70ObW2tiEajmDlzFi5feAVkWcahQ3/EBwfeR0vLWRw48FsMDQ0hFBpAYWEBbrzxM/CXlkOGMBVbaOocxOzK3HGrD5o6je+boJem9zyb7ydg5h4LatuyeUxo8tIzsEBERAnnEjIG+/vQcPIo/vM//gOAjBkzZkAICV1dXejs7MTQ0BDy8vLR0xNAX18famtno7GxAX5/CbxeHxobT+HGG29E7dyFKPKXA5Lb1sqF2KQ0Rm1yqswTny9+Uqv2s1Z+q+1p5c0kWgEAvXHTK2eURkTZTQYwLEso8pdhxoyZqKqqwsyZl0GW5bHAwmW1cwEhQXK54Xbn4KPDh3DhwgV4vV7U1MzEnDnzcOWSpfDm+xGVOSNNR7FAzuzK7L+vBCVGWgYWuGCBMg3/XikTuMUIPjpxFI2nTqGoqBBf+MItaG1tQU3NZSgqKsKJE8fxP//nHni9PgwODuLChfMoKChEMNiHnJwcuFwuhEIhnD7diNtu+wtce/2NcHsLMQKX6T5oTd7jPy3XyjOZuu2UIyIidcOyBCkqo7CwCHPnLUCx34/q4RHIsoxifwlGICEqu1A5fRYKCgpRXT0DLWfPwuWSUFVdhdlz5sNfNg3DyMFINLFnUbMrc8etZLA7MVbWQ0T60jKwQEREiTN2yibLaGk5C48nF1VVVfjVr97D0aNHcM0112L58huwYMEC3HzzF9Db24vBwUEMDQ3B5XJhZGQEQggIITAyMgJZjuLQoUMYGhrG526+BVHZXGDhyUsT+CcVn3LHtitPLdXyKfPEP4/PH6tz62MPqG4XiudW+pWptPZDGORJ1K0XiChzxX/d5CcbZVRWz0D1jOkAgJrLagEAsiwwFBWjKxFcHhSUVGJp6TRcfc31EEIgCmA4KjAku0a/ncjCgaS5axC1FbljP2ulqQUTlPlj+6V8blSPWrl0F9ufmNh+KcdEuV/xY6GWrleWph4GFoiIpghJAMG+XgghUF4+DZLkQnl5J4qLi5Gfn4/8/HzMnj0H586dw+Cg+qc0sixjYCCEY8eOoqurE8LkXRa0ggpW8sW2xecxqlevPd22TPY33RkFc8bGNG4s9coZpRHR1DECF6IyIA8rEuImmLIMRIWEqCxhBDIgj34LkYxEfxfEKOVEOH77ZOvRqpuIRrkDgYBuhv7+fhjlUdPb22urTKm3EACjXpSZgsEgACAcDiMYDFp+7dh53dgt52RbABCJRBw7ltgt5/SYmDm+RiIRhEKhsXx224rx5OYiPBCCLMtYurQOZWVlmD59OgoKCtDf34/29nYMDg6OrVCYaPR0cNq0aSgvrwCElJSzQ72VBETZIvaeEWP39T0wMODouZodTpZz8tw1U8rZHRN37Lwco19NHE+WNULLcRvj30c+uZeCiPu/dWe6IpNKV8ujVsbstkwwmTFLxHhnEuVx2efzpfX5vN1yyTh3dfv9ft3C+fn5MMqjxW45okxVUFAAAPB6vSgoKLD1GnDy9eZkWx6Px/FjSbqPiZnjq8fjQV5e3rh8Zttqae8c9zwqS5g+fQZONZxEa2sL6uo+hWnTpkGWZfT396Op6TR++tO3UVlZiWnTKuBya1/icM0112HegoUYTvC1scpPzoHRIAODC87gWDsr9p4RU1RUZOtY4vP5svY4aadcKs5d072c3TEJhkcslyHKZMrjst3z13Q/Jtgto3cs4aUQRERTxAgEliypQ/fFi/jTn/6ASCSCuXPnIRIZRFNTExobT6Gurg7XXbcC02fMgAxJsy6vzweX22vqxo1Wl9Wr3RNBLb/ZZf5Wyhr1N5NYHR8z6dkyNkRkEe+sTkQGtM8aiYgoq4zIEnwFxViy9FO44YZPY3h4GEePHkFDw0mMjIzgyiuX4NOfvgkza+chv7gCBcXlmg+XpwCy5LH0VZN6QQK1dCekok0iokwk+OAjix80eWm7YoH3WCAimrzxb5gCsnCjesYsFBUVo/HUSXRfvAghBIqKi1FdPR1V02cCLs+la2GND8RmDtVbt72ILbEggmIiv1Xj03S9PMp2tfpgdrtWcCFT34a2aARwlONotH966Zk6NumC40dERNmGKxaIiLKZIiQvCwlweVBYMg1XX7sCn/v8LfjszbfgmutuRFXNbMiu3NGgghBJ/yhg6/YXLeWJTZi3bn9x3M/xdZjdvnX7xGBF/LYJfcuQhzKooNwfrfFRjolaul5ZPmw8iIiIskjarlggIqLkkCEwIgtEhXTpS79GCXHpDt9JmPSoTeSt5pkw8bVQh1EgIVtYGUOr6dk4XkRkDuNhRGQkbQMLvBSCiCi5ZEUUIRnfKZ5JtmyO+0SeiIhUvb7n2VR3gWhSbl/zcKq7kJXSNrBARESUDLEAghoGFYiINFyKQz/44IOp7QfRJJzvN/42K7InbQMLgguuiIgSQPB4atLfb/9BqrtAUwZfk5S5ODEjIjVpG1ggIiJKBgYQiIis4T0WiMhI+gYWePQiIiIiIiIiSntpGVhgVJQyDf9eiYiIiIhoqnIHAgHdDP39/TDKo6a3t9dWmVJvoeVyROkiGAwCAMLhMILBoOXXjp3Xjd1yTrYFAJFIxLFjid1yTo+JmeNrJBJBKBQay2erLUa+iNJS7D0jxu6xZGBgwNFzNTucLOfkuWumlLM7Ju6483K+ldBUoDwu+3y+tD6ft1suGeeubr/fr1s4Pz8fRnm02C1HlKkKCgoAAF6vFwUFBbZeA06+3pxsy+PxOH4sSfcxMXN89Xg8yMvLG5fPbFst7Z1cAUaUhmKvydh7RkxRUZGtY4nP58va46Sdcqk4d033cnbHJBgeGf2BbyY0RSiPy3bPX9P9mGC3jN6xJC0vhQB47CIiIiIiSrZ33nkH9fX18Hq9mnnEFPiGob/bfD8A3uCXyK60DSwQEVFyCAAyohCyDHHpPFEIAVkWkIWALDvTjycevX/c8//x3R+Mbfsf3+WJHRGRE+6//37s27cPtbW1qe5Kykz1oEJs/+PFj4XR+EwmXa1tvboofaVvYCG7g6JERCkhIENAxsjQIHp7uhHs64Xb7UJ+fgHyCwrh9uQCkDQ/mZJlAGK0lslgUMEZynGOiY1xfLrauMf/TrTq0qqbiJx1/PhxeL3e5AQIpsqlEFNhHxX+TuPY/neb78ffK4/nRuOjkj6ufgvjq9o+pbW0DSxMwdc1EVHSCcgYDPXh4vlONDaeREdHBzyeHJSXT8P06dNRPX0GXG4PhkdkRKNReDweRCIRuFwuCCEwGB5EXkEBhMsDIblsrW5gAIGIKHG2bduGrVu3ora2FuFwGIFAADt27MDatWsT1gbjCtlJ7/34iUfvnzAeVuMKyoC0Xvn4PsTKTbXfR6ZL28CCzyOlugtERFlFIApJHsaJY4fx61+/h66uTsybNx+9vT04fPgwenp68Bd/8d/hy8tDIBBAKBTC3LlzcOLECZSWlsHn8+HkiRO46aZ6lFdUQ/LkQQaP1elMuTJBL5jzxKP366Yr0xggIkq9L3/5y1i4cCG6u7vH7pEQCASwadMm/O53v8MPfpB9r0+tY4/R9hi9cso69MqaXRGmtuLLTP1m0ifD6Bhu9v3DzO9Da6z4PpJd0jawEHXoGl8iomwmBMbuo+BCFKdPncTp06fgdrvw+c+vwuBgGKWlpRBCQlPTaezb9wv4fD6EQiF0d3fjw0PlOHfuHHw+H3JycnDhwnl0dXVg5cqbsWDRYni8+YiaDC787SPjTyyeePR+/H/f+8G4NOVzJa38yja0tivrUZbRKp/JzIxV7GchjMsZpZExwY/hKAF27dqFqqoqfOc73xm33e/345VXXsGdd96J1157DXfccUeKeugctQmq3mTWaCJr9tIvK32z2oZaupm+W+kTJ/SUSGkcWGBkgYgooeQRNDU1IhQKoaKiEpFIBKdOncLixVdi0aJFKCsrQ1dXFyKRCDweDwoKCiDLMgoLCy9dCiGhpKQU/f39+PDDP0FIAkuu+hSiwpPqPQOgPtnVClD87SP3GwYfiIjS2TPPPIM33nhDM33z5s245557EhJYiA9Spwu1/sS2GQVU9crGqL2XxOcxW7daPfGBdbWyeu9nifw9WKnLKBBiJjCt1Z7ZoDalt/QMLAg4dldyooRIszdbIjVCBro6O+F2u1FdXY3GxtNoajqN8vJyXH75QkyfPgPXXXc9zp07h8HBsGodsiwjHB7AqVOn4Ha7sWTJUtN//1ZWBCRi0m929YJWm0RERjZt2oTf//73cLutn1IPDw/bLgcALS0tWLhwoWa+hQsX4siRI1i5ciUGBgbg8/lU83V0dODOO+9U/brJt376c8v9c5rWijczx/TJrljTC17r1aXXRrIn1nbGx4jWKkCzdeutKqTMkZ6BBQDRaKp7QESUeTo6OrB9+3bs378fe//5tXFpQpIxPDwESZLg95fgxhs/jfLyMsybNx8VFdMwMhJFYWEhIpEIBgfVv89clmV4PB4IITA8PAxh4eOOyV6+YKVuqyc22XoSY3bM40+q9coZpRFNNTt37sRbb72FgoICy2WDweCkyq1atQrhcFg1IAAA4XAYPp8PW7ZsQWtrK2pqalTz3XnnndiwYQOqqqos9yXVUnU8cmKFWzqFeMiHAAAgAElEQVStotMa30T3ke8rmS1NAwtC91KIoaEh5OTkJK31e79yl+r2H/7Tj5PWppFYn5LVh8nUn+y+ZQYuWaDUigUU3nzzTWzYsAEHDhxAw+kz4/LIkFA9fQbaWlvQ1taK+vrPory8HF6vF8PDw2hra8frr7+G/Px8FBcXw+VSv3dCNBrFtddehwWXLzR9fwUrrJ6ocKJLRKn06U9/Gn6/33K5QCAwqXIrV67E/v37sWrVKtV877zzDr74xS+ivr4eDQ0NmD9/vmo+r9eL5cuXq35NZTA8Yrl/2S4RwfBspbcKQUt8YFvtMkXKHGkaWNC/FOKPf/g9AOC661cktM37vvpJQOHlH/14Qtq9X7lrwnanJfsSkcnUz8tXiKzp7e3Fk08+iffeew8AUFdXh82bN1v61EgZUDh27Jjmp1dRuLBgwUL09gRw4sRxFBYWorKyCsPDw/j4449x+nQj8vPzsOiKxaiung5J0g6YVVRUwV82DVG4rO20AZ6wpRZP6ogyx44dO3DnnXdi+fLlEwIUgUAAW7duxb59+xLWXrrdYyH2vvAP3//kmPU335q4TSst/rnZclr5rOaxWjYZjH6fRn3RGk8zbSrLxu97uv2dkXlpG1jQ+1YIWQZef3UvZBm4NsHBBQDY9Y8/1mw/1d9Wkaz2d/3jjyddf6rHhiiTHDx4EHfeeSf+8i//Elu2bBnbtnLlSuzYsUPzE6gYKwGFGBkSZtTMwoUL59HT04Pjx4+hs7MTw8PD6O7uxsBACNdfvwILr1iC0rIyQGgHDWRZAEJC1ORqHSvfTGD2UgmtNLP5s32lg53xNErP9jEjyiQLFy7E5s2bsWLFCqxbtw51dXUAgA8++AB79uzBjh07MvLyBiv0Jr1mAw7pSNl/rW3p2IZecMZuvygzuAOBgG6G/v5+GOVR09vba6tMqbcQgP63QsgYTXv91b2QIeOa6yYfXHjg3rsBAC/+cK9q2y/+cO+EfsXKqOVT1qnMG5/PqK74tPVfu2tculYbav0w076yTaO+6/XNbNvZJBgMAhi9rjEYDFp+7dh53dgt52RbABCJRBw7ltgt51RbPT09uOOOO/Duu++OW3paX1+PtWvXYtWqVcjPz8eSJUsQiUQQCoXGxq6xsRE/+tGP8Pbbb2P9+vX44IMPkJubi3A4jHBY/YaLn0T/BaScHCxZejWmT5+O3//n79DW3gZJklBZWYl58+dj/oKFcOXkQZZckPWCBmLcP6aZuSO0mTzxtE5A/vYRcyeW2f7piNXxNJOe7WPmlNh7RozdY9DAwICj52p2OFnOyXPXVJdbtWoVrr76auzcuRM/+clPAADXXHMN/u3f/g0VFRVj46A3JtFoFL29varp7kvn5Zki/pNv5WQ20ZPyZNDrfzIkqo1EBG7i9z2VlMdln8+X1ufzdsvZbUvvWOI2urYrPz/f1vVfAGyXA/Rv3hj/yfi/vDq6uuCaaxOzcsHsTSO/vm50wvz8S3vHbXvg3rvHbQMwYZsyn1pd8eWef2mvap74vion8LE0K/1U1mmm73p9M9qvbBS7CZPX60VBQYGt14CTrzcn2/J4PI4fS9J1TB5//HFs3LhR9XpWv9+PnTt3YtOmTThw4AA8Hg/y8vIQDoexfft2/OQnP8GmTZvw9NNPG65QaGnvnLBNFi5IOV6UVc7AZ29eheFIBBACLlcOcjweSDleQJL0gwpJNtkTC6dOLNOVcp8z7ZO6qUR5476ioiJbxyCfz5d1x8nJlHP63NXu781ue8pyfr8fL774om5+vTGRJElzH2L3WBBIv7tJfdvCMU2Z968vHRe//f0fjPtZSS9NrbxWfivb4+vR6v9kqNWvbMNov82On5IwUTcw+r6VyH22Qnlctnv+mu7HSbtl9I4laXkphABgZVX9/35tdBn/sgQEF8y0+9ClCfNzL+0dl/+5l/bioXV34+vr7sZzcRNns/mUbSvL6fXvOcVEXVZsN9O+mT5YKWu2zmyQbm+2lN7279+PDRs2aKYvX74cBw8eRDgcRiQSwYsvvojHH38ct912G3bs2IHS0lJ88MEHum34/X64PGpfLSYghIArxwOXyw3kXdoqpNGgrRAJf31avd40xsz1plYmy5m8LNYsraCM2jXFanmsXJ9MRNnB7/cbBqrTKbLw7af0j0FG6co8evmVaWp5zdSVqO2JMtkxNDt+VvMne78pudIysAAY32NB6e1/+1csXLwUPl9e0tq1kjc+zWy+WMDimV3an+bbvffDhvUTL0lQK2f03E5eM/tFNJV0dHQYXvfq9/sRCARQXV2N1157DbW1tTh8+DAOHTpk6nvP/X4//v4ftqmmyQAgi3H3UJCBpJ00mg0KaE12rdSZqPRMlcxxydYxI5rqDhw4YBxYICIykL6BBZ0ZrTLJ58vDPes2IDfXp1tusu1ayRufZpRvx4t7sOmBNWPbYkGAHS/uMd2m1vZYvcq6YtuV5YyeW8lrZb+IppK6ujocPHgQ9fX1qumBQADhcBhVVVX4/ve/j29961tjN2q87777sGnTJlMngYePnkh014mIKMuYeT8Rl/4jItKS+C8gTxBZ1n7Er9P1+fKw9r4NqKqu0S1j9DDTrpm88Wlm88ky8PQLe/D0CxMn/0Zt6rURm9Q//cIew3JGz62UjX8Y7Ve2PIis2Lx5M7Zv366Zvn37dmzevHnseVVVFXbs2IEDBw6gpaUFixYtws6dOzVv1khERJRQgg8+svxBk5a2gYWorP8AAK8vD2vu3YDK6hrD/EaP7z8/Ovn9xoNrVNO/8eCasTS9Psanmc2n7EesL/HpWvnttKGWZrY9q3mN9itbHkRWrFq1CrW1tVizZs2EO+tu27YNBw8exGOPPTahXFVVFb797W/jwIEDOHPmDAMMRETkmFTP+/jgI5kPmrz0DSxEZc2HLMvw+vJw99ceRkXVDN28Vh4x3/r6Gs20aFTGd5/drZrvW18fXSHw3Wd3TyijV59Re3p1mW1DrZ969VupV68dK/3N5AeRVT/4wQ+wePFizJ49GytWrMDKlSshhEBPTw/eeOMN3bLxKxiMAgypfqPmgw8+1B9ERETZJG3vsaC3vNzrzcNdX30YlVU1CV2Gvv2Z0YDB5g1r8ejDa1XTY+1tf2a3ar74PDF6fZTl0TJ22ov1V6sNvT5u3rBWtZzVvuv1zcx+EU1lX/7yl/Hoo4/igw8+QDgcxr59+yyVjwUYYpdWLFq0CBs2bMD69es/uWaWsxii9MPXJBERZZm0DSzofQg8f9FVhnkm4zs7d6tuV7anli8+TyxdrZ/KNKO61PJEZf029OrVal/ruV7ftfqm1z4RfWL58uWTKq8WYNi8eTNu/C8rE9RDIiKayhijJiIjaRxY4OyTiMiK+ADDa6+9luruEBEREdEUkbaBBcYViIjsqaqqwsaNG/l1k0RElDhcskBEOtI2sMDl8kREiaD93eMC8ujX9woAkEcDuiL59/R9/JvrAQDfeWpX0ttKlEzsM6UzztCI0s3mTaPH+e07eJwnsiONAwuMLBARJYOAjOjICIaHI4iOjEBIgMvlhiS5AMkNCDOTHnsTo1RM0LXaNNuXTA4qxPquFNuX+HS1/Yvfd626tOomouyR7fdYePRSUOG7JoMKVvOnm1j/lWL7E5+uto/x+69Vl1bdlL3cyu9QV+rv75/wPetm9Pb22ipT6i0EwEshKDMFg0EAQDgcRjAYtPzasfO6sVvOybYAIBKJOHYssVvO6TGxc3y129YYOQpERzAQ7EFTUyNaW87A48lFdXU1Zs6chYLCAggpB7LmKaQYXeQgSZDT9xuLiTJC7D0jxu7re2BgwNFzNTucLOfkuWumlLM7Ju5L5+VEU4XyuOzz+dL6fN5uuWScu7r9fr9u4fz8fBjl0WK3HADMq8q1XZbIaY2HRv8tKCgAAHi9XhQUFNh6DTj5enOyLY/H4/ixJN3HxO7x1WyZlvZOxcdMMiR5BKdPn8SHh/6ItrY2FBYWQpZlnDrVACEEPvOZm+DL8yEY7Mfg4CAqK6vQ3t6GgoJCeDwetLe3YfHiK1FUUgpXjs/k6gYVqfjoS9Hmd562+OlJBn5cF9vHx7+xftxzNY9/c712uphY1kydpOHS31LsPSOmqKjI1jHB5/Nl7XHSTjmnz13t/t7stmennN0xCYZHLJeZCjL903flygS9/Xl003rddGVapq/mUB6X7Z6/pvsxwW4ZvWNJ2l4KQUREiSXkEZzv6kDDyeNobm5CSUkpCgoK4PV6EQwG0dbWhgMHfou8vDz09fWhp6cHM2bUoKXlDAoLi5Cbm4uWlhb0BC5iad3VqJ5xGVwer+n7MignorHnMWoTVDt5YvmU2+Pb15oUq9Wl1W6mMNpXtbHSK2eURkSUTFoTV6PtMWbKqS3vV5uM610GoFdfOky6zYyj2v7pBQ4yPahAk5OWgQUh7H8IRpQKQozeA48o3YxbsBAdQUPDCbS3t6GkpATLll2D5ubTqK2djaqqarS2tuD111+Fy+XC4OAgAoEA2tpaMTAQgsvlhsvlQjg8gP7+PkiShNzcXFRW10C2eMNHrcl7/GH/MY08j39jPbZdmsxq5VHWpZcW+1mvLqP6MoX2xS36ecyOJZnHcaNMk47n5vH9eWTj6DH8ezt3Tdim9Oim9ePyxdenVUbZntpzrfxqdWr1IRW09iN+u1oevf1Pt78VckZaBhaIiCgJZBlnz5xBbq4XlZUV2Lfvlzh8+BBWrLgRn/vczZg/fwFWrfoizp8/h8HBQciyDCEE5Lib3siyjEhkEIcOHUQ4HMZt/+12ADmWu7It7pNu5aQ+9nyb4tNwrcm/Vr5tT+/SrEurXrNtEhFR+lILNMRvN2K2nFa+2HYrAQ+iTMfAAhHRFCEJGYODYUiShJKSUixbdi3y8vKwaNEilJeXwe12o7S0FLIcRTg8qFqHLMsYGAihpaUFAwMDgGzuYwkzE/xE5VOuaLAbeDDbl3RmZgxi/8YHUbJ9XIgoe5iZzJspq1fOTN2T6YfTjAIvse3x46JXziiNpgYGFoiIpgohobi4GIFAN/r7g1i8eAnKy8tQVlaGnBwPuru78cc//gEA4PHkQpLUgwZDQxHMmTMX8+YvAKTUfjOE3moDIiLKbsmYzMZPpM3Wa2bCTZTt0va7wmLXcvHBRyY8iDKBDBdqa+fA7c5BU1MTQqEQKioqAAicPXsWH354CMePH8PAwAByc3Ph9XpVH4WFRbh62TVYfOVSyHClZF/0Pkkn+ziGRKQqDc61lOdcyp/V0vXKKp9//xn1oIBR3bHAwfef2WXp3DBdxtBoe/w4WBnbTHvQ5KXlioX+/n78y7/8S6q7QWSeECgsLkt1L4j0SS5cceUSdHZ24De/+RVCoX4sWLAQg4NhnD7diKamJixfvgI33PBpVM+YAaETexaSC7KQIAvjwILZZfVWl99P5j4NvAxCe9+yfVyIKDt8a8MnE3q9bVppannV6rLTnl4/Us1un62MLU1NaRlY+MKXVo97/utfvZeinhARZTZx6RF7luPJxbXXLUdFRQWOHTuC48ePAQCKi4vxxS9+CVctrYO/pBzC5YX+retF3P/N98VM2mPfWI/tcRPXzZcms7FtmxXpem1otanXntk+ZwozY2A1PRvGJZU4fkSJoTcJNhtwUMtvxOxEWq1eq20RZYq0CywUeCd++uXz6F+xEQwGUVBQYLktu+VaW1tRU1PjSHtO75udck6ORyaVI0pHQnKjuLQc83K9KCwqRl9vH4QkkJ+fj5LSUpSUlkNIHggh6X6FajK+XnX707vGggibFSsQlBN/ZbpaHmU+reCBVn2ZSrkvysAMEZFV6bpcXNmnp57dhW8+PHrMU644eOpZjQDypTqU+bXKxLepVUavH2r9dkKsPzGxfin30ahveunp+DdCzknbeywQEVHiyZAguXJQUOjH3PkLUXf1NVhatwzzFlyBsmnVkFy5EJJ+UMEKvUmt2QmvmQmxmTqU7amVid+WiRNxrQBJ/GqP+OdqebTSGaAgonSiFSgwkzc2ydarIz4tPr9ygq5VRq3uWNDBaVp9jvVFbzyM9snMWNLUIOT4LyhX0dDQgPnz51uuOBAIwO/3J6TM/v37dctxxUJqy3HFwkSxMamvr7dUzs7rxm45J9sCgDfffBOrV682zpig9jJhTOwcX620dfjoCYyMAJfVzrPcNyJKnrPNp3CmqQHFRePfW+rq6mwdS95//33ccMMNlstlwnHSTjknz12FEOju7s7aMQmGR3D0ow9RUlqOquoZlssTZYqfvvW/Uegvn7BS3uPxWD6+ZsJxMhnnru6Ghgbdwu3t7ZYbBEZvwJifn5+QMq2trbrlwuEwvF6vpbYmU+7ChQuWy9htz+l9s1POyfHIlHKxMTF6fSnZed3YLedkWwDQ29treTwm014mjImd46uttrg0kSgtKc9v/H6/rWPJ+fPnHTu+On2ctFPOyXNXAGhubs7aMameOcdWOaJMpTwuFxUVpfX5vN1yyTh3dZuJXqZ6xUJbW5tuuVRcO88VC+NxxcJENTU1Sf00erLlnI6mHjlyxLFjid1yTo8JYP34anXFAhGlL+V7Z21tra1jyblz51J+rpZu5Zx8v7H7e8uEMQmGRz55wiA1TQHK47LH40nr83m75ZJx7pp2N29UY7ScPBOWL9ttLxP+MJ0cj0wpZ3dMiIiIiNIR4wpEpCcjAgtERGQfTwaJiIiIKJn4rRBEREREREREZBtXLBARERERkSYBrn4jIn1csUBEREREREREtnHFAhERERERaeOSBSIywBULRERTmCynugdERERElOm4YoGIaKqRZUDIQDQKIcuAAIQQkCEBIvPizY9uWg8A+O6OXY6UIyKaarhggYiMMLBARDSlyIA8gnAohK7ODpw/34WcnBz4/SUoKytHXn4BhCTprGQQgBCQISBE6k8zlcEBs8GCqRJUiO2nknK84replf/ujl2adWnVTUTZxefJvMAzETmHgQUioiwmRuMAoz8DkKMjOH+uE83Np9Hc1IRweAAulwSfz4fiYj8WXbEYOTk5iESGMTw8jMLCQvT29sDjyYXL5UZvbw+qqqfDl58PIVxps8JBGeMwG/NIg9hISqjtt95YWBmnqTqmVnCMKBPx0jki0sPAAhHRlCEjEh7A8WNH8Nvf/hqh0ADmzJmDoaEImpqacO7cOYRCA8jPz0MgEEAwGMScOXNx8uQJlJaWwuv14eTJE7jppnrMmj0HBUV+SJJIq1nS93by0/J4sfF4ZOP6cc/VPLJxvW66Ms1MnUSUHQSAKCMLRKSDgQUioilCjg7h2LGjaGw8hcLCItx665+hq6sT1dXTkZeXh4aGk3j77X+Hz+dDOBzGhQvnUVzsR09PDzweD9xuN/r6etHSchb/z5/9OZYtuxbe/KLRlQsmaE1EjbbHGJUzW49WfdnKzLirjZFe4IBBBaIpRgBRxhWISIc7EAjoZujv74dRHjW9vb2OlElFOY7JeE6OR6aUy4QxcXocI5EIx0TBzt+J3bYAQI5Gcaa5CYDA9OnT8dFHh3H8+DF86lNXY9mya3DFFVeis7MT/f1BDA4OYvr06XC7czA8PAxJGr2nwujPEg4dPIiR4Sj+y00rAclcYEGN2gRVKxBg9Im6Vt1E6SoYDI57bvf1PTAwwPOSOJnwHux0Obtj4vYWjv3MBQs0FSiPyz6fz7FztUw459U7lrj9fr9u4fz8fBjlUa047kBkVqmNMqkoN2/hEsfay4QxcXI8MqWcmTEp8KpPxuy83uyWc7Itj8fjaHt2yznZlt3jq9kyLe2d457LURmBQACSJFBRUYmOjg5IkgRJkpCbm4vCwkIsXLgI586dw+DgoGqdsiwjHA7h+PHjaGk5A1mWE3qncKurDozqSURdRMlSUFAw7nlRUZGtY4LP58va46SdcnaPrXbaAuz/3uy2Z6ec3TEJhkfGfo5yyQJNAcrjst3z13Q/Jtgto3cs4aUQRERThCQJuFwShoaGkJOTg2XLrkF5eRlmzrwMxcXFGBgIo6+vDyMjI3C5JKh/uZgMtzsHRUXFKCgsnNTtFcxeymC1LJfwf8Ls5SfKyyE4hkSkFNVJ+4/fHcB1169IWtv3feUu1e0v/9OPk9amkVifktWHydSf7L4RqWFggYhoipAhoap6BppOn0JbWyuWLbsGNTU1EEJgcDCM1tZWvP76qygrK8e0aeVwubQvcbj22mux6IorAZP3V1Di5JSIKHOM3rxRO/1nP30bFy9cwOdvuTWh7a7/6icBhV0/+vGEtPu+cteE7U5L9kKOydTPRSbkJAYWiIiy3NiqAsmFq666Cr093Thy5CPIsoxZs2oxNBTB2bNn0djYiCVLluDqZddi+vQZEDrLEYqKipBfUATJ7VJf2GCmP5j81x7qPU/U1ydmA639VW5/ZON6fP+ZXZrpZuokouxkdCnEu++8DVkGbl71pYS3/eIP92q2n+pLNJLV/os/3Dvp+lM9NjS1OB5YkKNRyAm++4uk86kaERGNklwSSsrKsfjKqyCEhO7uiwgGP0I0OoKhoWFUVVXh6quXoXbOXBQV+SHrzByFGL2ZI4RkuR/f2jC6WiF+Aqu2TStN77mVerKd1v4ajQPHkIjUmDl9/78/exsygJu/MPngwoP33Q0AeOHlvaptv/Dy3gn9ipVRy6esU5k3Pp9RXfFpD9x797h0rTbU+mGmfWWbRn3X65vZtonscDywEI1GERkIoaenF9FJBhlcLjdKSkqQm59nmLfQN3FX+waGx23vGxi23RcionQnQ8Dt9mDO3PkoLS3B0aNHcK7rHCRJoKS0DDNn1mDWrDlw53ohJAkiobdlHE9vUms24KBHWQ8REdknhEFgIS7t5z97G5CB/5qA4AJg/tsovr5udML8/Et7x2178L67x20DMGGbMp9aXfHlnn9pr2oevSBHLM1KP5V1mum7Xt+M9otoMpy/FEIGPv64A//8z3vR19eL4WH7k/ny8nI88MBDhoEFtaBCprKyL8rAiVYerfoZaCHKPsLlQo7Li/LK6bipohLRkdHbcQlJAoSAkNyXzg+dXecev9og9m98mh3KeqYK5X5zlQERJYKVVfU/f/dt5Pp8uPEzn3Wk3YfXj06Yn921d1z+Z3ftxcPr78bX192NZ3ftHbfdTD5l28pyev2Lryc+X2y7mfbN9MFKWbN1EtmRkhl3JBJBR0c7uru7JxVYGB4eRjSqd4/aiThZHq/Q5+aYEE0xsgwIIQGSBEmSAYi4OEIy1ymMsjLBNVrGr3weH6CIr2OqTK61gila46XMw8sgiEhLVGfpgIzxaf6SUixavFS3TCLatZI3Ps1svljAYucP9lhu06jfG+9fY6qc0XM7ec3sF5FVKQksyHIUkUgEkUgEQ0NDtuuJRCIJv19DupvMCoP49GxaxUFE1gizdzhMMKMJqZkJqzKP1gTZTt3ZYLJjrJc+VcaQiNSZ/SzPX1KKr6zbhKLiUtNlEtGuUd74NKN8T7+wB9948JOJfywI8PQLEyfiWnVpbY/Vq6wrtl1Zzui5lbxW9ovIqpTOLouLiyFJLrhcLkSjUQSDQQgBeDwe5OZ6AQCDg4MYHAxDCIHCwiIAo/dpGBgImWpDOYGOPdebhGtNuq1M6tXS7NbLyxOIyC4Bpy9qICIjfE1SxjG6x8Il/pJS3HPfJhT7S03fG8GIlXr08sanmcn31POjk+1vfv2Tifg3Hlwztt2oLrXtsbqeen6P6XJGz63mNbtfRFalLLAghEBd3dWoqalBfn4BIpFB/P73v4cQwIwZM3DZZbUAgJaWszhzphkulwsrVtwIABgcDOPYsaM4ffq0o31WBiXiJ/3xlxRYCSooy2q1SURERESUKkZL+/0lpVhz70YU+UsScgnE957bjUceWotvfn0Nvvfc7gnpjzy0diyfmT7auRQivv5Ye2YvN7DShl5aMi6FAIz3i8gq698TlkCXXXYZrrzyKixbtgxLl9ahsrICFRWVmDt3PpYtW4Zly5Zh3rz5qKioQFVV1di2q65aihkzaky1oZyw9w0Mm/rUP5bPbH49yuBAIuq024/YI74vZM0vf/4zHD92NNXdIDJH8MEHH2n5IMowUVn74S8px91f24gif6luPquPmEceWquZFpWB7c/uVs0XmzRvf3b3hDJ69Rm1p1eX2TbU+qlXv5V69dqx0t+p9KDJS+nH4efPn0dLyxn09HQjHA6jp6cHgEBnZweamgoAAB0dH6OnpwdutxtNTaMrFEKhAVy8eDFp/UrmZDu+bq0VD071Ra9dUvezn76Nd995Gzk5OVj71XVYuOiKVHeJiIiIKKkE9Jfg/8Vffg1eX17CLn+I2fbMaMDgsQ1rsfnhtarpsTa3PbNbNV98nhijywm2PbPbVnux/mq1odfHxzasVS1n51IIrb6Z2S8iu0R3d7fun1FzczNqa2stV+z2FqpuHxkaxsnjR/H009/FnDlzMW3aNPh8eRgaiuDYsWMAcGmFQjUAoKOjAx0d7ZAkF666aikAIBIZRHNzEzo7u/AP/7ANZZVVun2xei8E5XYlrTqUlz3oXRqh176VFQVGec3un522p5pYUCFmssGF4XDfhG29vb0oKiqyXJedck62BQDvvvsuPv/5zzvWXiaMiZ3jq5W2Wto7IctA7Zx5lvtGRMnTfPoUmhob4FKsG73qqqtsHUv+8Ic/YNmyZZbLZcJx0k45u+eudtoqKSnBmTNnsnZM3N5CHP3oQ1RWlAO+SsvliTLF7/a9iUJ/OUYi4+/j5/P5LB9fM+E4mYxzV7ff79ctnJ+fD6M8aoLhEd10IQRycnKQm+uF1+uDJElwudxjN2/0en0ARn92udxwuVxj2yRJwO3Osdwns+ze1yCT7oegvCkk6VMGFQBgaGgIu3/0ku3ggtbrys7rzW45J9vyeDyOtme3nJNt2T2+mp/240MAACAASURBVC3T0t55adU1110TpZPYK7KgoGDc9qKiIlvHBJ/Pl7XHSTvl7B5b7bQF2P+92W3PTrlEnM8n4hseiNKd8rhs9/w13Y8JdsvoHUtSOrNcsOByXHnlEpSWliIUCqGnpwdCAAsXXoGlS0dXJxw+fBiSJCEnJwef+9znAAB9fUEAAm1tbQnvk50VDJTd1IIKMZMNLhARERGlOyEEl8oTka6Uzpa7u7vR1taGvr4gwuEB9PX1AgDOnevCmTNnAQBdXV3o6+uF2+0e2xYK9aO7uztl/VZS+/TfzL0UUhmsYKDEHL2gQgyDC0RERJTt+K0BRKQnZbNLWZbR0nIWoVAIPp8PQ0ND6OzsBABEo1EEg0EAQGdnJ7q6uuByufCnP/0BABCJRNDW1pr0PiZr8q1WrxP3M9DaH6tfdTlV7r3QffECAODzq75kKn97WwvmzpuPnJzkXaZDlCiyHIUcjUKSJMiyjEu35oKQXKnuGiXQNx5eN/bz08++pJtHLd1MmpJWO3rl4svotTnZdLt9JprqBHjnfCLSl9KPrcPhMILBIIaHhzE8PIRIJAJARigUQl/f6I3tBgZCiEQicLmksW1DQxEMDg4mpU9aqw8mG2TQqyOVE/WpEiSwo6S0DF+4xVxQgShtTfhqOxmQZQxFIugP9iLU3w/JJcHr9SE/Px/unFwISf+eDEJcqlTw3g0ZReXX9Y2HLk3Cn1OZhD8UNwm38Kv+xsPrVOubUKdRGaM2dfbHVHmj9pOJLx3KQPOqclPdBaKkOZjqDmSBlAUWhBC44YYbsWTJUpSVlaG/vx9vvvmvAAQWL16MurqrAQCHDh3EoUN/Qk6OB3fe+VcAgL6+Prz33j788pe/MNWW3uTZ7Fc8Gk3AzUzQzU7irUz2E9GvyeQnovQXP4eRo1FEwmFcvHgBDSdP4MyZZuTm5mL69OmYNasWZeXlcLvdkGUBWZYhSRKi0SiEEBBCIBqNwp3jgcvtBiAYW8gger8qZdomRQBAr+yOuAl5rJxa/ljaDpUJ/KaH1k0oYzWukIw+ExERkTkpXbEQiQxiYCCE/n4vQqEQhoaGIQQQDg+iv78fADA4GMbQ0OhkN7YtFApdWt1ARERmyXIU0eFhHD3yEQ4c+C06Oj5GTc1M9PX14cSJ4wiFBvBnf/Zn8Pry0NvTi4GBAcyaNQunTzfC7y+B1+vFqVMNuOGGGzCtsgq5Xh8gzF86YTSxVKYpJ4pG6WppO557SfNns3Vo9UGtXq08avWbSU8mrd+H3n4ZlbXaVozamKa6z0Q0HgPJRKQnJYEFSXLB58vDyZMncf78BXi9XgwPD6G9ffRbHsLh8NjP58+fG7vHws9+9lMAo5dCtLa2Ii8v79KSXCIiMiKPjKC5uQknT57AwMAAli27BrIso7i4GMPDIzhzphn79+9HXp4P/f2jN8mtrKxER0cH8vPzkZPjQWdnBy5cOIcbP30TFlx+Oby+vITfl0FrYmiUZ9ND6wwn7lbaMMtuG2b3IRmcnGRzQk9ERJT9UhJYyM/Px5IlVyEU6kdfX+/Yt0GUlZWN5Tl3rmvs52nTpk3YVlBQgJqaGrjd/HYDIiIz5OgIGk+dQm9vD6ZNm4bCwkKcOnUKpaVlWLBgIaZPn4H/83/eQF9fEJHIIIaHh3HhwgWMjIygv78fkjQAl8uF1tZWfHjoT3C5XFh0xWK4knTDR60ggdnVDWp1aKUZrY4w20Z8H/Xqt7IPTppMECCRAQQrY5EufSYiIprKUjIrr6iswpq1X0lF00REU1Y0KqP94zbk5OSguno6jh49isOHP0ROjhuXXXYZZs2ahc985iacO3cOg4Nh1TpkWUY4HMbJkycQjcq4/PKFcJn4IhSzl0Ho5TNKN2rLziTS7rJ6O/1zymTHJ35MzF7qYWZfzQYTtC55MVt3Ki8/ISIiylaOBxZcOS5ILgm8TRIRkbOEGL2UzCVJKCkpwY03fgZlZWVYsOByTJtWASHEpcsihhEOawcWBgZCAEbrSpb4yZ9eMMKJ9jO5Da02Ez2ZTmR9RvdXSHY7RDSR4BcBEZGBFKxYEIZfZUZERIkx/tsmBSorKtHR8TG6ujqxYsWNKC8vR35+PmRZRkfHx/j3f38LXq8XBQUFkCRJpUYZIyMjWLq0DpdfvgiSS7IUJjb6ZoKdz72EjSqXDew0OQkUGj9b6UOsfWWbse2TacPMWCXyHTJ+PPX6vVHnE32tPsXXbfQ7StTfSHx6svucTDwLokzT3t6OUCiU6m4QURrjDQqIiKYIl9uNefMvR29vLxoaGlBePg1lZWUYGAihq6sLp083IhIZxOzZs1FZWQ23W/veCTNqalBZWQWXiesgtCbqWmnxP8dPHvXqMcpjtg9mylttw0xZJxj1z04daoGgRPZNKz0d+kw0VcyqnY2urk4MDstj206fakhhj4gSz+srSHUXMp47EAjoZujv74dRHtWKvYV2+0Q0Jai9rnp7e3H27FkUFxejuLjYdF29vb2W27dTZjLlIpGIrWOJk/10ekzsHF/ttgUAQkiYM2cuzp87h87OTvz+9/+BqqpqDA0NoaurExcvXsS1116HT129DNOmVequLhNCgiRJEKqrGsxRTu42mvwEWS2f2bLpIlX7oFe/XtDFDL3+J2t/k9lnJwSDwXHP7b6+BwYGHDu+On2ctFPO7rlrJuyb3XJ2x8Tv70WBF6gs943bvuSKqyzXReP9+79/aJgnFAohLy/Pct12y3V0dKCqqsqRttKvXBQjkRCCiqs8fT6fY+dqmXDOq3cscfv9ft3C+fn5MMqjJhgeQWPDCXR3X7Bcliib5eR4sPRT12i+rrZs2YKbbroJa9eutVSvndepnTJ2y3k8Hkfbs1vOybbsHl/Nlmlp7xz3XEgScr1eXHf9dZg5cybef/83OHnyBCRJQnV1Na6/fjkWX7kEefmFkFwuJHrBtpkJn1oetU+ak/2Jc7Lqd3If1NpWSsQKCrMrABK1v072OdkKCsZ/QlZUVGTrmODz+bL2OGmnnN1jq522APu/N7vt2Slnf0zsB7NJn/L1P9l8iSgXuxTSibYypZzd89d0PybYLaN3LEnqpRBtLWdQPnMx3DmeZDZDlFGaj/9nqrtAU01cfEByu+DNy0P1jBm4+fNfQDg8CCEEPJ4c5OXnw5tXCOFyJfQuXTuffwkbv75Oc9vO53U+RVekadUFQLM+vXaM+qDsp9U21Lbr7UNSKX6lZsY/vqyZ/BsfWme4r8o6jOo1M/6J7DMRERFZJ2RZlvUyNDQ0YP78+ZYrDoZH8KtfvovLFt2AHI/XdgeJss3xP/4Cn7v5CyjwTrx+PRAIYNOmTZZWLGzbtg27du3CmTNn4PV6sXr1auzYscNwKVsgELAVqbRb7s0338Tq1asda89OOafHxM7x1Upbh4+egAAwe+7ENmQ5CjkqQ47KEEKMTTolyQUZl7YRUVI0NTag8VQDiovGf3pWV1dn61jy/vvv44YbbrBcLhOOk3bK2T13tdOWEALd3d1ZOybAWRtlyIz9+08b5gkGg7Y+ZbdbrrW1FTU1NY60lSnlPB6P5eNrJhwnk3Huav/iWJMEPvmKGj744CNxr61wOIxbbrkFPT092L9/P2RZRnd3N/78z/8cK1euxMGDBxPXGGUdISRILhdcOW5Ibhck1+gDAmBQgYiIpjohZkGIWY6VI8p0/FYIogy1bds2XH/99XjyySfHtnm9Xtxxxx2or6/HypUrceDAAdvXahERERHFM5owy/KZsTyyfEa3fCxdrU61sqmmt1921NfXG+bJtpWUmVju/ffft1xmqmJggSgFfv2r9+DzjF8wZOYNJiYQCOCZZ55Bd3e3anpVVRVuv/127Ny5c1zggaYmrj8gIqJUMxtUiG1Px+ACEWljYIEoRXbv3j3u+f79+xEOh3Hw4EF0d3ejublZs+ypU6dQV1enW//y5cvxyCOPaKaHw2F4vdbvf2K33PHjx21dnuFkP5PdVn19vaUAEhERUTqyOulXCypoPY/lTbfgQjr1hSgdJT+wkODryokIcLvdCIfDunnC4TBcrok3iKTUOHToEM6cOcPAAhERTSlWggqxbXbvbaBWp9p2O5dfmK2HaKriigWiFFF+60N9fT0CgQA6OzsNvxUiEAhg0aJFup+UHzx4EKtXr9a8FILfCuFsW7t378Z7771nuW4iIqJMpRdUSGabepdaJOryCwYViMZL+rdCEFHi+f1+rFu3Dtu2bVNNb25uxuuvv47HHnvM4Z4RERFRtot984HyocwTYyeoYLWMXn61QIMsnxl7xNgJFsTXw8slaCpjYIEoQz355JM4dOgQ7rnnnrF7F3R0dOC1117DLbfcgldffdXW/QKIiIiIUsWJlQBmLsnQk+hviCDKBkm/FEKAdyQnSpY33ngDu3fvxpo1a/Dhhx+iqqoK9fX1/JpJGsNjMFH64WuSMp2ZCXX8vRLMXmbACTtR5uI9Fogy3Nq1a7F69WoGEkgdIwtE6YevSZoirNyIMRFBhVh7qbi3A9FU5w4EAroZ+vv7YZRHtWJvod0+pcz86aPLxhva9e+2T5QIwWBw3PNAIIDe3l4IIRAKhSy97np7ey23b6fMZMpFIhFbxxIn+5nMtkKh0IQxsHN8tdtHIko/yvcBu6/vgYEBx46vTr932Cln99w1E/bNbjm7Y5KIzyziJ/tqk/ypGgQw8/tw+m/LyfOSTCln5/iaCfuWjL8Rt9GnnPn5+bY+CQ2GRwAAQggIG983KQQg5ChcEuCSZMhRIAqBEVkgKlurb151LgDg1MeDJtvOzI8SYvupFNvv+HS1sYgfJ626tOomK0b/vgoKCsZtjb3Onn76aXi9Xsv3R7DzOrW7ysFOOY/H42h7dsslq628vLwJY2D3+Gq2TEt7JwDAm8Pb6RClI+X7QFFRka1jgs/ny4rjZKLK2T222mkLsP97s9uenXL2xySxwWxlcCFVlz5o9WOy9Vhh9vfh5N9Wss9LMrGc3eNrJuxbov9G0vJSCAEZbhHF0GAQgUA3AoGL8OR44C8pRX5RCXLcuRiKcn3vZMyrzmVQIE3xkgZKtKic6h4QEdFUZnS/Bb2JvZ1vh9AKWCj7Ybcto3qIpiKHAwsyXKNLEfSyQEBGuO8C2lqacKrhJFpaWpCX58PMmZdh7rwFmD5zLiTJiygAM8GFqTKBVq5MmMx+K8smok4icp6AQFRmZIEonQh+MEJTkJ2bOSa7H8rtk63Hyj0liLKNo98KIQnA6xqGLMuQNU50JQmQEMUfP/wjfvnLn+Po0SNjlyZ4PB5cc821+O+3/xWKy6oRFR6MmDhfnntpUtwYNymeq7PUP1ve7rX2o/HjQcytzsW86txxY2JUziiNzOEYktMYVyAiokQw+20QZtOSFVwwqtfOfqiVMbuNaCpwdMWCACBBxkcfHUR39wUMDw9PzCTLGBoawu9+9z6am5tQVFSEefPmo7OzE93dF3HmTDN+8+v3cMuXVgOeHNiZpukFFYiIsk00muoeEBEREVE2c/weC5KQceSjQ2hsbEA4rP7tCyMjI+jo6IAQEubNm48vfvFLaGxsxAcfHMD58+dw5mwz5OgQXAKmVixoUX5aP5UCDrFVC3M1Vi0QUfbgpRBERJSpzF5awJUCRKmVkps3hkIhdHZ2oK+vD7m5uYhEIpAkCTk5OXC7cxCNRjE0FBm7M35JSSmKis7D4/GMpkUitr9tQu2yCCKibKYXV3jzJ/8LX7jlS/D58pLS9n1fvUt1+8s/+nFS2jMj1qdk9WEy9Se7b0REmYYBA6LMkPx7LIjRR+xnQGDBggW4cOE8zp8/h6qqKnR1dcHr9aKsrAzF/hIMRSL48MNDuHDhPBobT+GXv/wFzpxpRkdHB3y+PEybVgmI0RuSWQkuxGfVK5ah3zY5gdZ+xLaf7hjEnKrRVQunOwYNyxmlkUkcQ3KY3rdCtLe34sXndmL91zcmNLiw/mufBBR2/eOPJ6Td99W7Jmx3WrK/LWMy9fObPIiIiCiTOLpiQYbACASuu/4G9AWDaDnbjLq6q3H48CH4/SWYP38h5sybDwEZJSUlOHDgfbS1tWLfvl9geHgY0WgUV1yxGDd++jOQ3D7InKERERnSuxRCloG2thb84PkdWPdgYoMLAPDiD/dqtp/qSzSS1f6LP9w76fpTPTZEREREVjgaWIjKMgZHJHhzfSgtKUV4IISSkhJMmzYNxcV++EtK4csvhgyBa669AYVFxThx/NillQpe1NTUYNGiJai5rBZRKYd3Ok+A2KqFOVVT5/4SRFONmWNle1srXnphJ+57YPLBhQfvuxsA8MLLe1XbfuHlvRP6FSujlk9ZpzJvfD6juuLTHrj37nHpWm2o9cNM+8o2jfqu1zezbRMRERGlgsP3WBAYkQVkRDGj5jIUFRehtKwcCy5fBK/Xh8KiYozIAiOyhPKqmcj15aGqegbOnzuHXG8uKiurMa2iGjneQgxFpUmtWJhTNX75PxFRttJbVh+f1N7Wipdf3Imv3Z+YlQtml/M/tG50wvzcS3vHbXvwvrvHbQMwYZsyn1pd8eWee2mvap6oTpAjlmaln8o6zfRdr29G+0VElAyBQBH8fr+NcgHL5eyUmUy5hoYGzJ8/37H27JYjyhSO3mMhZkQGqmtmYbqoBQCUlFePbR+JCkRlAeHKRVFZNUrKK7FIyAAEojIwIgsMyRIgrF+qLgTQ1DmI2ZWjn85rfUqfqfcRiO1XTGz/mjrHB1CU+xc/JmrpemWJKP1ZWd3V3taKt//tX3Hb7eo3XUx0uw+vH50wP7tr/OqGZ3ftxcPr78ZD6+7Gs7v2jttuJp+ybWU5vf7F1xOfL7bdTPtm+mClrNk6iYiIiFLB3dDQoJuhvb3dVsXVM+dopkWibkDjxosyAIjRf0dkgZGoBAAQQiBR507KibTWNqJkam1tHfe8oaEB/f39yM/Pt1yXnXJOtgUAvb29MDreJLK9dBuTzs7OCWNg5/hqp49Rs0sWAFRPr8GqW/9f/TKJaNdC3vg0s/liAYudL+6x3KZRvzc+sMZUOaPndvKa2S/KHMr3Ab/fb+sYdP78eceOr06/d9gpZ/fc1W4fm5ubOSYJKOf03xbHZCKnzksyqZyd42sm7Fsy/kbcZpYA2VkmFAyP6GcwGyi4FHyYzCmu8hN7K9syiVH/9dInU5bsqampGfd8/vz5ji6vc3op35EjR9J+yWEy26qsrERRUdGEMbA6Jmba2r17N1566SW8/KPdEML8pRDV02uw9r4NyPXmJeRbCazUoZc3Ps0o39Mv7ME3Hvxk4h8LAjz9wsSJuFZdWttj9Srrim1XljN6biWvlf2i9Bf7XEX5PlBbW2vrGHTu3DnHjq9Ov3fYLefk+43d31s2j0km/G0BHBM1yTgvyeRydo6vmbBvyfgbkWzVRkREaWf37t2YPXs23nvvPbz66qtj22VZ+xFTNb0Ga+/dAK83Tze/mYeZds3kjU8zm0+Wgaee34Onnp84+TdqU6+N2KT+qef3GJYzem6lbPzDaL/4yJwHERFRtkn+PRZg/V4IRERTxf79+7F//34AQF1dHVavXm25jt27d2Pr1q2or6/Hvn37UFs7ev+aw0dPANBfgi/LQFV1DdZ89WF4cn0JuQTie8/uxiMPr8U3v74G33t294T0Rx5eO5YvJtGXQsTXH2vP7OUGVtrQS0vGpRCA8X4REREROS35KxYEH3zwMe5BhNElaPfddx+2bt06tm3Pnj1YsWIFmpubTdURv0Jh3759eOWVV8aCCvGisvajsmoG7vrqw/BcuvwhUY+YRx5eq5kWlYHtz+xWzRebNG9/ZveEMnr1GbWnV5fZNtT6qVe/lXr12rHSXz7S+0FERJRtHP66SSIiAoBbbrkFmzdvnrBC4YMPPsCdd96JN954A1VVVapltVYoaInqpP3XL91mmMeO71wKGDy+YS02b1irmh6N+1ktX3yeGL1+Ri+VsdNerL9abej18fFL24z6atR3vb6Z2S8iIiKiVHHgUojR/4iIaNS2bdtQX1+vetnD8uXLsWHDBmzatGncfRKA0YDCli1b8NnPftZUQCEmlUvl/2HHK6rblX1SyxefJ5auti/KNKO61PJEo7JuG3r1arWv9Vyv71p9M7tfRERERKnAFQtERA57/fXX8cor6hNuAFi9ejXuv/9+hMNheL3ecSsU3nrrLVx11VWW2uPN4oiIiIgomZIfWIi7rvx/7Xk26c0RpZP/tubhVHeB0sTChQtx//33Y/fu3cjNzdVdbeD1euF2u+Hz+cZt3717N3bvnngzRDVVVVV49xejN4Xkh9pERERElEyOfivEgw8+mOzmiNLKuWCqe0DpYvny5RgYGAAArFixAsePH8fy5ctV84bDYQSDQciXlhrs379/7CaP3/zmN3HrrbeaavPw0ROAAKJcskCUXniFKBERZRlHL4U4F3Q52RwRUVq6/fbb8frrr2sGFl577TXccccdY8/r6+tRX1+P/fv344knnsBTTz2FLVu2oL6+3lR7jCsQERERUTLxHgtERA7buHEjVq5ciVdeeQX33HPPuLT9+/fjmWeewb59+yaUi91j4eDBg9i6dSu2bt1qKsAwvzo3of0nosk53pfqHhARESUWAwtERCnwxhtv4N5778Wzzz6LVatWITc3F++99x4A4Kc//Sn8fr9m2fgVDGYCDFyxQERERETJ5Og9FoiIrwca5ff78e1vfxv9/f145513EA6HLV3eAJgPMPAeC0RERESUTO5AIKCbob+/H0Z5VCv2FtrtE9GUEAyOv7NjIBBAb2+vrbrslHOyLQCIRCK2jiXZPCb9/f2ora3F+vXrx7YZjZFaW3V1dXjjjTfwm9/8Bk888QQAYPPmzZg1Zz4AfisEUbpSvg/YPZYMDAw4dnx1+jhpp5zdc9dM2De75TJhTFLxHswxGc/OmGTC3/9kytk5vmbCviXjb8Stt9wWAPLz83WX5GoJhkdGf+CSBSJVBQUF457HXmd2Xm92yznZlsfjcbQ9u+WcbMvu8VWrzK233opbb70V+/fvx0svvYS/fuJJCPBSCKJ0EzstUr4PFBUV2Tom+Hy+rD1O2iln99hqpy3A/u/Nbnt2yjk9JnbLZcJ7sN327JbLhDHJhHG0W87u8TUT9i3RfyO8xwIRUZaJXSJx+OgJANl3KcTX7rkLAPCPr/w4xT0hIiIiIoD3WJhSnnzsgYnbtr04IT1+m1p5O+lqbevVRUSJo3cpxPFjR7Fw0RUJbe++r9yluv3lf0psIICXeFCmO3jwIOrq6lLdDSIiokmbkisW4ie5epPgyU6gjcrH59GaeBvVZZbmxP6xBxIyuTfqv145BheIkktvwcIvf/4zNDedxhduuTVh7b30o9EAwrqv3jXueaIXTmTZQgyagn77299i+/btWLNmDVatWpXq7hAREdk2JQMLk2F3Ap1KdlYS2KnfVF6VFRJElFxRnY/2ZRl49523IcvA51d9yfH207FeIqc8+OCDuO2227Bnzx7s2bMHTzzxBB54gO+NRESUeaZ8YMHKJ+ZWJ8Jqdce2OXVpgOHqC8WKCaurNOK3662K0KubiJJHwNwlA//3Z29DBnDzFxIfXIhv/8H77gYAvPDy3rGfY154ee+Esnp51OrVyhvfrlYbavn1+mcmD5Ga+EtEq6qqsHnzZnR0dOCtt97C9773PWzZsgVr1641Xd+RI0fwN3/zN9i/fz/+//buPkiO6szz/a9a3dVdXa1WIRjUegGJl2bAL0OPh11jx9ywmN1Y41nH2jPju2Y3xkjYa5DAIGQMwhthC107ZhAslnizBI5ZSTjCvjeuY2zirsNjeyZkrj0GjxlbeMwYaIwFCCH0Wmp1dbda3V37RyubrOx8PVWZVZn1/TgqUGWe55yTT1dW+Zw6mSXN/lLMhg0bItUBAEA9OpJoJNdCD2uQu8U2yPXaHyUubN1bbANwqw2vNht5rEFlg/5WXvvt28OUidJmVh9A0qpV74fd33//u/rh2dULjXi4tW+55cbr9chjT8w9rG32stbA3V7OPpj3K+esL0wbUepzK2P1r1H545Hdh5uBgQE9+uij2rt3r5566ilddNFF2r17d+D5vX37dj3++OPavHmzqtWqqtWqdu3apaeeeko33HBDYDwAAI0Q/8RCs0dxUUfCXv0Oigsos9n6Nt8t3qu+Rh5ryLKb777Z9eFWl7V9y9avhs+LV2w7PYCEzVS9H84xzt//4Lv64fe/6xsT9uHWvuWhnU/UbH9o5+zg/TM3Xa+Z6ux//cpZ9QaVs+oL20bY+rxy64zjwcPt4WfVqlXatWtXqAmGZ555Rk8++aR+/OMfa/Xq1XPbh4aGtGvXLkkKNTkBAEC92v5SiDA2b7INgmOMt8o5mbQbpc9e7fr1w+SYnO2Y5hNANL4/N+nY1dnVpRUXrvKPaUD7fvXb9zW63PYde3T7+jW6bd31c8/r6Z+9HqCRrAmG/fv3a8uWLdqyZcu8SyS2bt2qDRs2qKenx7WOzZs365prruGSCABA7BL6ucnW+Jr2i5vWS5L+r6075v77xU3r5/rn3O+1zWI/Lq9y1mDa2u4sZz334tZuFFFy79WW1Ue3usJuC9MOgHiEnVfo7OrSf73+Rl162Tt8YxrRvm+fqtHL3b5+TaT2g/YF1bftq3u08eY188pv+yoTDAjvW9/6lkZHR+eeDwwMuE4SrFy5Uh/5yEf04IMPauPGjfrIRz6iVatW6amnntKOHd6fqatWrdKpU6f0uc99Tn19ffP2T0xMeE5KeDGJSTru+PHjWrx4cSJtAQBmsWIhJtakhfXvMOXTwj4ZEjQxYrHn44ub1qfqeIG0m5kJLtPZ2aX/8okbdcngO0KVr7d9vzbs+8KWe+AR7wF92DrswtRnlbnjM29PMGy8eY1vLGDX19dXM7Hgp1wuq1wuq1QqzQ1+u7q64AGTFgAAIABJREFUNDEx4Rt3+vRpdXbyf/fiYl1yAgDtjk8aeQ90TQbQTq0+gA6a/Ii6wsIv1j65ACA5fsv6q9XZSYWPf+LTunjwioZeAuHXfpKXQtjdeevskvD7H96tO29dqzs+s0b3Pzz/GvQoebDirbrjyCGy6dprr615PjQ0pFKpVLPtRz/6kbZs2SJpdhBrv5fCiy++qGeeeUarVq1yrX/fvn269NJLde+997rutyYqojCJSTpueHhYg4ODibRlxQFAu4v95o25XGs8rAHtl+7bUbPd4twfZgAcVLfzuVcbznKNeNiPyy0XznJB9Tiff+m+HfMeXmXD9qtdHi1yZRDaiN/d6Rd0durjf/lpXTL4jtjufB+0zW3ffQ+9PVi3l7EG70HlrLL27VbsfQ/t9owNW5/b/jD55sGjWg133v7oRz/SNddcM3dvhb1799ZMKkjSX//1X2vLli2eqxY2btyobdu2hWsQAIA6dAbNslYqFaOZ2M6ehaZ9ain2AbPlC3el61v3RvXXqsctJ2F96b4dqctfXJzLX8vlskZGRozqMolLsi1JmpycNHovyXJOTN5fTdryuwv9n37kOi0qLQ68U30Ud2+ovVHcXbfNPr/3wbdXBvi1Z+2798HdunvD2rl4+7agcvbyM9W3+2Q9d9Z3121r5/oXpr57H9ztux8Iw/k5MDIyop/85CfaunWrJGnTpk364z/+Y0nu34qXSiXdeeeduuqqq/TlL39ZQ0ND6unp0b59+3TPPffoQx/6kIaGhjzfZ9LwPmkSZ/r/XdNwbKZxachJGj6D62kvqzlJw+u/nrjx8fFM5iSO10hn0JKvYrFotCxsdGI6ckyraMQA2qQ9pzgG8PY6g47Tvj9qTsKU/8Jd6xPLcSty3kjLOs9MzjfTuCTbyufzibZnGpdkW6bvr2FjXj/4liT/pfkLF53T8KX7f7Xd/ZrjmWp1bp9bm277nHV51eHXplfdUdp11udVhssgEMUXvvAFXXnllfrYxz6ml19+WVu3blVnZ6e+9KUvzVud4OWTn/ykCoWC9uzZo40bN2piYkJDQ0Pavn27rr766sD4Vn+fNIkzfW81aSstcWnJSRo+g03bM41LQ07SkEfTuEKhkNmcNPo10hb3WPAb5DoHzXEMoN3KBX1r34gBd1AdUfaH6U/Y8u08mQA0Q6NvxgigMb70pS/pkUce0V/8xV9o8eLF2r59uz7+8Y9HrmflypX69re/HUMPAQAIJ/6fm3RcW98MX77ffyBr3x9U1qS8W7mwccgebrGAJOVy4a/pBpAM6/8Xbd26VaOjo7rnnnv04osv6q677tJvfvMb3X777ZG+SZqcnNT27dv13HPPaWJiQldeeaXWrVtn/M0XAABRtcWKBQBoZyzPB1rTLbfcooGBAUnS+973Pm3ZskW7du3SH/7hH2rNmjWhJhj27dunm2++WR/84Af1gQ98QD09PXruuef0vve9Tzt27Ah9SQUAAPVgYgEAMo6bCQKtyZpUsCxatEj33HOPbr/9dm3fvj1wgqFcLuuGG27Q3/7t3+ryyy+f237ddddpw4YN+tCHPqRvfvObNfsAAIgDEwsAkHGDS7ub3QUANsPD/vtLpVKoCYYtW7ZozZo1rhMHAwMD2rZtm9avX6+9e/c2+hAAAKjBxAIAAEATvPbaazp+/Pjc89HR0Xm/GLR69WpdddVV+ta3vqUrrrhCH/zgB/Wxj31MfX19+ru/+zt985vf9Kx/9erVuvbaa/WDH/xA+XyeyyIAALGJ/+aNav7NGwEAAFrNnj17aiYW+vr61Nnp/X/N+vr6tGfPHv3sZz/TwMCAXn31Va1atcq3jVKppM2bN2v//v3atm2brrvuuob1HwAACysWAAAAmuALX/hCzfOhoSHXeyns3r1bW7Zs0erVq/XDH/5wbjLhmmuu0b59+zxXIpTLZZ0+fVpPP/20brjhBk1MTDT+IAAAEBMLAJB5rBoD0sk+obB37955qxNuuukmPfbYY54TC9u3b9eGDRuS6CoAoM11xN1AjgcPHjUPAAD87N69WxdddJGeeuop7d27V7t27XK95MG6rGHDhg3zViPs3r1bTz31lO6+++5E+gwAaG/xr1hgNNU0//2O9XP//qsHdviWcdsfZp+TVzt+cfYYvzbr3W/aZwAAkvCNb3xD999/v+cKBTff/OY3dcstt2jp0qUaGhqSJO3bt08f/ehH9e1vf1s9PT1xdxsAAHWWy2XfApVKRUFlXCvuWWjap0SFHei6aeSAuBlMBuFh6gzKQZSYqG2bxjXj7zI6OlrzvFwua2RkxKguk7gk25KkyclJo/eSLOfE5P01aluHDx+OVB5A/Kzz0voc+Id/+Ad94xvf0Ac+8AE9+eSTuvDCCyUp9PvDn//5n+uLX/yifv7zn0uS3v3ud2vRokU1dUxOTmpsbKymzjS8T5rEmf5/1zQcm2lcGnKShs/getrLak7S8PqvJ258fDyTOYnjNdLpdpMgu2Kx6HojoSCjE9OSpNzZ/7Wiz9+xznX7f79jvf76gZ2B8W7lgo61Wbnwa9e5z5kXv1j78VtxbuWtfW55/fwd6+bFRM1jHH2Om/MnxazzzOR8M41Lsq18Pp9oe6ZxSbZl+v4aNub0lPXf6ty2V14ejtwegMbr7OrWL//5Z3r00Uc1NDSkBx98UNdee63Re0KhUNCSJUv04Q9/2LNMPp9Xb2/vvPpb/X3SJM70vdWkrbTEpSUnafgMNm3PNC4NOUlDHk3jCoVCZnPS6NdI2968MWig6+Qs5zUpkRZex2/f7nWMfrkzKW9tDyqXZJ+BLFhyXklLzpt98y+XyyqVSjp2+M1IdYyOjs6bBIsz7sCBA1qxYkUibSUZl2Q+6mmPnNQfEyXu5Zdf1rZt2zQwMBC5DQAAWklbTiw0aqAbtr5WG9Qm2Z9WO3YAAFrF2rVrm90FAAAaIvaJhVxOLfVTZ3d/dnage+9Xwg90/fpv3xd0nM3Mg1vbzm1eufHqt317UF6jHHvQapAw7TaizwAAAACAYG25YqFeaR6QevU97DFZ5Zz/rqdOt7q82OuKo88AAAAAgGjaamLBdKDrNui16giqs5UmIeLqSyPrC8pj3O0AAAAAAKJpq4mFRkjTgPTer+wMNSAPmkQJqvvuz65LPC9p7DPQClavXh2pvHXTx6hM44aHhzU4OJhIW0nGJZmPetojJ/XH1BsHAEAaxX+PhbOPVhKlP1tDDj7d6txkG/A2OwfWgNp5PJtCDMqtvm9y1LH1KzvntvkdX9CxO+sN2p9EnwEAAAAA4bBiwUXQQDdqubCTE3Hz64fbvjADeHtZv4kBtwmNevMSZ58BAAAAAOF0xN5CroUeZ2367Lp5+2q2he17UH2Stm7b2RLH7NaPwD468+CSl63bdrpudy4H2PTZdTWPoHq9+hF7nxP+uwAAAABA2rXtioVNG+u/GeDWbTvn6mlEfUmy+lszyK6z/KaN62r22/NjZy8TVK99fxJ9BgAAAABE01YTC40Y6JrU2Uxe/QjTP+ckQdQ2wrQTZX9SfQYAAAAAhNd2N2+8L2BAGbS/UTFoX610PgAAAABAvTqDftqoUqkY/fxRZ89C0z4BbWF0dLTmeblc1sjIiFFdJnFJtiVJk5OTRu8lWc6Jyftr0n0kJ42JSzIf9bRHTuqPaUbc+Ph4YE4mJyc1NjZWUy6rOcnyeWMal4acpOHzpp72spqTNLz+64kL8/7aqLbS8Nrye410Bv3OcrFYNPot5tGJ6cgxQDvp6+ureW6dZybnm2lckm3l8/lE2zONS7It0/fXNOTRNC7LOUkyH6btJR2XhpykIY+FQiEwLp/Pq7e3d165LOYk6+eNSVxacpKGzxvT9kzj0pCTNOTRNC7M+2uj2ko6rtGvkfh/FQIAAAAAAGRW/PdYyM0+AAAAAABA9rBiAQAAAAAAGGNiAQAAAAAAGGNiAQAAAAAAGGNiAQAAAAAAGIv95o3i5o0AAAAAAGRW/BMLLehzG9a5bv8fD+4MHetW1l6vV11hyjRKlP74HU/QsdoFHZNbnD3Gr81699fzdwcAAAAAuONSCBuvgWfY/WljMggPW2eUfY3Kaxx9BgAAAAD4i33FQu7soxU9YBtQ33F2cOnV1zscg8+gY/rchnU19Vt1PPDgzsC24uDXlnNflGMNm0NrnzMn1j5nTFBukugzAAAAACBY/CsWcq31mBvgPrSzdp9Pf2tiPMoFlbljwzo98NBO7/bjePj8Hbz6EflYQ+Qw6Jit7UHlkuxzYn8XAAAAAEg5LoVIwB23tdZSe6s/NQPxDLQFAAAAAEhe5/DwsG+BgwcPGlW89IKLJUm5s/9rNfY+ffa2myRJX3nosXnlvPZ5HZN9e065yPFxcWvPua2eY/XLoV8dboImYsK024g+x+3AgQM1z4eHh1WpVFQsFiPXZRKXZFuSNDIyoqD3m0a2l4acmLy/Jt1HctKYuCTzUU975KT+mGbEHT16NPD9dWRkRG+99VZNuazmJMvnjWlcGnKShs+betrLak7S8PqvJy7M+2uj2krDa8vvNdI5ODgYWEGYMk6jE9ORY+JmDSSd/5aiTSqELefc3uyBrF8foh6r89/11OlWlxd7XXH0OUkrVqyoeT44OKhyuaxSqRS5LpO4JNuSpOeff97ovSTLOZGiv78m3Udy0pi4JPNRT3vkpP6YZsQdOXIkMCf9/f1asmRJTbks5ySr5009ca2ekzR83tTTXlZzkpbXf5zvr41qKw2vLcn7NdKWPzdpF8fA8isPPdYSkwhOcfWpkfV51RV24qHedgAAAAAA0cR+j4VcrnUelm0P137r7VbW+S239XA7Lq9t2x5+LLBcnA/7cfq1b3KsYXIY5XiDyjr3x9XnRB4CAAAAgOxom5s3brx1dtBpDS7tg0yvsib1WpzPvcolxav9eo61UccSlBvn/lboMwAAAABgVttfCiHNDj7dBpxu26IMaluN36C63mP1yqHXPr/yYcXZZwAAAABAOG2zYsGN38A0awPOuI41bOzGW2+qeZhKss8AAAAAgGDx32OhBR7WYHT7w4/N22exD3jdyjnLB9Ubtv24H15/h0Yeqz2H9u3bPQbw2x9+bK6eoH7Y9yfR5yT/JgAAAACQBW1xKYTXADdoX1D5sLFR22gkv8F9lFjTHAa1E2V/Un0GAAAAAIQX/8QCX9MCAAAAAJBZbX2PBQAAAAAAUB8mFgAAAAAAgLHYL4XgSggAAAAAALKLFQsAAAAAAMBYZ7lc9i1QqVQUVMa14p6Fpn0C2sLo6GjN83K5rJGREaO6TOKSbEuSJicnjd5LspwTk/fXpPtIThoTl2Q+6mmPnNQf04y48fHxwJxMTk5qbGysplxWc5Ll88Y0rlKpaHRiOnJcZ8/CxOKSbEuSll5wMTlxMMlJ0n1MOu4P3vPexHKS9s/gzlKp5BtcLBYVVMaNlUwuhQDc9fX11Ty3zjOT8800Lsm28vl8ou2ZxiXZlun7axryaBqX5ZwkmQ/T9pKOS0NO0pDHQqEQGJfP59Xb2zuvXBZzkvXzxiSuWCwatQMgOf39/S3/+eb3/srPTQJJ43wAAAAAkCHcYwEAAAAAABhL4FchZv8HwML5AAAAACA7Yp9YWLSwN+4mAAAAAERVrWp66oyqM1VVq42psmNBhxZ0dTWmMgCpEfvEQqPepAAAAAA0TlXSzMyMfv2rf9Frr7+qycnTddX3jne8S5dffkVjOtckCwvhh0enxqcCy58an/Ks37kPSLPYJxZmmFkAAAAAWlM1p3/9za/1jz/5sUZHT9VVVXc+r9+//PIGdSwbFhY6mUBAW0hgYiHuFgAAAACYmpiY0MjISZ06Vd/EwunT9a14aAX1rDCw74+y8gHIAi6FAAAAAJAYr8G63yDebaDuNtAPU87ZDpcnAPXjUggAAACgzZ133u/p8suvUF/fQuVyOR09elTHjh1VT0+3li5drnw+r4mJcR09ekzHjh3VypUrVSqdo2p1RqdPT+rXv/5VbH3z+vbffpmB3woBv8sRWFkANEZTL4U4dWpEIydPavmKC2Jr/8ZPfsJ1++P/8+uxtRnE6lNcfain/rj7Bn5sEgAAtJ7zzjtPV131b7Vs2TLlch164YXfaHj4RfX39+uP/ujfqK9voU6cOK6XXnpRL70kvec9V2nVqos0PT2lU6dO6bXX9sfSr6irGJzlrDJJ3Osg7KoKZM+J48d0zuJzm92NpmrqpRBnJs/oqw9v1/pbb9fy5Y2dXLjpU29PKDz2N1+ft+/GT35i3vakxb2Yo576WWgCAADQPrq7u3Xeeedp6dKl6uhYoMOHD6m3t1cLF/ZryZIlWrSopK6uTh069Ka6u7t17rnnatmyZZqaOqNCoVddXfnY++icHHBbrRB1IJ/EZAOTC9n2/e99V3v/4Qda+6mbdPkV72h2d5om/hULPksWZmaqGh8f046Ht2vdLbdr2fIVDW9/x9ee8OyDX9+SEFf7O772RN31Nzs3AAAASM6xY0f17LP/pN/+9mXlch16443XdfDgQZ04cUK5XE49PQWNjp7SwYNv6Nixo/rFL57VgQMHNDMzrYmJcY2MjCTSz6BJhGZe2uB1vwgmF7Lr+9/7rn7wd9+VJO3+m8faenKhs1wu+xaoVCoKKuNacc9CSf6XQlj7xsfHtPPR7brx5sZMLtxy4/WSpEcff8K1/Ucff2Je36wYt3LOOp1l7eWC6rLvW//p62v2e7Xh1o8w7TvbDOq7X9/Cto3wRkdHa56Xy2XjD2WTuCTbkqTJyUmj95Is58Tk/TXpPpKTxsQlmY962iMn9cc0I258fDwwJ5OTkxobG6spl9WcZPm88Ys7efKkenp61N3dPW9fpVIJrHdmpqqpqSmdOXNGuVxOU1PTmpmZ0fT0tM6cOaMFCxZoauqMpqdnt8+WndTMzIzOnDmjanXG6HiCOG+uaNfKA3a/fiMb7JMKknTmzJm6JhfS/hncWSqVfIOLxaKCyrgZnZiW5L+k3r5rfHxMj391uz69vnErF8Iu5//MTbMD5kcee6Jm2y03Xl+zTdK8bc5ybnXZ4x557AnXMlWfSQ5rX5R+OusM03e/vgUdF6Lr6+ureW6dZybnm2lckm3l8/lE2zONS7It0/fXNOTRNC7LOUkyH6btJR2XhpykIY+FQiEwLp/Pq7e3d165LOYk6+eNV9znP/95vfe979XatWvn7SsWi4F19vX1adWqi7R06TJ1dOS0YMECnT49oYUL+zU4eJkWLuzTiRMnVK1Kp06d0sqVq7Rq1SpNTU1rdPSUfvnLXxgdSxhRfsaxVScakC3OSQVLPZML/f39Lf/55vf+2hG5tohmqv4Pu/HxMX1tx3a9ceBAYFyYOsOUtQbMD+18omb7Qzvfniiw1xm2nLMde5xXGXsb9oe9jqD23eoP2/cwffM7Lh7RXp8AAACNMjExUVd8oVDQ+ecv0fLlK7R8+QU699zzVCwW1d/fr6VLl2n58gs0MLBUpVJJPT0F/d7vna/lyy/Q8uUrNDCw1PgeCwsLnXMPr/12bhMHYSYekl49wGqF7PKaVLBYkwsv/OZfE+xV8zX15ybddpXOWaz+c87xjWtE21HK2veFLXfbutkJi+079kRuM6jft69fEyou6LlJ2TDHBQAAgGgOHTqkjRs3at++fTp06JCGhoa0adMmXXvttYm0f/LkSb344gs6duyYcrmc9u//nY4eParx8XH9y7/8Sr29vRoZGdHrr7+ukZGTeumllzQ6Oqrp6WmNj49pbGwstr6F+fWHMOXj1qh+suqidQVNKljqvSwijZr6qxDOfUuXrdANN21QT09vQ36VIEodYfsZVG7bV/do481vD/ytSYBtX50/EPeqy2u7Va+zLmu7My7oeZSyUY4LAAAA4f3oRz/S+vXrtXnzZm3evFkDAwPat2+ftm7dqieffFI7duyIvQ/WxMKBA68rl8vp+PHjKpfLOnnypKamppTP5zUxMaETJ07o5MmTevnll3T48CHNzMycvYdH8H0cLG73H/C6J4HfdrfnrTZYZ5IgWz74of+oD37oPza7Gy0pgV+FCLdvYNkKrf30BnV39/rGNKrtKGXt+8KUe+CR2cH2HZ95eyC+8eY1c9uD6nLbbtX1wCN7QscFPY9aNuxxAQAAIBxrpcLevXs1MDAwt3316tVavXq11q9fr507d2rdunWx9mPx4sV697v/QEuWLFEu16Hf/nZYr7zyihYuXKh3v/tKFYtFnTxZ1iuv/FavvPKK/uAPrtSKFRdoenpao6OjevPNNyO1F3RJQ5jtpmUbWV+r/bwl0CxNvRTC2jewbIXW/LfblO8pNOQSiPsf3q07b12rOz6zRvc/vHve/jtvXTtXLko/o5Sz12+1F/Zygyht+O2L41IIKfi4AAAAEM6DDz6oj3/84zWTCnbbtm3T0qVLtXbtWvX09MTWj/7+2Zs0rlp1kTo6OjQ9Pa2TJ0e0ePFivfOd79SiRSUdOXJYp0+f1tGjR3XJJZfq8suv0NTUlMrlE/r7v/9BbH0D0PqafinEwNIVuv5Tt6m7QZc/ON1561rd99D8yQWr/fse2q27bls7r9xdt80Omu97aHekSyHuus2/Pb/nYduws/oZpv56LoWIclwAAKD1PPnkk9q/f//c84mJicgDVZOYpOOOHz+uxYsXJ9JWI+K+853v+F7q0NPTo4GBAd1+++0aGBjwbG/fvn06ceJEzd/YMjo6qnu+vNWzjVwup9OnT+vw4be0YMECdXR06OjRoxobq6irq1NvvPGGRkZG5i6PmC17WMViUVNTUzp16pSmpqaUy+Ui5wFANiSwYsF7X767R3/5qduU7+lt+N3y731wdhB894a1NYNv+36rzXsf3O1azl7G4tfPmepsjEl7Vn+92vDr490b1rrGRe27X9/CHBcAAGhNGzZs0He+851mdwMupqamAicmenp6NDVlvoR+cnLSd3+h0Ktjx47pu9/9/7RgwQJJszefO3PmjDo6OvTSSy+poyOnmZmZue0/+MH31NnZqWpVqlZndPq02QQLgGxo6qUQ+Z5CYJl6/dX2Xa7bnW26lbOXsfa79dW5L6gutzIz1apvG371erXv9dyv7159C3tcAACg9QwNDWloaKhmW7lcjvw75iYxSccNDw9rcHAwkbYaEXfy5Ek988wzuvrqq13LTUxMaP/+/Xr66afV09Pj2d6rr76qD3zgA1q7dv4XQcPDw759ufrq9+mywUvrmryQpOXLV9QVDyC9mnrzRgAAAKCdbdq0Sddcc43Wrl3rOmGwZcsWbdq0KbbVAB0LFuiCC1dp5cpVDakv18HlEEA7auo9FgAAAIB2NjAwoM2bN+uaa67R5s2b9dGPflSS9MILL2jPnj3at2+fvve978XSdi6X04Ku2IcDANpAUy+FAAAAANrdddddp6GhIX3+85/Xn/3Zn0mSLr/8cq1Zsya2SQUAaKTOcrnsW6BSqSiojGvFPQsl+d8wEGhno6OjNc/L5bJGRkaM6jKJS7ItafbGUSbvJVnOicn7a9J9JCeNiUsyH/W0R07qj2lG3Pj4ODmxSet5MzAwoF27dmnXrtp7WjmPxau9yclJjY2NuR57pVIx6iOA5KT9M7gz6GYzxWLR6IY0oxPTkqTli2ZUKBQixwNZ9dvnZv/b19dXs906z0zON9O4JNvK5/OJtmcal2Rbpu+vacijaVyWc5JkPkzbSzouDTlJQx4LhQI5scn6eeMVl8/n1dvb67qvWCxKksonjhu1ByBefQv71d/f3/Lv5X7vr7FfCpHLzT4AzMrlJBbyAACARtq8ebPvQOHwW4e075e/UKG4KMFeAQhyZnJcy5YO6NKLVza7K3Xhbi0AAABAyq1a5f+rDtPT01p07jKtuPhdCfUIQBgnjh7UzJnol2+1GiYWAAAAgDaQEyuJgVaTlVOyo9kdAAAAAAAA6cXEAgAAAAAAMMbNGwEAAAAAaJI3Dryuw4femPercatXr25Sj6KLfWLhlVdeUVdXV9zNAKkxMTGh7t58s7sBAADaDV/4AS0nK+dkrBMLg5e/UxMT4zo99faP673y8nCcTQKtr4N7pgIAAADIjthGOFMTpzR48YXzth87/KZnzOjo6LzlH2EkHXfgwAGtWLEikfbSkJMk85GWONOcAAAAAEDa8NUpAAAA0AZyys5P2wFoLfwqBAAAAAAAMMaKBQAAAKBN5LJypzggI7JyTnaWy2XfApVKRUFl3JRKI5JG5m1fvfriyHW1niwcQyORj/lMcvKaSiXJ7bwJYhJnElMu92tkJHr/JGlyctLovcS0PZO4JNuSzN5fk+4jOWlMXJL5qKc9clJ/TDPixsfHyYlNls8b07hKpaJif7dRewCSMTY2Nm9bmPeyVvkM7izNji48FYtFBZVxZ9ZZAK3Lei8weU/I5/OG7yVm7ZnGJdmW6ftrGvJoGpflnCSZD9P2ko5LQ07SkMdCoUBObLJ+3pjEFYtFo3bscjlJ1apyudn7NMz+5ltOM9WquHMDUL/e3t55N4wPe663wmcwl0IAAAAAbcD05o2zkwozylXPSNNTs/Xkcsp1dCmX61RVUrUaUAkSd8nS2VUqv33zdOQy1navePt+O7+2vOLsMUF99tsfV5/jlpVpOW7eCAAAAMBVTlV15mbUk5vQ8UP79c/P/P/68d7v69e//JkmK0fUpdNakJtpdjfhwhowew2ow0w8ROXVVph+NEuz288KViwgdXK5lTXPq9VX57ZVq682o0t1i9L/uI817bkEAADhLMjNaEGH/1KDDkknTxzRi7/5lZ79+c90+PBhTU1NqVAo6Nlnf6Z/9++v1fILL9GC7j5Nz2Tlu1eE5bba4JKl3ZFWQCQ9sA/bZ0TTkhMLzoGjU9BA0h4fZXAU14AqDQO1oJxbrGPwK+88zkYef9h+toKoOY1bGl6HAAAgRrmzlzWc1bVg4ASWAAAc1ElEQVRgRhOVUzp+7Kimp6dl3TnBrlqd0YHXX9U//uTHeuGFf1Wx2KcFCzp05Mhh/e53r+i8835Phd6iBpZfpJmc/9Di4oHZQdwrh+YP4Nz2Wdsszji//fb6gv4dtn5nuTB11XMMjeT3wwPOfc7jumRpt2e/7LH2PNi324/RrR63bUE/lBB3n5OUkR+FaM2JhXqYTiqgcXK5lbHnnr8tAABAfXJV6diRt/SzZ35y9o708ycWpqamdejQm3rhhd9owYIFuuKKK1QoFLR//3698spv9atfPacLLlyp5RdcJE03pl9eA/qLB7o9B+zO/WHqChMf1A+/uoJi6+lDWNbA2avPcU1kePUF2dXSEwtRB4/1Tiq082DVdJWBVxziXblhop1f3wAAwN3hw2/pH//xxyqXy5qZcb9XQrVaVS6X07Jly7V69Z9oyZIBPfvsP2n//t/p+PFjqoyOKucyKVEvr0kCr2/A3QbQbvV4xVr/tbb7rawIU5ff9qjHkAZeuWl2Xa3QTjto6YmFKBqxUsE+8HP7t1/9XmXs25199BqEO2Pr7UPY/a3OLZdexxAlt25x9u1udbntb9S9HuL6O4U9NgAAkE2zv+ZQu6G/f5EuuuhivfDCC1q4cKGq1RlNTk6qUOjVwoULJeVULp/QwYNv6MiRw/rVr55Tf//v9MILL6harapY7FN3d89sdSGXdIddlu8s97u3Tvs+d4vzKuNW10VL5i+Jt7Y1oo0osXEsj3er07nNOl6rX1ZeLh7odu2r28A8iWNy+xvF0WeEl4mJhTgvf3AbeNmX+nsNzOq5HMAZG9QH037GdclCK09YuOUtKEdh6vErG7V/YdpqBCYVAABob1XltGRgQP/2ve/TsWPHdMkll2p6ekrlclnnn79EF198qbp7uvX666/pmad/qjffPKjnntunrq5OnThxQpJ02WW/r/MHlmomhh/Nsw/q3QZ+XoP+ONpPcxvWQPuiJd01EyiNHkw3sj6vuhqdLyYUGqelJxaCvnV2lolrQOvWnnOw5/fNt9e32GFWHYTpg1cO7OW89tc7aE1yFUSUFQFhbuoZdlWDsz6v10CYfgXxeh3Fed8KLmcBAKA9zVRz6i+dp3e9693a98t/1uDgZTpz5oyOHHlLF164Su9893u0cGGfVqxYKVWlX/ziWZXLJzQ6OqPu7m4NDl6m9/zRv9HAsgs0VW3cr9jbB7+WuAbDXrwmNZKYCGgFYY/Tyo194qJZ0tjnLGnpiYVW4DZwDDPwCjsINKnLqw9Bg9wkVhI0+z4Cdo0aIJvmv1FtxzHQb6W/EwAASI59XcF0tUM5VZXLdWrpsmVatKhfU1Ozvw7Rv2iROhZ0anJmgRafv1z/4T/8qS644EIND7+osbGKzj9/iYaG3qMlS1eoI1/UmZmO0GsW/MpZ+/Y7BnurrMsUbNucZaK0FaYPfm3kPP4dte0wx9BIfv1eFTAwv2hJ97z+2v9eq84O1L2OyW+fXz/99sfd5yRk5EchWntiIcygxz7wSuLXCLyYrJxI+pvhONprxjfsYfCtOwAAgENO80Yx1VxOxYUL9Sf//kPq6c6rWpWmp6e0oLNLC7oKmlFO1Y5OdRYX6fffNaSLBy9XtVpVZ2eXugsFzSzo1kw1F2l0tGpJt/Yffnsgt+p82+AwN/vcvn/eMXjUY9VVs63emYUw8XXMLIQ6hgbYf/i0Vp3fPTcQ96vfbd/c38h5TC7H6Dwmq223fVbd89oMO7MQU58TlZGZhZaeWAgrrm91TdsO821w0DL7tGrm38ISNrdWX/mJUgAA0K6q6tBMR7d6+8+b27bg7H9nqrP3YahWJXV0qru3Xz3FRcpJqlalGVVnJxVCjoxqBpjn+3/T7Lc/Sj31iqv+JI8hKc5j8pxcaKHj9eszoukcHh72LXDw4EGjigcHk33B2AeJSQ8O67lGPcm+ttugud2ONwnDw8OqVCoqFouRY0dGRhT0fuPGtD2TuCTbkszeX5PuIzlpTFyS+ainPXJSf0wz4o4ePZrY+2sacpLl88Y07uDBg1p2wUXKnf2fXbUqTVX9JwZyOUlVaUaz/63ZF6kn0quHJ7Xy/LzntpxynmWC6nEr5zzeoO1BfbD307QNa3vYY4iDs29WP7zatvq66vzumjLOeuzH5Cwb5Xj9/j7W/iT6nASrN4cOHVJPT0/NvjDv7a3yGdw5ODgYWEGYMvO9ZhDTGElOLjR7yb+d3y8euD332lZvH7ImzC9wxNm2FN8kSdS//+DgoMrlskqlUuS2nn/+eaP3EtP2TOKSbMsSNSdJ95GcNCYuyXzU0x45qT+mGXFHjhwhJw5ZPW/qiWslbgM3t4kDk3qC9kWJCepn1DbCHHecTPLlVca0rqB2ouxPqs9JGRgYUF9fX822MO9lrfIZnIlLISzNut9C2IFmlJ8zjMJ53FH31yPMr1iYlG2EsDfG9PvVjqC8NlpSkxZxviYAAEDrymXkem4gMzJyTjbud2FaRNLfLLsNLqvVV31/ijLKtnr7EVR3XL9k0EyNzG2SeYvahzjqbfbfDgAAAED6tOSKhbC/BlFPfFBclPpN+2s6GRClvij7m1VXFGEH+lHyU++xhj2+Rr1mGzlJwuQCAAAAgHq15MQCAAAAgMYK//sNAJKSlXMy8xMLYS+H4Fva5uFvZI7cAQAAAGi2zE8sMKBqffyNzJE7AAAQmm3Jwv+z+6GmdgVoRx9fe1uzuxCbzE8sAAAAAKiV5QEOgOQxsQAAAAC0Cet67nOL003tB9COjlUWzNvGPRYAAAAApJLbAAcATMU2sVAu96tUKkWMKUeOaUbc8PCwBgcHE2kvDTlJMh9piUtDTkzbAgAAAAA7ViwAAAAAbSKXlXXXQFZk5JzsLJfLvgUqlYqCyrgZGRlJJKYZceSkVpL5SEtcGnKSdB4nJyfJiYPJ6yQNr/964rKakzR83iQdl4acpCGPkjQ+Pk5ObLJ83pjGVSoVFfu7jdoDkIyxsbF528K8l7XKZ3Bn0FLoYrFovFzaJC7JtkzjyEmtpPORhri05CTJtvL5PDlxMH2dpCGPpnFZzkkaPm+SjktDTtKQx0KhQE5ssn7emMQVi0VJ1q9NZuTrUSAjrHOyt7dXfX19NfvCnuut8BncEbk2AAAAAEDDLDu3S8vO7Wp2NwBj3GMBAAAAaAc5ZeZ67sxq4N9n2eLZiYqDx89ELmNt94q377fza8srzh4T1Ge//XH1OXYZOSdZsQAAAAC0iRyPlnzE8fd58+yAedniLtf91kD7zeNnPPvj1ScvXm3Z2/OLCcpD2D41qs9J//3TjBULAAAAAIDI3rR927/07MTB0sVdNdvt+5wxzn1JCNtnRMPEAgAAAIDYLbV9Q+4cTIYdbAaVC7vf3he3/oXZ5tWu23EGxbcSZ//DDrrd/q72+qwybnH1anSfER0TCwAAAEAbyEnKtcC6a6/B56ETwQNBq9zAOe6DwbD7LW758NsWtl5rW9h4v7brYeXC2T+rH345t/fFq19Rtof5+wbVG6XdRvQ5Ca1wTjYCEwsAAAAAEuU2yB045+3Br9sg1G1Q7iznLOO132/ywasNe/mg/nu1H7bfadTIY0gqH1nIe6vg5o0AAAAAEhN28D1wTlfNw6TuoP32SQG/bX51RJ08iPLNfdKcfXSbVHGWd/59kj6+NPY5i1ixAAAAALSDXGssu/brg7VvScl7IsEebx8cvlX2X+Xgtt9en7V/SanLd0l9mP77lQsb3yhvlc9oSWl2IG3929oepR9BffOrL0x8mLqsvke9hCVqO4iOiQUAAAAALcM+qWAf+Dm3Oycf7APmoP3w5zexY2efjFlS6mpqbtPY5yzhUggAAAAALSdowGdNIFgPk/1e2nESImhg7rffPlg3rd9E3H1GeEwsAAAAAG0g1+SHVz+sgd3h8hnfcvbtS0pdde23b1tS6pprO3e2H15lrfJu/Zf8j9Mr3i+mUY/DjkG0/XidfThcPjPv4exflPwcdqw6cfv7h82DVz8a3edmnRtp1lkul30LVCoVBZVxMzIykkhMM+LISa0k85GWuDTkJOk8Tk5OkhMHk9dJGl7/9cRlNSdp+LxJOi4NOUlDHiVpfHycnNhk+bwxjatUKir2d88+aYFRzPle3xDnopWrd3/gNsf2wyfP6PxFXZ51Hz7pWN2Qm7/fL963H43m106UfT75secj8Nh96o3ajyhl/fqcmLP9GRsbm7crzHtZq3wGd5ZKJd/gYrGooDJeTOKSbMs0jpzUSjofaYhLS06SbCufz5MTB9PXSRryaBqX5Zyk4fMm6bg05CQNeSwUCuTEJuvnjUlcsVg0aidJXoNQr21eZcLur6efznqj1B3m2JrBat/rOKw+nr/If/BdM1Bf5D254Ixp1T4nqbe3V319fTXbwp7rrfAZzM0bAQAAgLaQU64FliwcOTllVMa5Lage03aCYuttN8yxxaGeY3KWMa2rkblLqs9xa4VzshG4xwIAAAAAADDGigUAAACgDeRys49ma4U+AC0jI+cDKxYAAAAAAIAxViwAAAAAiN3RkeZdxw4gXkwsAAAAAG0iI6uugczIyjnJpRAAAAAAAMAYKxYAAACAdpGVr0cBtBRWLAAAAAAAAGOsWAAAAADaQE4sWABaTVbOSVYsAAAAAAAAY0wsAAAAAAAAY53lctm3QKVSUVAZNyMjI4nENCOOnNRKMh9piUtDTpLO4+TkJDlxMHmdpOH1X09cVnOShs+bpOPSkJM05FGSxsfHyYlNls8b07hKpaJif7dRewCSMTY2Nm9bmPeyVvkM7iyVSr7BxWJRQWW8mMQl2ZZpHDmplXQ+0hCXlpwk2VY+nycnDqavkzTk0TQuyzlJw+dN0nFpyEka8lgoFMiJTdbPG5O4YrE4+4+clMvKBd1ARljnZG9vr/r6+mr2hT3XW+EzmEshAAAAAACAMSYWAAAAAACAMX5uEgAAAGgDOXEpBNByMnJOsmIBAAAAAAAYY2IBAAAAAAAY41IIAAAAoE1kZNU1kBlZOSeZWAAAAADaQU7ZGcUAWZGRc5JLIQAAAAAAgDFWLAAAAABtYHbBQka+HgUyIivnJCsWAAAAAACAMVYsAAAAAG0il40vRwG0GFYsAAAAAAAAY53lctm3QKVSUVAZNyMjI4nENCOOnNRKMh9piUtDTpLO4+TkJDlxMHmdpOH1X09cVnOShs+bpOPSkJM05FGSxsfHyYlNls8b07hKpaJif7dRewCSMTY2Nm9bmPeyVvkM7iyVSr7BxWJRQWW8mMQl2ZZpHDmplXQ+0hCXlpwk2VY+nycnDqavkzTk0TQuyzlJw+dN0nFpyEka8lgoFMiJTdbPG5O4YrEoiV+bBFqRdU729vaqr6+vZl/Yc70VPoO5FAIAAAAAABjj5o0AAABAO2DJAtB6MnJOsmIBAAAAAAAYY8UCAAAA0CZ683yvCLSSjCxYYGIBAAAAaBfVarN7ACCLmFgAAAAA2sQMMwsAYsDEAgAAANAGcpJmmFcAWgqXQgAAAABIFRYsAC0mIzMLTCwAAAAAbSHHpRAAYsHEAgAAANAm/C6FeOE3/6rLr3hHbG3f+MlPuG5//H9+PbY2g1h9iqsP9dQfd9+ARmJiAQAAAGgHOf9LIX75i2f1y188q+v+6/UNbfamT709ofDY33x93r4bP/mJeduTFvdCjnrqZ5EJ0oCJBQAAAKAN5CTN+C1ZqEo//6enpar0n/+L++qCeuz42hOe7fv2KwFxtb/ja0/UXX+zc4N4ZeQWC+r86U9/6lvg6NGjOnLkSOSKx8fHVSgUYo9pRhw5qZVkPtISl4acJJ3HI0eOKOj9ppHtpSEnJq+TNLz+64nLak7S8HmTdFwacpKGPErSq6++GjnGtL005CTL541p3NGjR3XFu4Yk+V8KYe36+T89raqk//O6+icXbrlxdvXDo48/4dr2o48/Ma9fVoxbOWedzrL2ckF12fet//T1Nfu92nDrR5j2nW0G9d2vb2HbRrq89NJL6u7urtmWz+cD41rlM7jz/e9/v2/w8PCwBgcHIzdaLpdVKpVij2lGHDmplWQ+0hKXhpwkncfDhw8r6P2mke2lIScmr5M0vP7rictqTtLweZN0XBpykoY8WpJ6f01DTrJ83pjGDQ8Pz/3bd1m9bd+zZ1cufKwBkwuB7dp85qbZAfMjjz1Rs+2WG6+v2SZp3jZnObe67HGPPPaEa5mqzySHtS9KP511hum7X9+CjgvpdNlll6mvr69mW5j39lb5DO6IXBsAAACAVJqpej+cY/9nf/60/t//++u+MUGPMO1aD2vA/NDOJ2q2P7Tz7YkCe51hyznbscd5lbG3YX/Y6whq363+sH0P0ze/4+KRnkcuI9dCcI8FAAAAoE34/dxkdd7UgrTyokt9YxrRbpSy9n1hy922bnbCYvuOPZHbDOr37evXhIoLem5SNsxxAUlhYgEAAABoE2EvhZCkP/vPn9AfXnV1Q36VIEodfmXt+4LKbfvqHm28+e2BvzUJsO2r8wfiXnV5bbfqddZlbXfGBT2PUjbKcQFJYWIBAAAAaBMzM9777OPXj37sExp6z9W+5RvVbpSy9n1hyj3wyOxg+47PvD0Q33jzmrntQXW5bbfqeuCRPaHjgp5HLRv2uICkMLEAAAAAtIFcLuBSiLO7PvKxv9SVf/TehlwCcf/Du3XnrWt1x2fW6P6Hd8/bf+eta+fKWRp9KYS9fqu9sJcbRGnDb18cl0JIwceFFMjIPRa4eSMAAADQJqpV74ck/ae/+Etd+Z6rfctFfVjuvHWt575qVbrvod2u5axB830P7Z4X41dfUHt+dYVtw62ffvVHqdevnSj95dHaj6xgxQIAAADQJmZ8BjL/x5/8qRaVFvuWMXHvg7MTBndvWKu7blvrut9q894Hd7uWs5ex+PVzpjobY9Ke1V+vNvz6ePeGta5xUfvu17cwxwUkjYkFAAAAoE34LZVfuOicWJfS/9X2Xa7bnW26lbOXsfa79dW5L6gutzIz1apvG371erXv9dyv7159C3tcSIeMXAnBxAIAAADQLhp1M0YAjZGVexMwsQAAAAC0gZyydU03kAW5XDbWLDCxAAAAALQJlssDiENnuVz2LVCpVBRUxs3IyEgiMc2IIye1ksxHWuLSkJOk8zg5OUlOHExeJ2l4/dcTl9WcpOHzJum4NOQkDXmUpPHxcXJik+XzxjSuUqmo2N8tyf+mgQCSZ61XGBsbm7cvzHtZq3wGd5ZKJd/gYrGooDJeTOKSbMs0jpzUSjofaYhLS06SbCufz5MTB9PXSRryaBqX5Zyk4fMm6bg05CQNeSwUCuTEJuvnjUlcsVic+/elA91GbQKIxxtvzP63t7dXfX19NfvCnuut8BmclXtFAAAAAACAJmBiAQAAAAAAGOPmjQAAAEAbyOVmHwDQaKxYAAAAAAAAxphYAAAAAAAAxrgUAgAAAGgTXAoBtJasnJNMLAAAAABt4Pjx43rppZea3Q0ANuVyudldaAgmFgAAAICMO2fxYk1MLNfpqerctldeHm5ijwBYOvPd0syZZnejLkwsAAAAABl3XqlP55V+v2bbscNv+saMjo6qr68vclsmcUm2JUkHDhzQihUrEmsvqzlJuo9Jxz3//PN65zvfmUhbo6Ppnljg5o0AAAAAAMAYEwsAAAAAAMAYEwsAAAAAAMBYZ9BdKCuVitGdKkdGRhKJaUYcOamVZD7SEpeGnCSdx8nJSXLiYPI6ScPrv564rOYkDZ83ScelISdpyKMkjY+PkxObLJ83pnGVSkXSa/O2r159sVEfsqGdj90LOXEKe478r//1q7l/j42NGbXlFhfmvaxVPoM7S6WSb3CxWFRQGS8mcUm2ZRpHTmolnY80xKUlJ0m2lc/nyYmD6eskDXk0jctyTtLweZN0XBpykoY8FgoFcmKT9fPGJK5YLBq1AyCcD3/4w3P/LpfLRue2aZzUGp/BXAoBAAAAAACMMbEAAAAAAACMMbEAAAAAAACMdTa7AwAAAACSk8ut9N1frb46V6ZafdU33m1/ULtRYppZbyMF5dxiHYNfeedxpuH4wyJP6cWKBQAAAAChmE4qoHHCDr7bHXlKFisWAAAAgDYUdWKg3kmFdp6IMP323Csuq8hTejGxAAAAAMBXI1Yq2AeJbv/2q9+rjH27s49eg0tnbL19CLu/1YW5/MW+r558eL0WkF5cCgEAAADAU5yXP7gN/p2TBUFl6m0zTP1h+hlUR6M0ewAe5m8SNh9xrixodp7aDSsWAAAAgDYU9I2+s0xcAzW39nK5lTXb/ZbIe33jHWbVQZg+eOXAXs5rv/M4omrlVRBef5Oo+WjEMbVyntoFEwsAAAAAmsJtkBnmW+ywA0eTurz6EDQgTmIw28qXDZjkI67jaOU8ZRUTCwAAAEAbCjvw81pFkCSTlRNJ38Avjvb8VgU0e9Ac9DdJMv+tnKd2wT0WAAAAAHhq5sDMa8AaNGh1DnqtR9q1wjGY/k2S1Ap5ajed5XLZt0ClUlFQGTcjIyOJxDQjjpzUSjIfaYlLQ06SzuPk5CQ5cTB5naTh9V9PXFZzkobPm6Tj0pCTNORRksbHx8mJTZbPG9O4SqUiqduoPYu1cqEZ3wDX81OCSfa1nQazYf4m7ZQP+3tOGt4T4vgM7iyVSr7BxWJRQWW8mMQl2ZZpHDmplXQ+0hCXlpwk2VY+nycnDqavkzTk0TQuyzlJw+dN0nFpyEka8lgoFMiJTdbPG5O4YrFo1I6XJCcXWmkpu7MvQc+9ttXbh7i5HZff/rD1RImtV9KrJ5znZKu/J5jG+L2/co8FAAAAAIGadb+FsIPEuH7O0HncUffXI8yvWJiU9SoX9jj89seZj6j9iSNPcMc9FgAAAACE4vdNdtzt2bf5/RRllG319iOo7jgGq3EOgMPkzfRv4rc9DkwUJIsVCwAAAEAbqfdnAE0HbGEGnm77TPtrOhkQpb4o+5tVV1Smkwth6okSH6ZcM/OEWqxYAAAAAAAAxlixAAAAAMBI2Msh+La4efgbIQlMLAAAAAAwwmC09fE3QhK4FAIAAAAAABhjYgEAAAAAABhjYgEAAAAAABjjHgsAAABA5l0YOaJcLqtUKiUSl2RbkjQ8PKzBwcHE2stqTpLuY9JxP/3pT/X+978/clw7YsUCAAAAAAAw1lkul30LVCoVBZVxMzIykkhMM+LISa0k85GWuDTkJOk8Tk5OkhMHk9dJGl7/9cRlNSdp+LxJOi4NOUlDHiVpfHycnNhk+bwxjUtDTtLweVNPe1nNSRpe//XEmby/puHY4niNdAYtCSkWi0bLRiQZxSXZlmkcOamVdD7SEJeWnCTZVj6fJycOpq+TNOTRNC7LOUnD503ScWnISRryWCgUyIlN1s8bk7i05CQNnzem7ZnGpSEnacijaZzp+2sajq3RrxEuhQAAAAAAAMaYWAAAAAAAAMaYWAAAAAAAAMaYWAAAAAAAAMaYWAAAAAAAAMaYWAAAAAAAAMaYWAAAAAAAAMaYWAAAAAAAAMaYWAAAAAAAAMaYWAAAAAAAAMaYWAAAAAAAAMaYWAAAAAAAAMY6h4eHfQscPHjQqOJKpaJisRh7TDPiyEmtJPORlrg05CTpPI6MjCjo/aaR7aUhJyavkzS8/uuJy2pO0vB5k3RcGnKShjxK0tGjRxN7f01DTrJ83pjGpSEnafi8qae9rOYkDa//euJM3l/TcGxxvEY6BwcHAysIU8apXC6rVCrFHtOMOImcOCWVjzTFtXpOks7H888/T05cRM1JWl7/5KQxbUmt/15iGpeGnKQhj5J05MgRcuKQ1fOmnrhWz0kaPm/qaS+rOUnL6z/J99c0HFscr5H/DZkZzDYq97FaAAAAAElFTkSuQmCC;" vertex="1" parent="1">
          <mxGeometry x="827" y="20" width="1046" height="670" as="geometry" />
        </mxCell>
      </root>
    </mxGraphModel>
  </diagram>
</mxfile>
